<svg width="50" height="164" viewBox="0 0 50 164" fill="none" xmlns="http://www.w3.org/2000/svg">
<path d="M29.6128 3.5546C25.1517 4.39072 21.1391 6.0294 18.2007 8.21561C15.2614 10.4012 13.4074 13.1266 12.9263 15.9655C12.4462 18.805 13.3413 21.7476 15.4724 24.3348C17.6035 26.9214 20.9639 29.1432 25.0264 30.6528C25.3908 30.7881 25.7603 30.918 26.1216 31.055C29.6445 32.3867 32.4316 34.4083 34.1776 36.6929C35.9236 38.977 36.6499 41.5148 36.5016 44.0039C36.205 48.982 32.491 53.6322 27.6347 57.5681C24.003 60.5114 19.7226 63.1312 15.9168 65.9908C12.1109 68.8505 8.72913 72.0254 7.29255 75.6267C6.57477 77.4271 6.35954 79.3198 6.8369 81.1695C7.31326 83.0191 8.49534 84.8243 10.3901 86.3215C12.2839 87.8187 14.9017 88.996 17.8493 89.5555C20.797 90.1151 24.0629 90.0339 26.7992 89.2399C27.5519 89.0213 28.2616 88.7514 29.0288 88.5528C30.9591 88.0526 33.2085 88.0292 35.2421 88.4261C37.2758 88.823 39.0881 89.6266 40.429 90.647C41.7698 91.6681 42.6465 92.8988 43.0575 94.1705C43.4685 95.4416 43.4218 96.7534 43.0327 98.0144C42.2556 100.537 40.1483 102.816 37.7119 104.886C35.2765 106.955 32.4856 108.862 30.097 110.953C20.8471 119.051 18.251 129.889 23.2615 139.484" stroke="#334155" stroke-width="3"/>
<path fill-rule="evenodd" clip-rule="evenodd" d="M11.9425 133.078L28.7113 161.03L29.621 126.542C23.1019 138.561 23.112 138.657 11.9425 133.078Z" fill="#334155"/>
</svg>
