<svg width="30" height="50" viewBox="0 0 30 50" fill="none" xmlns="http://www.w3.org/2000/svg">
<g clip-path="url(#clip0_2208_1800)">
<path d="M29.8237 27.8233C29.8237 32.5317 29.8322 37.24 29.8168 41.9483C29.8206 42.916 29.7648 43.8828 29.6498 44.8435C29.5925 45.4189 29.41 45.9743 29.1154 46.4704C28.25 47.7923 26.9231 48.8578 25.3335 49.1925C24.055 49.4861 22.7531 49.6636 21.4431 49.7231C17.0255 49.8371 12.6055 49.8702 8.1861 49.9012C7.2934 49.9074 6.39859 49.7788 5.50629 49.6952C3.0184 49.4627 1.71974 47.8257 1.0332 45.6379C0.690703 44.546 0.626282 43.3605 0.483205 42.2115C-0.0167943 38.1976 0.092054 34.1648 0.142823 30.134C0.18449 26.8127 0.219357 23.4913 0.247434 20.17C0.275126 16.3646 0.245705 12.5582 0.325512 8.75414C0.354293 7.46722 0.523322 6.18739 0.829551 4.93768C1.3959 2.62857 2.99206 1.44037 5.2884 0.974092C10.6209 -0.108466 15.9905 0.0369498 21.37 0.321253C23.2739 0.421834 24.98 1.10723 26.5672 2.14503C27.6893 2.86778 28.5148 3.97423 28.8922 5.26113C29.1981 6.31129 29.3866 7.39266 29.4539 8.48501C29.6335 11.9293 29.7606 15.3763 29.8356 18.8261C29.8966 21.8239 29.8483 24.8241 29.8483 27.8233H29.8237ZM3.50648 39.5324C11.3522 38.834 19.2312 38.5896 27.1047 38.8007C27.1275 38.3964 27.1591 38.0811 27.161 37.7656C27.2098 30.1237 27.0648 22.2881 27.1056 14.6454C27.1089 14.2592 27.0833 13.8732 27.0287 13.4909C26.7725 11.7392 26.7135 10.1801 26.4177 8.43515C26.2822 7.67827 26.0977 6.93108 25.8656 6.19832C25.7466 5.8129 25.5435 5.4592 25.2714 5.16299C24.9993 4.86679 24.6648 4.63557 24.2925 4.48631C23.2154 3.9834 22.0466 3.71036 20.8597 3.68423C19.6108 3.66117 18.3597 3.67625 17.1134 3.61772C13.3521 3.44098 9.63263 3.77817 5.92648 4.40956C4.74667 4.61053 4.10206 5.2553 3.85263 6.37177C3.75192 6.81139 3.68761 7.25863 3.66033 7.70896C3.61475 8.54559 3.5984 9.38441 3.59263 10.2224C3.54442 17.3154 3.49879 24.409 3.45571 31.5028C3.44225 33.5662 3.41283 35.6295 3.40763 37.6929C3.40744 38.2631 3.46744 38.8334 3.50648 39.5324ZM26.9722 41.0268L3.61533 41.3043C3.76783 42.7772 3.69686 44.1355 4.11167 45.4274C4.43033 46.4195 5.11302 47.0526 6.22552 47.0714C6.64148 47.0786 7.05686 47.1119 7.47263 47.1134C8.81706 47.1185 10.1613 47.1158 11.5057 47.1134C15.1226 47.1082 18.7399 47.1288 22.356 47.0778C23.3131 47.0578 24.2643 46.9212 25.1887 46.6708C26.0406 46.4445 26.8452 45.9026 26.9412 44.952C27.0666 43.7138 26.9722 42.4538 26.9722 41.027V41.0268Z" fill="#334155"/>
<path d="M17.3633 43.8817C17.3604 44.9154 16.3891 45.8142 15.2512 45.8359C15.0026 45.8425 14.7554 45.7983 14.5242 45.7059C14.293 45.6136 14.0828 45.4753 13.9061 45.2989C13.7295 45.1226 13.59 44.9121 13.4962 44.6801C13.4023 44.4481 13.356 44.1993 13.36 43.9487C13.3771 43.4121 13.5953 42.9018 13.9708 42.5208C14.3464 42.1398 14.8512 41.9164 15.3837 41.8956C16.382 41.8828 17.3656 42.8702 17.3633 43.8817Z" fill="#334155"/>
</g>
<defs>
<clipPath id="clip0_2208_1800">
<rect width="30" height="50" fill="white"/>
</clipPath>
</defs>
</svg>
