<svg width="50" height="50" viewBox="0 0 50 50" fill="none" xmlns="http://www.w3.org/2000/svg">
<path d="M40.675 3.66884C40.5438 3.68134 40.4375 3.71884 40.4375 3.75634C40.4375 3.78759 40.4 3.81259 40.3625 3.81259C40.2625 3.81259 40 4.08759 40 4.18134C40 4.21884 39.975 4.25009 39.9375 4.25009C39.9063 4.25009 39.875 4.31884 39.875 4.40634C39.875 4.49384 39.9 4.56259 39.9313 4.56259C39.9625 4.56259 40.0063 4.63134 40.025 4.71884C40.0563 4.83134 40.1188 4.88759 40.25 4.91884C40.3563 4.93759 40.4375 4.97509 40.4375 5.00634C40.4375 5.03759 40.5063 5.06259 40.5875 5.06259C40.7438 5.06259 40.9375 5.20634 40.9375 5.32509C40.9375 5.36259 41.0938 5.54384 41.2813 5.71884C41.4688 5.90009 41.625 6.08134 41.625 6.11884C41.625 6.15009 41.8063 6.36259 42.0313 6.58759C42.2563 6.80634 42.4375 7.01259 42.4375 7.04384C42.4375 7.07509 42.5188 7.16884 42.6188 7.25634C42.7125 7.34384 42.8125 7.47509 42.8375 7.55009C42.8625 7.62509 42.9063 7.68759 42.9375 7.68759C42.9625 7.68759 43.0063 7.75634 43.025 7.84384C43.05 7.93134 43.0938 8.00009 43.125 8.00009C43.1625 8.00009 43.1875 8.03759 43.1875 8.08759C43.1875 8.13759 43.2313 8.18759 43.2813 8.21259C43.3313 8.23134 43.375 8.28759 43.375 8.34384C43.375 8.39384 43.4 8.43759 43.4313 8.43759C43.4625 8.43759 43.5063 8.53759 43.525 8.65634C43.55 8.7751 43.5938 8.8751 43.625 8.8751C43.65 8.8751 43.6938 8.95635 43.7188 9.0626C43.7438 9.1626 43.7875 9.2501 43.8188 9.2501C43.85 9.2501 43.875 9.29385 43.875 9.34385C43.875 9.39385 43.9 9.4376 43.9313 9.4376C43.9625 9.4376 44 9.5501 44.025 9.6876C44.0438 9.8251 44.0938 9.9376 44.125 9.9376C44.1563 9.9376 44.2063 10.0501 44.225 10.1876C44.25 10.3251 44.2875 10.4376 44.3125 10.4376C44.3375 10.4376 44.3813 10.5376 44.4 10.6563C44.425 10.7751 44.4688 10.8751 44.5 10.8751C44.525 10.8751 44.5688 11.0126 44.5938 11.1876C44.6188 11.3563 44.6625 11.5001 44.6938 11.5001C44.725 11.5001 44.75 11.5438 44.75 11.5938C44.75 11.6438 44.775 11.6876 44.8063 11.6876C44.8438 11.6876 44.8875 11.8126 44.9125 11.9688C44.9313 12.1251 44.975 12.2501 45 12.2501C45.025 12.2501 45.0625 12.3626 45.0875 12.5001C45.1063 12.6376 45.15 12.7501 45.1813 12.7501C45.2125 12.7501 45.2563 12.8751 45.275 13.0313C45.3 13.1876 45.3438 13.3126 45.375 13.3126C45.4 13.3126 45.4438 13.4501 45.4688 13.6251C45.4938 13.7938 45.5375 13.9376 45.5688 13.9376C45.6 13.9376 45.625 13.9938 45.625 14.0626C45.625 14.1313 45.65 14.1876 45.6813 14.1876C45.7125 14.1876 45.7563 14.3438 45.7813 14.5313C45.8 14.7188 45.8438 14.8751 45.875 14.8751C45.9 14.8751 45.9438 15.0313 45.9688 15.2188C45.9875 15.4063 46.0313 15.5626 46.0625 15.5626C46.0875 15.5626 46.1313 15.7313 46.1563 15.9376C46.1813 16.1438 46.225 16.3126 46.25 16.3126C46.275 16.3126 46.3188 16.5063 46.3438 16.7501C46.3688 16.9876 46.4125 17.1876 46.4438 17.1876C46.475 17.1876 46.5 17.3001 46.5 17.4376C46.5 17.5751 46.525 17.6876 46.5563 17.6876C46.5875 17.6876 46.6313 17.9251 46.6563 18.2188C46.6813 18.5126 46.725 18.7501 46.75 18.7501C46.7813 18.7501 46.8188 19.0501 46.8438 19.4188C46.8688 19.8001 46.9188 20.1126 46.9625 20.1376C47.0625 20.2001 47.0625 25.8001 46.9625 25.8626C46.925 25.8876 46.8688 26.1251 46.8438 26.3876C46.825 26.6563 46.7813 26.8751 46.75 26.8751C46.725 26.8751 46.6813 27.0438 46.6563 27.2501C46.6313 27.4563 46.5875 27.6251 46.5563 27.6251C46.525 27.6251 46.5 27.6938 46.5 27.7813C46.5 27.8688 46.475 27.9376 46.4438 27.9376C46.4063 27.9376 46.3625 28.0626 46.3375 28.2188C46.3188 28.3751 46.275 28.5001 46.2438 28.5001C46.2125 28.5001 46.1688 28.6126 46.15 28.7501C46.125 28.8876 46.0875 29.0001 46.0625 29.0001C46.0313 29.0001 45.9938 29.0876 45.9688 29.1876C45.9438 29.2938 45.9063 29.3751 45.875 29.3751C45.8438 29.3751 45.8063 29.4563 45.7813 29.5626C45.7563 29.6626 45.7125 29.7501 45.6813 29.7501C45.65 29.7501 45.625 29.7938 45.625 29.8438C45.625 29.8938 45.6 29.9376 45.5625 29.9376C45.5313 29.9376 45.4875 30.0376 45.4625 30.1563C45.4438 30.2751 45.4 30.3751 45.375 30.3751C45.3438 30.3751 45.3063 30.4626 45.2813 30.5626C45.2563 30.6688 45.2188 30.7501 45.1875 30.7501C45.1563 30.7501 45.1188 30.8376 45.0938 30.9376C45.0688 31.0438 45.025 31.1251 44.9938 31.1251C44.9625 31.1251 44.925 31.1938 44.9 31.2813C44.8813 31.3688 44.8375 31.4376 44.8063 31.4376C44.775 31.4376 44.75 31.4813 44.75 31.5313C44.75 31.5813 44.725 31.6251 44.6938 31.6251C44.6625 31.6251 44.6188 31.6938 44.6 31.7813C44.575 31.8688 44.5313 31.9376 44.5 31.9376C44.4625 31.9376 44.4375 31.9813 44.4375 32.0313C44.4375 32.0876 44.3938 32.1438 44.3438 32.1626C44.2938 32.1876 44.25 32.2376 44.25 32.2813C44.25 32.3313 44.2125 32.4063 44.1625 32.4501C44.1188 32.5001 44.0563 32.6001 44.0375 32.6751C44.0125 32.7501 43.9625 32.8126 43.9313 32.8126C43.9 32.8126 43.875 32.8438 43.875 32.8751C43.875 32.9126 43.8125 33.0063 43.7313 33.0813C43.65 33.1563 43.5688 33.2688 43.5438 33.3251C43.525 33.3876 43.475 33.4376 43.4438 33.4376C43.4125 33.4376 43.3625 33.5001 43.3375 33.5751C43.3188 33.6501 43.1875 33.8126 43.0563 33.9376C42.9188 34.0626 42.8125 34.1813 42.8125 34.2126C42.8125 34.2876 42.4438 34.6813 42.1625 34.9063C42.075 34.9751 42.0063 35.0688 42 35.1126C42 35.1563 41.7188 35.4688 41.3813 35.8063C41.0438 36.1438 40.7438 36.4813 40.725 36.5501C40.7 36.6251 40.625 36.7001 40.5625 36.7188C40.4875 36.7438 40.425 36.8376 40.4 36.9813C40.3438 37.2938 40.4125 38.0251 40.5 38.0501C40.5438 38.0688 40.625 38.1313 40.675 38.1938C40.7313 38.2626 40.8125 38.3126 40.85 38.3126C40.8938 38.3126 40.9375 38.3501 40.9563 38.3876C40.9875 38.4938 42.3688 38.4938 42.4313 38.3876C42.45 38.3501 42.55 38.3001 42.6438 38.2813C42.7375 38.2563 42.8125 38.2126 42.8125 38.1876C42.8125 38.1563 42.8938 38.1188 42.9875 38.0938C43.0813 38.0751 43.2 38.0001 43.25 37.9376C43.3 37.8688 43.3688 37.8126 43.4 37.8126C43.4313 37.8126 43.55 37.7188 43.6625 37.6063C43.95 37.3251 44.05 37.2501 44.125 37.2501C44.1563 37.2501 44.1875 37.2126 44.1875 37.1626C44.1875 37.0626 44.725 36.5001 44.8188 36.5001C44.85 36.5001 44.875 36.4626 44.875 36.4126C44.875 36.3626 44.975 36.2188 45.0938 36.0876C45.2125 35.9626 45.3125 35.8313 45.3125 35.8001C45.3125 35.7688 45.3813 35.6813 45.4688 35.6001C45.5563 35.5188 45.625 35.4313 45.625 35.4063C45.625 35.3813 45.6938 35.2938 45.775 35.2188C45.8563 35.1438 45.9438 35.0188 45.9688 34.9501C45.9875 34.8751 46.0375 34.8126 46.0688 34.8126C46.1 34.8126 46.125 34.7688 46.125 34.7188C46.125 34.6626 46.1688 34.6063 46.2188 34.5876C46.2688 34.5626 46.3125 34.4938 46.3125 34.4313C46.3125 34.3626 46.3563 34.2938 46.4063 34.2751C46.4563 34.2501 46.5 34.2001 46.5 34.1501C46.5 34.1001 46.525 34.0626 46.5625 34.0626C46.5938 34.0626 46.6375 33.9938 46.6625 33.9126C46.6813 33.8251 46.7375 33.7438 46.7875 33.7251C46.8375 33.7063 46.875 33.6313 46.875 33.5626C46.875 33.4938 46.9063 33.4376 46.9375 33.4376C46.975 33.4376 47 33.3938 47 33.3438C47 33.2876 47.0375 33.2313 47.0875 33.2126C47.1375 33.1938 47.2 33.0938 47.2188 32.9938C47.2438 32.8938 47.2875 32.8126 47.3188 32.8126C47.35 32.8126 47.375 32.7563 47.375 32.6938C47.375 32.6313 47.4188 32.5626 47.4688 32.5376C47.5188 32.5188 47.5625 32.4626 47.5625 32.4063C47.5625 32.3563 47.5875 32.3126 47.6188 32.3126C47.65 32.3126 47.6938 32.2313 47.7188 32.1251C47.7438 32.0251 47.7813 31.9376 47.8125 31.9376C47.8375 31.9376 47.8813 31.8376 47.9 31.7188C47.925 31.6001 47.9688 31.5001 48 31.5001C48.025 31.5001 48.0688 31.3876 48.0938 31.2501C48.1188 31.1126 48.1625 31.0001 48.1938 31.0001C48.225 31.0001 48.25 30.9563 48.25 30.9063C48.25 30.8563 48.275 30.8126 48.3125 30.8126C48.3438 30.8126 48.3875 30.7126 48.4125 30.5938C48.4313 30.4751 48.475 30.3751 48.5 30.3751C48.5313 30.3751 48.5688 30.2626 48.5938 30.1251C48.6188 29.9876 48.6563 29.8751 48.6875 29.8751C48.7125 29.8751 48.75 29.7626 48.775 29.6251C48.7938 29.4876 48.8375 29.3751 48.8688 29.3751C48.9 29.3751 48.9438 29.2501 48.9625 29.0938C48.9875 28.9376 49.0313 28.8126 49.0688 28.8126C49.1 28.8126 49.125 28.7126 49.125 28.5938C49.125 28.4751 49.15 28.3751 49.1875 28.3751C49.2188 28.3751 49.2625 28.2376 49.2875 28.0626C49.3125 27.8876 49.35 27.7501 49.375 27.7501C49.4 27.7501 49.4438 27.5626 49.4688 27.3251C49.4938 27.0938 49.5375 26.8938 49.5625 26.8751C49.5938 26.8563 49.6375 26.5126 49.6625 26.1063C49.6875 25.7063 49.7313 25.3751 49.7563 25.3751C49.7875 25.3751 49.8125 24.4626 49.8125 23.3438C49.8125 22.2251 49.7875 21.3126 49.7625 21.3126C49.7313 21.3126 49.6875 20.8563 49.6625 20.3001C49.6375 19.7438 49.5938 19.2688 49.5688 19.2501C49.5375 19.2313 49.4938 18.9438 49.4688 18.6063C49.4438 18.2751 49.4063 18.0001 49.375 18.0001C49.35 18.0001 49.3063 17.7751 49.2813 17.5001C49.2563 17.2251 49.2125 17.0001 49.1813 17.0001C49.15 17.0001 49.125 16.9126 49.125 16.8126C49.125 16.7063 49.1 16.6251 49.0688 16.6251C49.0438 16.6251 48.9938 16.4251 48.975 16.1876C48.95 15.9438 48.9063 15.7501 48.8813 15.7501C48.85 15.7501 48.8063 15.5938 48.7813 15.4063C48.7625 15.2188 48.7188 15.0626 48.6938 15.0626C48.6625 15.0626 48.6188 14.9126 48.6 14.7376C48.575 14.5563 48.525 14.3938 48.4938 14.3688C48.4625 14.3501 48.4188 14.1876 48.3938 14.0126C48.375 13.8313 48.3313 13.6876 48.3063 13.6876C48.275 13.6876 48.25 13.6313 48.25 13.5626C48.25 13.4938 48.225 13.4376 48.1938 13.4376C48.1625 13.4376 48.1188 13.2938 48.0938 13.1251C48.0688 12.9501 48.025 12.8126 48 12.8126C47.9688 12.8126 47.925 12.7126 47.9 12.5938C47.8813 12.4751 47.8375 12.3751 47.8125 12.3751C47.7875 12.3751 47.75 12.2626 47.725 12.1251C47.7063 11.9876 47.6625 11.8751 47.6313 11.8751C47.6 11.8751 47.5563 11.7501 47.5375 11.5938C47.5125 11.4376 47.4688 11.3126 47.4313 11.3126C47.4 11.3126 47.375 11.2563 47.375 11.1876C47.375 11.1188 47.35 11.0626 47.3188 11.0626C47.2875 11.0626 47.2438 10.9626 47.225 10.8438C47.2 10.7251 47.1563 10.6251 47.125 10.6251C47.0938 10.6251 47.05 10.5251 47.025 10.4063C47.0063 10.2876 46.9625 10.1876 46.9375 10.1876C46.9125 10.1876 46.8688 10.0876 46.85 9.96885C46.825 9.8501 46.7813 9.7501 46.75 9.7501C46.7188 9.7501 46.675 9.6501 46.65 9.53135C46.6313 9.4126 46.5875 9.3126 46.5563 9.3126C46.525 9.3126 46.5 9.26885 46.5 9.21885C46.5 9.16885 46.475 9.1251 46.4438 9.1251C46.4125 9.1251 46.3688 9.0376 46.3438 8.9376C46.3188 8.83135 46.2813 8.75009 46.25 8.75009C46.2188 8.75009 46.1813 8.66259 46.1563 8.56259C46.1313 8.45634 46.0938 8.37509 46.0625 8.37509C46.0375 8.37509 45.9938 8.30634 45.975 8.21884C45.95 8.13134 45.9125 8.06259 45.8813 8.06259C45.85 8.06259 45.8063 7.98134 45.7813 7.88759C45.7625 7.79384 45.6875 7.67509 45.625 7.62509C45.5563 7.57509 45.5 7.50009 45.5 7.45009C45.5 7.40634 45.4563 7.35634 45.4063 7.33759C45.3563 7.31259 45.3125 7.26259 45.3125 7.21884C45.3125 7.16884 45.275 7.09384 45.225 7.05009C45.1813 7.00009 45.1188 6.90009 45.1 6.82509C45.075 6.75009 45.025 6.68759 44.9938 6.68759C44.9625 6.68759 44.9375 6.65009 44.9375 6.60009C44.9375 6.55634 44.8563 6.45634 44.75 6.37509C44.65 6.29384 44.5625 6.19384 44.5625 6.15009C44.5625 6.10009 44.4 5.91259 44.2063 5.71884C43.8 5.33134 43.7875 5.31884 43.5438 5.06259C43.4438 4.95634 43.3375 4.87509 43.3 4.87509C43.2625 4.87509 43.1688 4.80634 43.0938 4.72509C43.0188 4.64384 42.9 4.55634 42.825 4.53759C42.75 4.51259 42.675 4.43759 42.6563 4.36884C42.6313 4.30634 42.5813 4.25009 42.5313 4.25009C42.4875 4.25009 42.4063 4.21259 42.3625 4.16259C42.3125 4.11884 42.2063 4.05634 42.125 4.03134C42.0438 4.00634 41.9375 3.94384 41.8875 3.90009C41.8438 3.85009 41.75 3.81259 41.6875 3.81259C41.625 3.81259 41.5625 3.78759 41.55 3.75634C41.525 3.69384 40.9813 3.63759 40.675 3.66884Z" fill="#334155"/>
<path d="M33.6876 11.8062C33.6876 11.8375 33.5751 11.875 33.4376 11.9C33.2501 11.9312 33.1876 11.9687 33.1876 12.0562C33.1876 12.125 33.1501 12.1875 33.1126 12.2062C32.9938 12.2437 33.0251 12.8437 33.1501 12.9687C33.2063 13.025 33.2501 13.1125 33.2501 13.1625C33.2501 13.2125 33.2813 13.25 33.3126 13.25C33.3501 13.25 33.4001 13.3 33.4188 13.3562C33.4438 13.4187 33.5063 13.5125 33.5626 13.5625C33.6251 13.6125 33.6876 13.7187 33.7126 13.7937C33.7376 13.875 33.7876 13.9375 33.8188 13.9375C33.8501 13.9375 33.8751 13.9812 33.8751 14.0312C33.8751 14.0875 33.9188 14.1437 33.9688 14.1625C34.0188 14.1875 34.0626 14.2375 34.0626 14.2812C34.0626 14.3312 34.1001 14.4062 34.1501 14.45C34.1938 14.5 34.2563 14.6 34.2751 14.675C34.3001 14.75 34.3501 14.8125 34.3813 14.8125C34.4126 14.8125 34.4376 14.8562 34.4376 14.9062C34.4376 14.9562 34.4688 15 34.5001 15C34.5376 15 34.5626 15.0437 34.5626 15.0937C34.5626 15.15 34.6063 15.2062 34.6563 15.225C34.7063 15.2437 34.7626 15.3562 34.7876 15.475C34.8063 15.5937 34.8501 15.6875 34.8751 15.6875C34.9063 15.6875 34.9438 15.7687 34.9688 15.875C34.9938 15.975 35.0313 16.0625 35.0626 16.0625C35.0938 16.0625 35.1313 16.1437 35.1563 16.25C35.1813 16.35 35.2251 16.4375 35.2563 16.4375C35.2876 16.4375 35.3126 16.5062 35.3126 16.5937C35.3126 16.6812 35.3376 16.75 35.3688 16.75C35.4001 16.75 35.4438 16.9125 35.4688 17.1062C35.4938 17.3062 35.5376 17.4875 35.5688 17.5062C35.6001 17.525 35.6438 17.7562 35.6626 18.0187C35.6876 18.2812 35.7251 18.5 35.7501 18.5C35.7751 18.5 35.8188 18.7437 35.8438 19.0437C35.8688 19.35 35.9126 19.6062 35.9438 19.625C35.9688 19.6437 36.0126 20.0312 36.0376 20.4875C36.0626 20.9437 36.1063 21.3125 36.1313 21.3125C36.1626 21.3125 36.1876 21.6375 36.1876 22.0312C36.1876 22.425 36.1626 22.75 36.1313 22.75C36.1063 22.75 36.0626 23.05 36.0376 23.4187C36.0126 23.7875 35.9688 24.1062 35.9438 24.125C35.9126 24.1437 35.8688 24.3437 35.8501 24.575C35.8251 24.8125 35.7813 25 35.7501 25C35.7251 25 35.6813 25.1562 35.6563 25.3437C35.6376 25.5312 35.5938 25.6875 35.5688 25.6875C35.5376 25.6875 35.5001 25.8 35.4751 25.9375C35.4563 26.075 35.4063 26.1875 35.3751 26.1875C35.3376 26.1875 35.3126 26.2437 35.3126 26.3125C35.3126 26.3812 35.2876 26.4375 35.2563 26.4375C35.2251 26.4375 35.1813 26.5062 35.1626 26.5937C35.1376 26.6812 35.1001 26.75 35.0688 26.75C35.0376 26.75 34.9938 26.8312 34.9688 26.9375C34.9438 27.0375 34.9001 27.125 34.8688 27.125C34.8376 27.125 34.8126 27.1625 34.8126 27.2125C34.8126 27.2625 34.7751 27.3437 34.7251 27.3875C34.6813 27.4375 34.6188 27.5375 34.6001 27.6125C34.5751 27.6875 34.5313 27.75 34.5001 27.75C34.4251 27.75 34.0626 28.1187 34.0626 28.1937C34.0626 28.225 33.8813 28.4312 33.6626 28.6437C33.4438 28.8625 33.2438 29.1062 33.2188 29.1937C33.1938 29.275 33.1376 29.3625 33.1001 29.3875C33.0001 29.4562 33.0063 30.5125 33.1126 30.5437C33.1501 30.5625 33.1876 30.6 33.1876 30.6375C33.1876 30.7187 33.5938 31.125 33.6813 31.125C33.7126 31.125 33.7501 31.1625 33.7688 31.2C33.7813 31.2562 33.9626 31.2812 34.3751 31.2812C34.7876 31.2812 34.9688 31.2562 34.9876 31.2C35.0001 31.1625 35.0501 31.125 35.1001 31.125C35.1501 31.125 35.1876 31.0937 35.1876 31.0625C35.1876 31.025 35.2313 31 35.2876 31C35.3876 31 36.6876 29.7375 36.6876 29.6437C36.6876 29.6125 36.7438 29.5437 36.8126 29.4812C36.8813 29.425 36.9376 29.3312 36.9376 29.2812C36.9376 29.2312 36.9688 29.1875 37.0001 29.1875C37.0376 29.1875 37.0626 29.1437 37.0626 29.0937C37.0626 29.0437 37.0876 29 37.1251 29C37.1563 29 37.2001 28.9312 37.2251 28.8437C37.2438 28.7562 37.2876 28.6875 37.3126 28.6875C37.3438 28.6875 37.3813 28.6062 37.4063 28.5C37.4313 28.3937 37.4688 28.3125 37.5001 28.3125C37.5313 28.3125 37.5688 28.2312 37.5938 28.125C37.6188 28.025 37.6626 27.9375 37.6938 27.9375C37.7251 27.9375 37.7688 27.825 37.7876 27.6875C37.8126 27.55 37.8501 27.4375 37.8813 27.4375C37.9126 27.4375 37.9376 27.3937 37.9376 27.3437C37.9376 27.2937 37.9626 27.25 37.9938 27.25C38.0251 27.25 38.0626 27.1375 38.0876 27C38.1063 26.8625 38.1501 26.75 38.1813 26.75C38.2126 26.75 38.2563 26.5937 38.2813 26.4062C38.3001 26.2187 38.3438 26.0625 38.3751 26.0625C38.4063 26.0625 38.4501 25.8625 38.4751 25.625C38.4938 25.3812 38.5376 25.1875 38.5626 25.1875C38.5938 25.1875 38.6313 24.95 38.6563 24.6562C38.6813 24.3625 38.7251 24.125 38.7563 24.125C38.7876 24.125 38.8126 23.975 38.8126 23.7875C38.8126 23.5875 38.8438 23.4375 38.8813 23.425C38.9813 23.3937 38.9813 20.1062 38.8813 20.075C38.8438 20.0625 38.8126 19.9 38.8126 19.7125C38.8126 19.525 38.7876 19.375 38.7563 19.375C38.7313 19.375 38.6876 19.1437 38.6626 18.8625C38.6376 18.5812 38.5938 18.3312 38.5688 18.3125C38.5376 18.2937 38.4938 18.0937 38.4751 17.8562C38.4501 17.625 38.4063 17.4375 38.3813 17.4375C38.3501 17.4375 38.3126 17.2937 38.2938 17.1125C38.2688 16.9375 38.2251 16.775 38.1938 16.7562C38.1626 16.7375 38.1188 16.5875 38.0938 16.4187C38.0688 16.2562 38.0251 16.125 37.9938 16.125C37.9626 16.125 37.9376 16.0687 37.9376 16C37.9376 15.9312 37.9126 15.875 37.8751 15.875C37.8438 15.875 37.8001 15.775 37.7751 15.6562C37.7563 15.5375 37.7126 15.4375 37.6876 15.4375C37.6563 15.4375 37.6188 15.35 37.5938 15.25C37.5688 15.1437 37.5313 15.0625 37.5001 15.0625C37.4688 15.0625 37.4313 14.975 37.4063 14.875C37.3813 14.7687 37.3438 14.6875 37.3126 14.6875C37.2876 14.6875 37.2438 14.6187 37.2251 14.5312C37.2001 14.4437 37.1563 14.375 37.1251 14.375C37.0876 14.375 37.0626 14.3437 37.0626 14.3125C37.0626 14.275 36.9938 14.1812 36.9063 14.1C36.8188 14.0187 36.7501 13.925 36.7501 13.8875C36.7501 13.85 36.6251 13.7 36.4688 13.55C36.0376 13.1375 35.8626 12.9562 35.6688 12.75C35.5688 12.65 35.4626 12.5625 35.4251 12.5625C35.3876 12.5625 35.2938 12.4937 35.2188 12.4125C35.1438 12.3312 35.0126 12.2437 34.9313 12.2187C34.8501 12.1937 34.7376 12.1187 34.6813 12.0562C34.6251 11.9937 34.4501 11.925 34.2626 11.9C34.0813 11.8812 33.9376 11.8375 33.9376 11.8062C33.9376 11.775 33.8813 11.75 33.8126 11.75C33.7438 11.75 33.6876 11.775 33.6876 11.8062Z" fill="#334155"/>
<path d="M26.875 15.9187C26.7063 15.9875 26.6188 16.1187 26.5813 16.3437C26.5625 16.4625 26.5188 16.5625 26.4938 16.5625C26.4625 16.5625 26.4375 16.6187 26.4375 16.6875C26.4375 16.7562 26.4625 16.8125 26.4938 16.8125C26.525 16.8125 26.5688 16.95 26.5938 17.125C26.6188 17.2937 26.6625 17.4375 26.6938 17.4375C26.725 17.4375 26.75 17.475 26.75 17.525C26.75 17.575 26.7938 17.625 26.8438 17.65C26.8938 17.6687 26.9375 17.725 26.9375 17.7812C26.9375 17.8312 26.9625 17.875 27 17.875C27.0313 17.875 27.075 17.975 27.1 18.0937C27.1188 18.2125 27.1625 18.3125 27.1875 18.3125C27.2188 18.3125 27.2563 18.3937 27.2813 18.5C27.3063 18.6 27.3438 18.6875 27.375 18.6875C27.4063 18.6875 27.4438 18.7687 27.4688 18.875C27.4938 18.975 27.5375 19.0625 27.5688 19.0625C27.6 19.0625 27.625 19.1062 27.625 19.1562C27.625 19.2062 27.65 19.25 27.6813 19.25C27.7125 19.25 27.7563 19.3812 27.7813 19.5437C27.8063 19.7125 27.85 19.8625 27.8813 19.8812C27.9125 19.9 27.9563 20.0687 27.9813 20.2562C28 20.4437 28.05 20.6125 28.0875 20.6375C28.1875 20.7 28.1813 22.9875 28.0875 23.05C28.05 23.075 27.9938 23.2437 27.9688 23.4187C27.9438 23.6 27.9 23.75 27.8688 23.75C27.8375 23.75 27.7938 23.8625 27.775 24C27.75 24.1562 27.6938 24.2562 27.625 24.2812C27.5625 24.3 27.4938 24.3875 27.475 24.4687C27.45 24.5562 27.4063 24.625 27.375 24.625C27.3375 24.625 27.3125 24.6687 27.3125 24.7187C27.3125 24.775 27.2688 24.8312 27.2188 24.85C27.1688 24.875 27.125 24.9437 27.125 25.0062C27.125 25.075 27.0875 25.1437 27.0375 25.1625C26.9875 25.1812 26.925 25.2812 26.9063 25.3812C26.8813 25.4812 26.8375 25.5625 26.8063 25.5625C26.775 25.5625 26.75 25.6312 26.75 25.7187C26.75 25.8062 26.725 25.875 26.6875 25.875C26.65 25.875 26.625 26.0625 26.625 26.3125C26.625 26.5625 26.65 26.75 26.6875 26.75C26.725 26.75 26.75 26.7937 26.75 26.8437C26.75 26.8937 26.7813 26.9375 26.8125 26.9375C26.85 26.9375 26.875 26.975 26.875 27.025C26.875 27.15 27.1563 27.425 27.3375 27.475C27.425 27.4937 27.5 27.5375 27.5 27.5687C27.5 27.6 27.725 27.625 28 27.625C28.275 27.625 28.5 27.6 28.5 27.5687C28.5 27.5375 28.5875 27.4937 28.6875 27.4687C28.7938 27.4437 28.875 27.4062 28.875 27.375C28.875 27.3437 28.9313 27.3 29 27.2812C29.175 27.225 29.6625 26.75 29.7125 26.5812C29.7375 26.5062 29.7938 26.4312 29.8438 26.4125C29.8938 26.3937 29.9375 26.3375 29.9375 26.2812C29.9375 26.2312 29.9625 26.1875 30 26.1875C30.0313 26.1875 30.075 26.0875 30.1 25.9687C30.1188 25.8437 30.1813 25.7375 30.25 25.7187C30.3188 25.6937 30.375 25.5937 30.4 25.4375C30.4188 25.3 30.4625 25.1875 30.4938 25.1875C30.525 25.1875 30.5688 25.0625 30.5875 24.9062C30.6125 24.75 30.6563 24.625 30.6875 24.625C30.7188 24.625 30.7625 24.4375 30.7875 24.2C30.8063 23.9687 30.8625 23.7625 30.9 23.7375C31 23.675 30.9938 20.7 30.9 20.6375C30.8625 20.6125 30.8063 20.4437 30.7813 20.2625C30.7563 20.0875 30.7188 19.9375 30.6875 19.9375C30.6625 19.9375 30.6188 19.8125 30.6 19.6562C30.575 19.5 30.5313 19.375 30.5063 19.375C30.475 19.375 30.4375 19.2625 30.4125 19.125C30.3938 18.9875 30.3438 18.875 30.3125 18.875C30.275 18.875 30.25 18.8312 30.25 18.7812C30.25 18.7312 30.225 18.6875 30.1938 18.6875C30.1625 18.6875 30.1188 18.6 30.0938 18.5C30.0688 18.3937 30.0313 18.3125 30 18.3125C29.975 18.3125 29.9313 18.2125 29.9125 18.0937C29.8875 17.975 29.8438 17.875 29.8063 17.875C29.775 17.875 29.725 17.825 29.7063 17.7625C29.6813 17.7062 29.6 17.5937 29.5188 17.5187C29.4375 17.4437 29.375 17.35 29.375 17.3187C29.375 17.2375 28.6938 16.5625 28.6125 16.5625C28.5813 16.5625 28.4625 16.4687 28.3563 16.35C28.2438 16.2375 28.0875 16.1187 28 16.0937C27.9125 16.0687 27.825 16.0187 27.8 15.9812C27.7563 15.9062 27.0188 15.8562 26.875 15.9187Z" fill="#334155"/>
<path d="M11.5625 16.6813C11.5625 16.7063 11.3688 16.7501 11.1313 16.7751C10.8938 16.8001 10.6875 16.8438 10.675 16.8813C10.6625 16.9126 10.5063 16.9563 10.325 16.9813C10.15 17.0001 10 17.0376 10 17.0626C10 17.0876 9.9 17.1313 9.78125 17.1501C9.6625 17.1751 9.5625 17.2188 9.5625 17.2501C9.5625 17.2876 9.49375 17.3126 9.40625 17.3126C9.31875 17.3126 9.25 17.3376 9.25 17.3688C9.25 17.4001 9.16875 17.4438 9.0625 17.4688C8.9625 17.4938 8.875 17.5376 8.875 17.5688C8.875 17.6001 8.7625 17.6438 8.625 17.6626C8.4875 17.6876 8.375 17.7251 8.375 17.7501C8.375 17.7813 8.29375 17.8188 8.1875 17.8438C8.0875 17.8688 8 17.9063 8 17.9376C8 17.9626 7.93125 18.0063 7.84375 18.0251C7.75625 18.0501 7.6875 18.0938 7.6875 18.1251C7.6875 18.1626 7.64375 18.1876 7.59375 18.1876C7.54375 18.1876 7.5 18.2126 7.5 18.2438C7.5 18.2751 7.425 18.3188 7.33125 18.3438C7.2375 18.3626 7.1 18.4501 7.01875 18.5376C6.94375 18.6188 6.85 18.6876 6.80625 18.6876C6.70625 18.6876 6.25 19.1813 6.25 19.2938C6.25 19.3376 6.225 19.3751 6.19375 19.3751C6.1 19.3751 5.8125 19.6813 5.8125 19.7813C5.8125 19.8376 5.775 19.8938 5.725 19.9126C5.675 19.9313 5.6125 20.0313 5.59375 20.1313C5.56875 20.2313 5.53125 20.3126 5.5 20.3126C5.475 20.3126 5.43125 20.3813 5.4125 20.4688C5.3875 20.5563 5.34375 20.6251 5.3125 20.6251C5.275 20.6251 5.25 20.6688 5.25 20.7188C5.25 20.7688 5.225 20.8126 5.1875 20.8126C5.15625 20.8126 5.10625 20.9251 5.0875 21.0626C5.0625 21.2001 5.025 21.3126 5 21.3126C4.96875 21.3126 4.93125 21.3938 4.90625 21.5001C4.88125 21.6001 4.84375 21.6876 4.8125 21.6876C4.7875 21.6876 4.75 21.8063 4.725 21.9501C4.7 22.0938 4.65625 22.2313 4.625 22.2501C4.5875 22.2688 4.54375 22.4626 4.525 22.6751C4.5 22.8876 4.45625 23.0626 4.43125 23.0626C4.4 23.0626 4.375 23.1438 4.375 23.2438C4.375 23.3438 4.3375 23.4376 4.3 23.4563C4.1875 23.4876 4.19375 26.0126 4.3 26.0501C4.34375 26.0626 4.375 26.1813 4.375 26.3188C4.375 26.4501 4.4 26.5626 4.43125 26.5626C4.4625 26.5626 4.50625 26.7313 4.53125 26.9376C4.55625 27.1438 4.59375 27.3126 4.625 27.3126C4.65 27.3126 4.6875 27.4251 4.7125 27.5626C4.73125 27.7001 4.775 27.8126 4.80625 27.8126C4.8375 27.8126 4.88125 27.8938 4.90625 28.0001C4.93125 28.1001 4.975 28.1876 5 28.1876C5.03125 28.1876 5.075 28.2876 5.1 28.4063C5.125 28.5376 5.18125 28.6376 5.25625 28.6563C5.31875 28.6813 5.375 28.7376 5.375 28.7813C5.375 28.8313 5.4375 28.9251 5.5125 29.0001C5.65 29.1251 5.65 29.1251 5.525 29.2501C5.4625 29.3126 5.375 29.4063 5.33125 29.4501C5.29375 29.4938 5.1875 29.5876 5.1 29.6563C5.0125 29.7251 4.94375 29.8126 4.9375 29.8501C4.9375 29.8876 4.8375 30.0251 4.71875 30.1501C4.6 30.2813 4.5 30.4251 4.5 30.4688C4.5 30.5188 4.44375 30.5751 4.375 30.5938C4.30625 30.6126 4.23125 30.7001 4.2125 30.7813C4.19375 30.8626 4.1375 30.9438 4.0875 30.9626C4.0375 30.9813 4 31.0501 4 31.1188C4 31.1813 3.95625 31.2501 3.90625 31.2751C3.85625 31.2938 3.8125 31.3501 3.8125 31.4063C3.8125 31.4563 3.7875 31.5001 3.75625 31.5001C3.725 31.5001 3.675 31.5626 3.65 31.6376C3.625 31.7188 3.55625 31.8251 3.49375 31.8813C3.425 31.9376 3.375 32.0188 3.375 32.0563C3.375 32.0938 3.3375 32.1438 3.2875 32.1626C3.2375 32.1813 3.18125 32.2626 3.1625 32.3501C3.1375 32.4313 3.1 32.5001 3.06875 32.5001C3.0375 32.5001 2.99375 32.5813 2.96875 32.6876C2.94375 32.7938 2.90625 32.8751 2.875 32.8751C2.85 32.8751 2.80625 32.9438 2.7875 33.0313C2.7625 33.1188 2.71875 33.1876 2.6875 33.1876C2.65 33.1876 2.625 33.2313 2.625 33.2813C2.625 33.3313 2.6 33.3751 2.56875 33.3751C2.5375 33.3751 2.49375 33.4563 2.46875 33.5626C2.44375 33.6688 2.40625 33.7501 2.375 33.7501C2.34375 33.7501 2.30625 33.8376 2.28125 33.9376C2.25625 34.0438 2.2125 34.1251 2.1875 34.1251C2.15625 34.1251 2.1125 34.2251 2.0875 34.3438C2.06875 34.4626 2.025 34.5626 2 34.5626C1.975 34.5626 1.93125 34.6626 1.9125 34.7813C1.8875 34.9001 1.84375 35.0001 1.8125 35.0001C1.775 35.0001 1.75 35.0688 1.75 35.1563C1.75 35.2438 1.725 35.3126 1.6875 35.3126C1.65625 35.3126 1.60625 35.4251 1.5875 35.5626C1.5625 35.7001 1.525 35.8126 1.49375 35.8126C1.46875 35.8126 1.425 35.9376 1.4 36.0938C1.38125 36.2501 1.3375 36.3751 1.3125 36.3751C1.2875 36.3751 1.24375 36.5001 1.225 36.6563C1.2 36.8126 1.15625 36.9376 1.125 36.9376C1.1 36.9376 1.05625 37.0751 1.03125 37.2501C1.00625 37.4188 0.9625 37.5626 0.93125 37.5626C0.9 37.5626 0.875 37.6438 0.875 37.7501C0.875 37.8501 0.85 37.9376 0.81875 37.9376C0.79375 37.9376 0.74375 38.1313 0.725 38.3751C0.7 38.6126 0.65625 38.8126 0.625 38.8126C0.59375 38.8126 0.55 39.0938 0.53125 39.4376C0.50625 39.7813 0.4625 40.0626 0.4375 40.0626C0.4125 40.0626 0.36875 40.3438 0.34375 40.6876C0.325 41.0313 0.275 41.3126 0.24375 41.3126C0.2125 41.3126 0.1875 41.7438 0.1875 42.3126C0.1875 42.8626 0.2125 43.3126 0.24375 43.3126C0.26875 43.3126 0.3125 43.4813 0.3375 43.6876C0.3625 43.8938 0.40625 44.0626 0.43125 44.0626C0.4625 44.0626 0.50625 44.1376 0.525 44.2251C0.56875 44.3938 1.25 45.1251 1.36875 45.1251C1.40625 45.1251 1.4375 45.1501 1.4375 45.1876C1.4375 45.2188 1.55 45.2688 1.6875 45.2876C1.825 45.3126 1.9375 45.3501 1.9375 45.3751C1.9375 45.4001 2.1375 45.4438 2.375 45.4626C2.61875 45.4876 2.8125 45.5313 2.8125 45.5688C2.8125 45.6001 2.88125 45.6251 2.96875 45.6251C3.05625 45.6251 3.125 45.6501 3.125 45.6813C3.125 45.7126 3.3125 45.7626 3.55 45.7876C3.78125 45.8063 3.98125 45.8563 4.00625 45.8813C4.025 45.9126 4.5875 45.9563 5.25625 45.9751C6.025 46.0063 6.4875 46.0438 6.5125 46.0876C6.575 46.1876 15.675 46.1876 15.7375 46.0876C15.7625 46.0501 16.0875 46.0001 16.4688 45.9751C16.8438 45.9501 17.1688 45.9063 17.1875 45.8813C17.2063 45.8501 17.3938 45.8063 17.6125 45.7813C17.825 45.7563 18 45.7126 18 45.6813C18 45.6501 18.0875 45.6251 18.1875 45.6251C18.2938 45.6251 18.375 45.6001 18.375 45.5688C18.375 45.5376 18.6125 45.4938 18.9063 45.4688C19.2 45.4438 19.4375 45.4001 19.4375 45.3751C19.4375 45.3501 19.6563 45.3126 19.9188 45.2876C20.1813 45.2688 20.4125 45.2251 20.4313 45.1938C20.45 45.1626 20.6188 45.1188 20.8 45.0938C20.975 45.0688 21.125 45.0251 21.125 44.9938C21.125 44.9626 21.2375 44.9188 21.375 44.9001C21.5125 44.8751 21.625 44.8376 21.625 44.8063C21.625 44.7751 21.6688 44.7501 21.7188 44.7501C21.7688 44.7501 21.8125 44.7251 21.8125 44.6938C21.8125 44.6626 21.8938 44.6188 21.9938 44.5938C22.0938 44.5751 22.1938 44.5126 22.2125 44.4626C22.2313 44.4126 22.2875 44.3751 22.3438 44.3751C22.4438 44.3751 22.6875 44.1626 22.6875 44.0688C22.6875 44.0376 22.7375 43.9626 22.8 43.9001C22.8938 43.8001 22.9063 43.6438 22.9063 42.3938C22.9 41.4813 22.8813 40.9751 22.8375 40.9501C22.8 40.9251 22.75 40.7563 22.7313 40.5688C22.7063 40.3813 22.6625 40.2126 22.6313 40.1938C22.6 40.1751 22.5563 40.0251 22.5313 39.8563C22.5063 39.6938 22.4625 39.5626 22.4313 39.5626C22.4 39.5626 22.375 39.5063 22.375 39.4376C22.375 39.3688 22.35 39.3126 22.3188 39.3126C22.2875 39.3126 22.2375 39.1313 22.2188 38.9063C22.1938 38.6813 22.15 38.5001 22.125 38.5001C22.0938 38.5001 22.0563 38.3313 22.0313 38.1251C22.0063 37.9188 21.9625 37.7501 21.9375 37.7501C21.9125 37.7501 21.8688 37.6251 21.85 37.4688C21.825 37.3126 21.7813 37.1876 21.75 37.1876C21.725 37.1876 21.6813 37.0438 21.6563 36.8751C21.6313 36.7001 21.5875 36.5626 21.5563 36.5626C21.525 36.5626 21.5 36.5188 21.5 36.4688C21.5 36.4188 21.475 36.3751 21.4438 36.3751C21.4125 36.3751 21.375 36.2626 21.35 36.1251C21.3313 35.9876 21.2875 35.8751 21.2563 35.8751C21.225 35.8751 21.1813 35.7751 21.1625 35.6563C21.1375 35.5376 21.0938 35.4376 21.0688 35.4376C21.0375 35.4376 20.9938 35.3376 20.975 35.2188C20.95 35.1001 20.9063 35.0001 20.875 35.0001C20.85 35.0001 20.8063 34.9126 20.7813 34.8126C20.7563 34.7063 20.7125 34.6251 20.6813 34.6251C20.65 34.6251 20.625 34.5813 20.625 34.5313C20.625 34.4813 20.6 34.4376 20.5688 34.4376C20.5375 34.4376 20.4938 34.3501 20.4688 34.2501C20.4438 34.1501 20.4063 34.0626 20.375 34.0626C20.3438 34.0626 20.3063 33.9813 20.2813 33.8751C20.2563 33.7751 20.2125 33.6876 20.1813 33.6876C20.15 33.6876 20.1125 33.6188 20.0875 33.5313C20.0688 33.4438 20.025 33.3751 20 33.3751C19.975 33.3751 19.9313 33.3063 19.9125 33.2188C19.8875 33.1313 19.8438 33.0626 19.8125 33.0626C19.775 33.0626 19.75 33.0188 19.75 32.9688C19.75 32.9188 19.725 32.8751 19.6938 32.8751C19.6625 32.8751 19.6188 32.8063 19.6 32.7188C19.575 32.6313 19.5313 32.5626 19.5 32.5626C19.4625 32.5626 19.4375 32.5188 19.4375 32.4688C19.4375 32.4126 19.4 32.3563 19.35 32.3376C19.3 32.3188 19.2375 32.2188 19.2188 32.1188C19.1938 32.0188 19.1563 31.9376 19.125 31.9376C19.0938 31.9376 19.05 31.8751 19.025 31.7938C19 31.7188 18.9313 31.6126 18.8688 31.5563C18.8 31.5001 18.75 31.4188 18.75 31.3813C18.75 31.3438 18.7063 31.2938 18.6563 31.2751C18.6063 31.2501 18.5625 31.1876 18.5625 31.1313C18.5625 31.0751 18.5063 30.9813 18.4375 30.9188C18.3688 30.8626 18.3125 30.7751 18.3125 30.7251C18.3125 30.6751 18.2563 30.6126 18.1875 30.5938C18.1188 30.5751 18.0625 30.5188 18.0625 30.4751C18.0625 30.4313 18.0063 30.3313 17.9375 30.2501C17.8688 30.1688 17.8125 30.0688 17.8125 30.0188C17.8125 29.9751 17.7875 29.9376 17.75 29.9376C17.7188 29.9376 17.6875 29.8813 17.6875 29.8126C17.6875 29.7438 17.7188 29.6876 17.7563 29.6876C17.8313 29.6876 18.3125 29.2188 18.3125 29.1438C18.3125 29.1126 18.4 29.0188 18.5 28.9251C18.6063 28.8376 18.7063 28.6751 18.725 28.5688C18.75 28.4626 18.8125 28.3626 18.875 28.3438C18.9375 28.3251 19.0125 28.2251 19.0313 28.1251C19.0563 28.0188 19.1 27.9376 19.1313 27.9376C19.1625 27.9376 19.2063 27.8251 19.225 27.6876C19.25 27.5501 19.2875 27.4376 19.3125 27.4376C19.3375 27.4376 19.375 27.3188 19.4 27.1751C19.425 27.0313 19.4688 26.8938 19.5 26.8751C19.5313 26.8563 19.575 26.5813 19.6 26.2626C19.625 25.9501 19.6688 25.6876 19.6938 25.6876C19.725 25.6876 19.75 25.3626 19.75 24.9688C19.75 24.5751 19.725 24.2501 19.7 24.2501C19.6688 24.2501 19.625 23.9501 19.6 23.5813C19.5813 23.2126 19.5375 22.9001 19.5063 22.8813C19.4813 22.8626 19.4313 22.6563 19.4125 22.4188C19.3875 22.1876 19.3438 22.0001 19.3125 22.0001C19.2875 22.0001 19.2438 21.8438 19.2188 21.6563C19.2 21.4688 19.15 21.3126 19.1188 21.3126C19.0875 21.3126 19.0438 21.2001 19.025 21.0626C19 20.9251 18.9625 20.8126 18.9313 20.8126C18.9 20.8126 18.875 20.7688 18.875 20.7188C18.875 20.6688 18.85 20.6251 18.8188 20.6251C18.7875 20.6251 18.7438 20.5376 18.7188 20.4376C18.6938 20.3313 18.6563 20.2501 18.625 20.2501C18.6 20.2501 18.5563 20.1813 18.5375 20.0938C18.5125 20.0063 18.475 19.9376 18.4438 19.9376C18.4125 19.9376 18.3688 19.8563 18.3438 19.7626C18.325 19.6688 18.2375 19.5376 18.1563 19.4751C18.0688 19.4126 18 19.3313 18 19.3001C18 19.2251 17.6875 18.8938 17.125 18.3563C17.0188 18.2563 16.9375 18.1563 16.9375 18.1251C16.9375 18.0938 16.875 18.0501 16.8 18.0313C16.7313 18.0063 16.6063 17.9251 16.5375 17.8438C16.4625 17.7688 16.3438 17.6876 16.2688 17.6626C16.1875 17.6376 16.125 17.5938 16.125 17.5626C16.125 17.5313 16.0438 17.4938 15.9375 17.4688C15.8375 17.4438 15.75 17.4001 15.75 17.3688C15.75 17.3376 15.7063 17.3126 15.6563 17.3126C15.6063 17.3126 15.5625 17.2876 15.5625 17.2563C15.5625 17.2251 15.4813 17.1813 15.375 17.1563C15.275 17.1313 15.1875 17.0876 15.1875 17.0563C15.1875 17.0251 15.075 16.9813 14.9375 16.9626C14.8 16.9376 14.6875 16.9001 14.6875 16.8688C14.6875 16.8438 14.5188 16.8001 14.3125 16.7751C14.1063 16.7501 13.9375 16.7063 13.9375 16.6813C13.9375 16.6501 13.4063 16.6251 12.75 16.6251C12.1 16.6251 11.5625 16.6501 11.5625 16.6813ZM13.0625 18.8126C13.0625 18.8438 13.15 18.8751 13.25 18.8751C13.3563 18.8751 13.4375 18.9001 13.4375 18.9313C13.4375 18.9563 13.5563 19.0001 13.6938 19.0188C13.8375 19.0376 13.975 19.0813 13.9938 19.1126C14.0125 19.1438 14.1 19.1938 14.1875 19.2188C14.2688 19.2438 14.375 19.3063 14.425 19.3501C14.4688 19.4001 14.55 19.4376 14.6 19.4376C14.65 19.4376 14.6875 19.4626 14.6875 19.5001C14.6875 19.5313 14.7563 19.5751 14.8438 19.6001C14.9313 19.6188 15 19.6626 15 19.6876C15 19.7438 15.4563 20.2063 15.7125 20.4063C15.8 20.4751 15.8688 20.5751 15.875 20.6251C15.875 20.6813 15.9313 20.7688 16 20.8313C16.0688 20.8876 16.125 20.9813 16.125 21.0313C16.125 21.0813 16.15 21.1251 16.1813 21.1251C16.2125 21.1251 16.2563 21.2063 16.2813 21.3126C16.3063 21.4126 16.35 21.5001 16.3813 21.5001C16.4125 21.5001 16.4375 21.5438 16.4375 21.5938C16.4375 21.6438 16.4625 21.6876 16.4938 21.6876C16.525 21.6876 16.5625 21.8063 16.5875 21.9501C16.6125 22.0938 16.6563 22.2313 16.6875 22.2501C16.7188 22.2688 16.7625 22.4563 16.7875 22.6563C16.8125 22.8626 16.8625 23.0501 16.9 23.0751C17 23.1376 16.9938 26.1126 16.9 26.1751C16.8625 26.2001 16.8063 26.3126 16.7813 26.4188C16.7625 26.5313 16.7188 26.6251 16.6875 26.6251C16.6625 26.6251 16.6188 26.7251 16.6 26.8438C16.575 26.9626 16.5313 27.0626 16.5 27.0626C16.45 27.0626 16.0313 27.4688 15.775 27.7688C15.7063 27.8563 15.5625 27.9438 15.4563 27.9626C15.35 27.9876 15.2438 28.0501 15.225 28.1001C15.2063 28.1501 15.1188 28.1876 15.0313 28.1876C14.9438 28.1876 14.875 28.2126 14.875 28.2438C14.875 28.2751 14.7938 28.3188 14.6875 28.3438C14.5875 28.3688 14.5 28.4126 14.5 28.4438C14.5 28.4751 14.4313 28.5001 14.3438 28.5001C14.2563 28.5001 14.1875 28.5251 14.1875 28.5563C14.1875 28.5938 14.0625 28.6376 13.9063 28.6626C13.75 28.6813 13.625 28.7251 13.625 28.7501C13.625 28.7751 13.45 28.8188 13.2375 28.8438C13.0188 28.8688 12.825 28.9188 12.8063 28.9501C12.7625 29.0251 10.6813 29.0251 10.6313 28.9501C10.6125 28.9188 10.4563 28.8751 10.2875 28.8501C10.1125 28.8313 9.9625 28.7876 9.94375 28.7563C9.91875 28.7313 9.8 28.6876 9.675 28.6626C9.54375 28.6376 9.4375 28.5938 9.4375 28.5626C9.4375 28.5251 9.36875 28.5001 9.2875 28.5001C9.20625 28.5001 9.125 28.4563 9.1 28.4063C9.08125 28.3563 9.025 28.3126 8.96875 28.3126C8.91875 28.3126 8.875 28.2876 8.875 28.2563C8.875 28.2251 8.80625 28.1813 8.71875 28.1626C8.63125 28.1376 8.5625 28.0938 8.5625 28.0626C8.5625 28.0251 8.525 28.0001 8.475 28.0001C8.425 28.0001 8.3 27.9063 8.19375 27.7938C8.0875 27.6876 7.95625 27.5501 7.90625 27.4938C7.85625 27.4376 7.8125 27.3688 7.8125 27.3376C7.8125 27.3063 7.75625 27.2376 7.6875 27.1876C7.625 27.1376 7.55 27.0188 7.53125 26.9251C7.50625 26.8313 7.46875 26.7501 7.4375 26.7501C7.4125 26.7501 7.375 26.6376 7.35 26.5001C7.33125 26.3626 7.2875 26.2501 7.25625 26.2501C7.225 26.2501 7.18125 26.0938 7.15625 25.9063C7.1375 25.7188 7.09375 25.5626 7.0625 25.5626C7.03125 25.5626 6.99375 25.3501 6.96875 25.0938C6.94375 24.8376 6.9 24.6251 6.86875 24.6251C6.8375 24.6251 6.8125 24.4438 6.8125 24.2188C6.8125 23.9876 6.7875 23.8126 6.75 23.8126C6.7125 23.8126 6.6875 23.5626 6.6875 23.1876C6.6875 22.8126 6.7125 22.5626 6.75 22.5626C6.7875 22.5626 6.8125 22.4938 6.8125 22.4063C6.8125 22.3188 6.84375 22.2501 6.875 22.2501C6.9125 22.2501 6.9375 22.2063 6.9375 22.1563C6.9375 22.1001 6.975 22.0438 7.025 22.0251C7.075 22.0063 7.1375 21.9063 7.15625 21.8063C7.18125 21.7063 7.21875 21.6251 7.25 21.6251C7.28125 21.6251 7.325 21.5626 7.35 21.4876C7.36875 21.4126 7.43125 21.3126 7.475 21.2626C7.525 21.2188 7.5625 21.1376 7.5625 21.0876C7.5625 21.0376 7.5875 21.0001 7.61875 21.0001C7.65625 21.0001 7.75 20.9251 7.8375 20.8251C7.93125 20.7313 8.1125 20.5376 8.25 20.3876C8.3875 20.2438 8.54375 20.1251 8.59375 20.1251C8.65 20.1251 8.70625 20.0876 8.725 20.0376C8.74375 19.9876 8.825 19.9313 8.9125 19.9126C8.99375 19.8876 9.0625 19.8438 9.0625 19.8126C9.0625 19.7751 9.1 19.7501 9.15 19.7501C9.2 19.7501 9.25 19.7063 9.275 19.6563C9.29375 19.6063 9.36875 19.5626 9.4375 19.5626C9.50625 19.5626 9.5625 19.5376 9.5625 19.5063C9.5625 19.4751 9.65 19.4313 9.75 19.4063C9.85625 19.3813 9.9375 19.3438 9.9375 19.3126C9.9375 19.2876 10.0125 19.2438 10.1063 19.2188C10.2 19.2001 10.3 19.1501 10.3188 19.1126C10.3375 19.0813 10.475 19.0376 10.6188 19.0188C10.7563 19.0001 10.875 18.9563 10.875 18.9313C10.875 18.9001 10.9875 18.8751 11.125 18.8751C11.2625 18.8751 11.375 18.8438 11.375 18.8126C11.375 18.7751 11.7 18.7501 12.2188 18.7501C12.7375 18.7501 13.0625 18.7751 13.0625 18.8126ZM8.175 30.8688C8.1875 30.9063 8.30625 30.9563 8.44375 30.9751C8.575 31.0001 8.6875 31.0376 8.6875 31.0688C8.6875 31.1001 8.73125 31.1251 8.78125 31.1251C8.83125 31.1251 8.875 31.1501 8.875 31.1813C8.875 31.2188 9 31.2626 9.15625 31.2876C9.3125 31.3063 9.4375 31.3501 9.4375 31.3751C9.4375 31.4063 9.625 31.4501 9.8625 31.4751C10.0938 31.4938 10.3 31.5501 10.325 31.5876C10.3875 31.6813 13.2375 31.6813 13.3 31.5813C13.325 31.5438 13.5313 31.4938 13.7688 31.4751C14 31.4501 14.1875 31.4063 14.1875 31.3751C14.1875 31.3501 14.3438 31.3063 14.5313 31.2813C14.7188 31.2626 14.875 31.2126 14.875 31.1813C14.875 31.1501 14.9438 31.1251 15.0313 31.1251C15.1188 31.1251 15.1875 31.1001 15.1875 31.0688C15.1875 31.0376 15.3 30.9938 15.4375 30.9688C15.575 30.9438 15.6875 30.9001 15.6875 30.8688C15.6875 30.8376 15.7688 30.8126 15.875 30.8126C16.0438 30.8126 16.0625 30.8376 16.1 31.0626C16.125 31.2001 16.1625 31.3126 16.1938 31.3126C16.225 31.3126 16.2688 31.4251 16.2875 31.5626C16.3125 31.7001 16.35 31.8126 16.3813 31.8126C16.4125 31.8126 16.4375 31.8563 16.4375 31.9063C16.4375 31.9563 16.4625 32.0001 16.4938 32.0001C16.525 32.0001 16.5688 32.0813 16.5938 32.1876C16.6188 32.2876 16.6625 32.3751 16.6875 32.3751C16.7188 32.3751 16.7625 32.4751 16.7875 32.5938C16.8063 32.7126 16.85 32.8126 16.875 32.8126C16.9063 32.8126 16.9438 32.8938 16.9688 33.0001C16.9938 33.1001 17.0313 33.1876 17.0625 33.1876C17.0938 33.1876 17.1313 33.2688 17.1563 33.3751C17.1813 33.4751 17.225 33.5626 17.2563 33.5626C17.2875 33.5626 17.3125 33.6063 17.3125 33.6563C17.3125 33.7063 17.3375 33.7501 17.375 33.7501C17.4063 33.7501 17.45 33.8188 17.475 33.9063C17.4938 33.9938 17.5375 34.0626 17.5625 34.0626C17.5938 34.0626 17.6313 34.1438 17.6563 34.2501C17.6813 34.3501 17.7188 34.4376 17.75 34.4376C17.775 34.4376 17.8188 34.5063 17.8375 34.5938C17.8625 34.6813 17.9 34.7501 17.9313 34.7501C17.9625 34.7501 18.0063 34.8313 18.0313 34.9376C18.0563 35.0376 18.1 35.1251 18.1313 35.1251C18.1625 35.1251 18.1875 35.1688 18.1875 35.2188C18.1875 35.2688 18.2125 35.3126 18.2438 35.3126C18.275 35.3126 18.3188 35.3938 18.3438 35.5001C18.3688 35.6001 18.4063 35.6876 18.4375 35.6876C18.4625 35.6876 18.5 35.8001 18.525 35.9376C18.5438 36.0751 18.5875 36.1876 18.6188 36.1876C18.65 36.1876 18.6875 36.3001 18.7125 36.4376C18.7313 36.5751 18.7813 36.6876 18.8125 36.6876C18.85 36.6876 18.875 36.7438 18.875 36.8126C18.875 36.8813 18.9 36.9376 18.9313 36.9376C18.9563 36.9376 19 37.0813 19.0188 37.2626C19.0438 37.4376 19.0813 37.6001 19.1125 37.6188C19.1438 37.6376 19.1875 37.7938 19.2125 37.9626C19.2313 38.1376 19.275 38.2876 19.3063 38.3126C19.3375 38.3313 19.3875 38.5251 19.4125 38.7501C19.4375 38.9751 19.4813 39.1688 19.5063 39.1876C19.5375 39.2063 19.575 39.5688 19.6 39.9876C19.625 40.4063 19.6688 40.7501 19.7 40.7501C19.725 40.7501 19.75 41.0563 19.75 41.4376C19.75 42.1188 19.75 42.1251 19.5938 42.1626C19.5063 42.1813 19.4375 42.2251 19.4375 42.2563C19.4375 42.2876 19.3813 42.3126 19.3125 42.3126C19.2438 42.3126 19.1875 42.3376 19.1875 42.3688C19.1875 42.4001 19.0063 42.4438 18.7813 42.4688C18.5563 42.4876 18.375 42.5313 18.375 42.5626C18.375 42.5876 18.1 42.6313 17.7688 42.6563C17.4313 42.6813 17.1438 42.7251 17.125 42.7563C17.1063 42.7876 16.4875 42.8313 15.75 42.8501C15.0125 42.8751 14.3938 42.9126 14.375 42.9438C14.3563 42.9688 13.4625 43.0126 12.3875 43.0376C11.3188 43.0626 10.4375 43.1063 10.4375 43.1313C10.4375 43.1626 10.2438 43.1876 10 43.1876C9.7625 43.1876 9.5625 43.1626 9.5625 43.1376C9.5625 43.1063 8.8 43.0626 7.8625 43.0438C6.93125 43.0251 6.15 42.9813 6.13125 42.9501C6.1125 42.9188 5.7375 42.8688 5.3 42.8438C4.85625 42.8188 4.5 42.7751 4.5 42.7501C4.5 42.7251 4.0375 42.6813 3.46875 42.6563C2.9 42.6313 2.4375 42.5876 2.4375 42.5563C2.4375 42.5251 2.35 42.5001 2.24375 42.5001H2.04375L2.0875 41.8938C2.1125 41.5563 2.15625 41.2688 2.1875 41.2501C2.2125 41.2313 2.25625 41.1001 2.28125 40.9501C2.30625 40.8063 2.34375 40.6876 2.375 40.6876C2.4 40.6876 2.4375 40.5751 2.4625 40.4376C2.48125 40.3001 2.53125 40.1876 2.5625 40.1876C2.6 40.1876 2.625 40.1188 2.625 40.0313C2.625 39.9438 2.65 39.8751 2.6875 39.8751C2.71875 39.8751 2.76875 39.7626 2.7875 39.6251C2.8125 39.4876 2.85 39.3751 2.88125 39.3751C2.90625 39.3751 2.95 39.2751 2.975 39.1563C2.99375 39.0376 3.0375 38.9376 3.0625 38.9376C3.09375 38.9376 3.13125 38.8251 3.15625 38.6876C3.18125 38.5501 3.225 38.4376 3.25 38.4376C3.28125 38.4376 3.31875 38.3501 3.34375 38.2501C3.36875 38.1501 3.4125 38.0626 3.44375 38.0626C3.475 38.0626 3.5 37.9938 3.5 37.9063C3.5 37.8188 3.525 37.7501 3.5625 37.7501C3.59375 37.7501 3.64375 37.6376 3.6625 37.5001C3.6875 37.3626 3.725 37.2501 3.75625 37.2501C3.7875 37.2501 3.83125 37.1376 3.85 37.0001C3.875 36.8626 3.9125 36.7501 3.94375 36.7501C3.96875 36.7501 4.0125 36.6501 4.0375 36.5313C4.05625 36.4126 4.1 36.3126 4.125 36.3126C4.15 36.3126 4.1875 36.2001 4.2125 36.0626C4.23125 35.9251 4.28125 35.8126 4.3125 35.8126C4.35 35.8126 4.375 35.7438 4.375 35.6563C4.375 35.5688 4.4 35.5001 4.43125 35.5001C4.4625 35.5001 4.50625 35.3751 4.525 35.2188C4.55 35.0626 4.59375 34.9376 4.61875 34.9376C4.65 34.9376 4.6875 34.8251 4.7125 34.6876C4.73125 34.5501 4.775 34.4376 4.80625 34.4376C4.8375 34.4376 4.875 34.3251 4.9 34.1876C4.91875 34.0501 4.9625 33.9376 4.99375 33.9376C5.025 33.9376 5.06875 33.8501 5.09375 33.7501C5.11875 33.6438 5.1625 33.5626 5.19375 33.5626C5.225 33.5626 5.25 33.5188 5.25 33.4688C5.25 33.4188 5.275 33.3751 5.30625 33.3751C5.3375 33.3751 5.38125 33.3063 5.4 33.2188C5.425 33.1313 5.46875 33.0626 5.5 33.0626C5.5375 33.0626 5.5625 33.0188 5.5625 32.9688C5.5625 32.9126 5.60625 32.8563 5.65625 32.8376C5.70625 32.8126 5.75 32.7501 5.75 32.6938C5.75 32.6376 5.80625 32.5438 5.875 32.4813C5.94375 32.4251 6 32.3313 6 32.2813C6 32.2313 6.025 32.1876 6.05625 32.1876C6.10625 32.1876 6.19375 32.1063 6.59375 31.6813C6.64375 31.6251 6.6875 31.5626 6.6875 31.5438C6.6875 31.4813 7.175 31.0001 7.2375 31.0001C7.2625 31.0001 7.3375 30.9376 7.4 30.8688C7.49375 30.7563 7.5625 30.7376 7.83125 30.7688C8.00625 30.7813 8.1625 30.8313 8.175 30.8688Z" fill="#334155"/>
</svg>
