<svg width="50" height="50" viewBox="0 0 50 50" fill="none" xmlns="http://www.w3.org/2000/svg">
<path d="M24.5 3.5625C24.5 3.59375 24.375 3.625 24.2188 3.625C24.0625 3.625 23.9375 3.65 23.9375 3.6875C23.9375 3.71875 23.8563 3.75 23.75 3.75C23.65 3.75 23.5625 3.775 23.5625 3.8125C23.5625 3.84375 23.5063 3.875 23.4375 3.875C23.3688 3.875 23.3125 3.9 23.3125 3.9375C23.3125 3.96875 23.2438 4 23.1563 4C23.0688 4 23 4.025 23 4.0625C23 4.09375 22.9438 4.125 22.875 4.125C22.8063 4.125 22.75 4.16875 22.75 4.21875C22.75 4.26875 22.7 4.3125 22.6375 4.3125C22.575 4.3125 22.4875 4.36875 22.4375 4.4375C22.3875 4.50625 22.3 4.5625 22.2375 4.5625C22.175 4.5625 22.125 4.5875 22.125 4.625C22.125 4.65625 22.0813 4.6875 22.0313 4.6875C21.9813 4.6875 21.9375 4.7125 21.9375 4.75C21.9375 4.78125 21.8938 4.8125 21.8438 4.8125C21.7563 4.8125 21.1875 5.325 21.1875 5.40625C21.1875 5.45625 20.8938 5.75 20.8438 5.75C20.7688 5.75 20.625 5.925 20.625 6.0125C20.625 6.0625 20.5688 6.1375 20.5 6.1875C20.4313 6.2375 20.375 6.325 20.375 6.3875C20.375 6.45 20.35 6.5 20.3125 6.5C20.2813 6.5 20.25 6.54375 20.25 6.59375C20.25 6.64375 20.225 6.6875 20.1875 6.6875C20.1563 6.6875 20.125 6.74375 20.125 6.8125C20.125 6.88125 20.1 6.9375 20.0625 6.9375C20.0313 6.9375 20 6.99375 20 7.0625C20 7.13125 19.975 7.1875 19.9375 7.1875C19.9063 7.1875 19.875 7.24375 19.875 7.3125C19.875 7.38125 19.85 7.4375 19.8125 7.4375C19.7813 7.4375 19.75 7.49375 19.75 7.5625C19.75 7.63125 19.7063 7.6875 19.6563 7.6875C19.6 7.6875 19.5625 7.74375 19.5625 7.84375C19.5625 7.93125 19.5375 8 19.5 8C19.4688 8 19.4375 8.05625 19.4375 8.125C19.4375 8.19375 19.4125 8.25 19.375 8.25C19.3438 8.25 19.3125 8.30625 19.3125 8.375C19.3125 8.44375 19.2875 8.5 19.25 8.5C19.2188 8.5 19.1875 8.55625 19.1875 8.625C19.1875 8.69375 19.1625 8.75 19.125 8.75C19.0938 8.75 19.0625 8.85 19.0625 8.96875C19.0625 9.0875 19.0375 9.1875 19 9.1875C18.9625 9.1875 18.9375 9.575 18.9375 10.2187C18.9375 10.8625 18.9625 11.25 19 11.25C19.0375 11.25 19.0625 11.35 19.0625 11.4687C19.0625 11.5875 19.0938 11.6875 19.125 11.6875C19.1625 11.6875 19.1875 11.7687 19.1875 11.875C19.1875 11.975 19.2188 12.0625 19.25 12.0625C19.2875 12.0625 19.3125 12.1437 19.3125 12.25C19.3125 12.35 19.3438 12.4375 19.375 12.4375C19.4125 12.4375 19.4375 12.5062 19.4375 12.5937C19.4375 12.6812 19.4688 12.75 19.5 12.75C19.5375 12.75 19.5625 12.8312 19.5625 12.9375C19.5625 13.0375 19.5938 13.125 19.6313 13.125C19.725 13.125 19.875 13.2875 19.875 13.3937C19.875 13.45 19.9125 13.5062 19.9563 13.525C20.0188 13.5562 20.0188 13.5687 19.9563 13.6C19.9125 13.6187 19.875 13.675 19.875 13.725C19.875 13.775 19.8188 13.8125 19.7438 13.8125C19.6688 13.8125 19.5313 13.8937 19.4375 14C19.3438 14.1 19.2313 14.1875 19.1875 14.1875C19.15 14.1875 18.9813 14.325 18.8125 14.5C18.6438 14.6687 18.4813 14.8125 18.4438 14.8125C18.4063 14.8125 18.375 14.8437 18.375 14.875C18.375 14.9437 17.9688 15.375 17.9063 15.375C17.8875 15.375 17.875 15.2875 17.875 15.1875C17.875 15.0812 17.85 15 17.8125 15C17.7813 15 17.75 14.9 17.75 14.7812C17.75 14.6625 17.725 14.5625 17.6875 14.5625C17.6563 14.5625 17.625 14.5125 17.625 14.45C17.625 14.3875 17.5688 14.3 17.5 14.25C17.4313 14.2 17.375 14.1125 17.375 14.05C17.375 13.9875 17.3438 13.9375 17.3063 13.9375C17.2063 13.9375 17.0625 13.775 17.0625 13.6562C17.0625 13.6 16.9813 13.4687 16.875 13.375C16.7688 13.2812 16.6875 13.1687 16.6875 13.125C16.6875 13.0875 16.575 12.9437 16.4375 12.8125C16.3 12.6812 16.1875 12.5437 16.1875 12.5062C16.1875 12.4687 16.1438 12.4375 16.0938 12.4375C16.0438 12.4375 16 12.3937 16 12.3437C16 12.2312 15.35 11.5625 15.25 11.5625C15.1563 11.5625 15 11.4062 15 11.3187C15 11.2812 14.9625 11.25 14.9188 11.25C14.875 11.25 14.8 11.1937 14.75 11.125C14.7 11.0562 14.6188 11 14.5625 11C14.5063 11 14.425 10.9437 14.375 10.875C14.325 10.8062 14.2375 10.75 14.175 10.75C14.1125 10.75 14.0625 10.7187 14.0625 10.6875C14.0625 10.65 14.0063 10.625 13.9375 10.625C13.8688 10.625 13.8125 10.5937 13.8125 10.5625C13.8125 10.525 13.7438 10.5 13.6563 10.5C13.5688 10.5 13.5 10.4687 13.5 10.4375C13.5 10.4 13.4188 10.375 13.3125 10.375C13.2125 10.375 13.125 10.3437 13.125 10.3125C13.125 10.275 13.0125 10.25 12.875 10.25C12.6938 10.25 12.625 10.225 12.625 10.1562C12.625 10.075 12.4438 10.0625 11.3438 10.0625C10.2438 10.0625 10.0625 10.075 10.0625 10.1562C10.0625 10.2312 9.975 10.25 9.625 10.25C9.375 10.25 9.1875 10.275 9.1875 10.3125C9.1875 10.3437 9.0625 10.375 8.90625 10.375C8.75 10.375 8.625 10.4 8.625 10.4375C8.625 10.4687 8.5125 10.5 8.375 10.5C8.2375 10.5 8.125 10.525 8.125 10.5625C8.125 10.5937 8.06875 10.625 8 10.625C7.93125 10.625 7.875 10.65 7.875 10.6875C7.875 10.7187 7.775 10.75 7.65625 10.75C7.5375 10.75 7.4375 10.775 7.4375 10.8125C7.4375 10.8437 7.38125 10.875 7.3125 10.875C7.24375 10.875 7.1875 10.9 7.1875 10.9375C7.1875 10.9687 7.13125 11 7.0625 11C6.99375 11 6.9375 11.025 6.9375 11.0625C6.9375 11.0937 6.88125 11.125 6.8125 11.125C6.74375 11.125 6.6875 11.15 6.6875 11.1875C6.6875 11.2187 6.64375 11.25 6.59375 11.25C6.54375 11.25 6.5 11.2937 6.5 11.3437C6.5 11.3937 6.45625 11.4375 6.4 11.4375C6.35 11.4375 6.19375 11.55 6.0625 11.6875C5.93125 11.825 5.78125 11.9375 5.7375 11.9375C5.69375 11.9375 5.6125 11.9937 5.5625 12.0625C5.5125 12.1312 5.45 12.1875 5.41875 12.1875C5.34375 12.1875 5.0625 12.4812 5.0625 12.5625C5.0625 12.5937 5.0375 12.625 5 12.625C4.96875 12.625 4.9375 12.6687 4.9375 12.725C4.9375 12.7812 4.85625 12.9062 4.75 13C4.65 13.0937 4.5625 13.2125 4.5625 13.2625C4.5625 13.3062 4.50625 13.3875 4.4375 13.4375C4.36875 13.4875 4.3125 13.5937 4.3125 13.6687C4.3125 13.7562 4.275 13.8125 4.21875 13.8125C4.15625 13.8125 4.125 13.875 4.125 14C4.125 14.1 4.1 14.1875 4.0625 14.1875C4.03125 14.1875 4 14.2437 4 14.3125C4 14.3812 3.975 14.4375 3.9375 14.4375C3.90625 14.4375 3.875 14.5625 3.875 14.7187C3.875 14.875 3.85 15 3.8125 15C3.775 15 3.75 15.1875 3.75 15.4375C3.75 15.6875 3.725 15.875 3.6875 15.875C3.65625 15.875 3.625 16.0312 3.625 16.2187C3.625 16.4062 3.65625 16.5625 3.6875 16.5625C3.725 16.5625 3.75 16.8437 3.75 17.2812C3.75 17.7187 3.775 18 3.8125 18C3.85 18 3.875 18.125 3.875 18.2812C3.875 18.4375 3.90625 18.5625 3.9375 18.5625C3.975 18.5625 4 18.6437 4 18.75C4 18.85 4.03125 18.9375 4.0625 18.9375C4.1 18.9375 4.125 19.0187 4.125 19.125C4.125 19.25 4.15625 19.3125 4.21875 19.3125C4.26875 19.3125 4.3125 19.3687 4.3125 19.4375C4.3125 19.5062 4.34375 19.5625 4.375 19.5625C4.4125 19.5625 4.4375 19.6312 4.4375 19.7187C4.4375 19.8062 4.46875 19.875 4.5 19.875C4.5375 19.875 4.5625 19.9437 4.5625 20.0312C4.5625 20.1937 4.31875 20.5 4.1875 20.5C4.15625 20.5 4.125 20.5562 4.125 20.625C4.125 20.6937 4.1 20.75 4.0625 20.75C4.03125 20.75 4 20.7875 4 20.8312C4 20.875 3.94375 20.95 3.875 21C3.80625 21.05 3.75 21.1312 3.75 21.1875C3.75 21.2437 3.69375 21.325 3.625 21.375C3.55625 21.425 3.5 21.5062 3.5 21.55C3.5 21.6 3.41875 21.7187 3.3125 21.8125C3.2125 21.9062 3.125 22.0187 3.125 22.0562C3.125 22.0937 3.09375 22.125 3.0625 22.125C2.96875 22.125 2.6875 22.4125 2.6875 22.5062C2.6875 22.5437 2.60625 22.6562 2.5 22.75C2.4 22.8437 2.3125 22.9687 2.3125 23.025C2.3125 23.0812 2.2875 23.125 2.25 23.125C2.21875 23.125 2.1875 23.1937 2.1875 23.2812C2.1875 23.3687 2.1625 23.4375 2.125 23.4375C2.09375 23.4375 2.0625 23.4937 2.0625 23.5625C2.0625 23.6312 2.0375 23.6875 2 23.6875C1.96875 23.6875 1.9375 23.7437 1.9375 23.8125C1.9375 23.8812 1.89375 23.9375 1.84375 23.9375C1.79375 23.9375 1.75 23.9937 1.75 24.0625C1.75 24.1312 1.725 24.1875 1.6875 24.1875C1.65625 24.1875 1.625 24.2562 1.625 24.3437C1.625 24.4312 1.6 24.5 1.5625 24.5C1.53125 24.5 1.5 24.5812 1.5 24.6875C1.5 24.7875 1.475 24.875 1.4375 24.875C1.40625 24.875 1.375 24.9562 1.375 25.0625C1.375 25.1625 1.35 25.25 1.3125 25.25C1.28125 25.25 1.25 25.3312 1.25 25.4375C1.25 25.5375 1.225 25.625 1.1875 25.625C1.15625 25.625 1.125 25.725 1.125 25.8437C1.125 25.9625 1.1 26.0625 1.0625 26.0625C1.03125 26.0625 1 26.175 1 26.3125C1 26.45 0.975 26.5625 0.9375 26.5625C0.90625 26.5625 0.875 26.6875 0.875 26.8437C0.875 27 0.85 27.125 0.8125 27.125C0.78125 27.125 0.75 27.2625 0.75 27.4375C0.75 27.675 0.725 27.75 0.65625 27.75C0.58125 27.75 0.5625 27.8375 0.5625 28.1562C0.5625 28.3875 0.5375 28.5625 0.5 28.5625C0.4625 28.5625 0.4375 28.7375 0.4375 28.9687C0.4375 29.2 0.4125 29.375 0.375 29.375C0.3375 29.375 0.3125 29.6375 0.3125 30.0312C0.3125 30.425 0.2875 30.6875 0.25 30.6875C0.2125 30.6875 0.1875 31.2062 0.1875 32.125C0.1875 33.0437 0.2125 33.5625 0.25 33.5625C0.2875 33.5625 0.3125 33.7187 0.3125 33.9062C0.3125 34.0937 0.34375 34.25 0.375 34.25C0.4125 34.25 0.4375 34.3312 0.4375 34.4375C0.4375 34.5375 0.46875 34.625 0.5 34.625C0.5375 34.625 0.5625 34.7062 0.5625 34.8125C0.5625 34.9125 0.59375 35 0.63125 35C0.7 35 0.875 35.1562 0.875 35.2187C0.875 35.2937 1.05625 35.4375 1.15 35.4375C1.20625 35.4375 1.25 35.4625 1.25 35.5C1.25 35.5375 1.5125 35.5625 1.90625 35.5625C2.3 35.5625 2.5625 35.5875 2.5625 35.625C2.5625 35.6625 2.9375 35.6875 3.5625 35.6875C4.1875 35.6875 4.5625 35.6625 4.5625 35.625C4.5625 35.5875 4.78125 35.5625 5.09375 35.5625C5.40625 35.5625 5.625 35.5375 5.625 35.5C5.625 35.4625 5.79375 35.4375 6 35.4375C6.20625 35.4375 6.375 35.4125 6.375 35.375C6.375 35.3375 6.6875 35.3125 7.1875 35.3125C7.95625 35.3125 8 35.3187 8 35.4375C8 35.5062 7.975 35.5625 7.9375 35.5625C7.90625 35.5625 7.875 35.6187 7.875 35.6875C7.875 35.7562 7.83125 35.8125 7.78125 35.8125C7.73125 35.8125 7.6875 35.8687 7.6875 35.9375C7.6875 36.0062 7.6625 36.0625 7.625 36.0625C7.59375 36.0625 7.5625 36.1625 7.5625 36.2812C7.5625 36.4 7.5375 36.5 7.5 36.5C7.46875 36.5 7.4375 36.5562 7.4375 36.625C7.4375 36.6937 7.4125 36.75 7.375 36.75C7.34375 36.75 7.3125 36.8312 7.3125 36.9375C7.3125 37.0375 7.2875 37.125 7.25 37.125C7.21875 37.125 7.1875 37.1812 7.1875 37.25C7.1875 37.3187 7.1625 37.375 7.125 37.375C7.09375 37.375 7.0625 37.475 7.0625 37.5937C7.0625 37.7125 7.0375 37.8125 7 37.8125C6.96875 37.8125 6.9375 37.8687 6.9375 37.9375C6.9375 38.0062 6.9125 38.0625 6.875 38.0625C6.84375 38.0625 6.8125 38.1437 6.8125 38.25C6.8125 38.35 6.7875 38.4375 6.75 38.4375C6.71875 38.4375 6.6875 38.5375 6.6875 38.6562C6.6875 38.8062 6.65625 38.875 6.59375 38.875C6.53125 38.875 6.5 38.9375 6.5 39.0625C6.5 39.1625 6.475 39.25 6.4375 39.25C6.40625 39.25 6.375 39.3625 6.375 39.5C6.375 39.6375 6.35 39.75 6.3125 39.75C6.28125 39.75 6.25 39.9062 6.25 40.0937C6.25 40.2812 6.225 40.4375 6.1875 40.4375C6.15 40.4375 6.125 40.6562 6.125 40.9687C6.125 41.2812 6.1 41.5 6.0625 41.5C6.025 41.5 6 42.1875 6 43.4437C6 45.0437 6.01875 45.4 6.0875 45.475C6.1625 45.55 6.54375 45.5625 8.275 45.5625C9.63125 45.5625 10.375 45.5875 10.375 45.625C10.375 45.6625 10.5625 45.6875 10.8125 45.6875C11.0625 45.6875 11.25 45.7125 11.25 45.75C11.25 45.7875 12.0438 45.8125 13.5 45.8125C14.9563 45.8125 15.75 45.7875 15.75 45.75C15.75 45.7125 16.125 45.6875 16.75 45.6875C17.375 45.6875 17.75 45.6625 17.75 45.625C17.75 45.5875 18.1688 45.5625 18.875 45.5625C19.5813 45.5625 20 45.5875 20 45.625C20 45.6625 20.7938 45.6875 22.25 45.6875C23.7063 45.6875 24.5 45.7125 24.5 45.75C24.5 45.7812 24.5563 45.8125 24.625 45.8125C24.6938 45.8125 24.75 45.8562 24.75 45.9062C24.75 45.9562 24.7813 46 24.8125 46C24.85 46 24.875 46.0562 24.875 46.125C24.875 46.2437 24.9188 46.25 25.6563 46.25C26.1375 46.25 26.4375 46.275 26.4375 46.3125C26.4375 46.3437 26.5938 46.375 26.7813 46.375C26.9688 46.375 27.125 46.4 27.125 46.4375C27.125 46.475 27.3625 46.5 27.7188 46.5C28.075 46.5 28.3125 46.525 28.3125 46.5625C28.3125 46.6 28.7 46.625 29.3438 46.625C29.9875 46.625 30.375 46.6 30.375 46.5625C30.375 46.525 30.9063 46.5 31.8438 46.5C32.7813 46.5 33.3125 46.525 33.3125 46.5625C33.3125 46.6 33.9063 46.625 34.9688 46.625C36.0313 46.625 36.625 46.6 36.625 46.5625C36.625 46.525 36.95 46.5 37.4688 46.5C37.9875 46.5 38.3125 46.525 38.3125 46.5625C38.3125 46.6 38.8438 46.625 39.7813 46.625C40.7188 46.625 41.25 46.6 41.25 46.5625C41.25 46.525 41.3188 46.5 41.4063 46.5C41.5625 46.5 42.125 46.0125 42.125 45.875C42.125 45.8437 42.1563 45.8125 42.1875 45.8125C42.225 45.8125 42.25 45.7562 42.25 45.6875C42.25 45.6187 42.2938 45.5625 42.3438 45.5625C42.3938 45.5625 42.4375 45.5062 42.4375 45.4375C42.4375 45.3687 42.4688 45.3125 42.5 45.3125C42.5375 45.3125 42.5625 45.2562 42.5625 45.1875C42.5625 45.1187 42.5938 45.0625 42.625 45.0625C42.6625 45.0625 42.6875 45.0062 42.6875 44.9375C42.6875 44.8687 42.7188 44.8125 42.75 44.8125C42.7875 44.8125 42.8125 44.7125 42.8125 44.5937C42.8125 44.475 42.8438 44.375 42.875 44.375C42.9125 44.375 42.9375 44.3187 42.9375 44.25C42.9375 44.1812 42.9688 44.125 43 44.125C43.0375 44.125 43.0625 44.0375 43.0625 43.9375C43.0625 43.8312 43.0938 43.75 43.125 43.75C43.1625 43.75 43.1875 43.625 43.1875 43.4687C43.1875 43.3125 43.2188 43.1875 43.25 43.1875C43.2875 43.1875 43.3125 43.0187 43.3125 42.8125C43.3125 42.6062 43.3375 42.4375 43.375 42.4375C43.4125 42.4375 43.4375 42.0812 43.4375 41.5C43.4375 40.9187 43.4125 40.5625 43.375 40.5625C43.3375 40.5625 43.3125 40.3625 43.3125 40.0937C43.3125 39.825 43.2875 39.625 43.25 39.625C43.2188 39.625 43.1875 39.5125 43.1875 39.375C43.1875 39.2375 43.1625 39.125 43.125 39.125C43.0938 39.125 43.0625 39 43.0625 38.8437C43.0625 38.6875 43.0375 38.5625 43 38.5625C42.9688 38.5625 42.9375 38.475 42.9375 38.375C42.9375 38.2687 42.9125 38.1875 42.875 38.1875C42.8438 38.1875 42.8125 38.1 42.8125 38C42.8125 37.8937 42.7875 37.8125 42.75 37.8125C42.7188 37.8125 42.6875 37.7125 42.6875 37.5937C42.6875 37.475 42.6625 37.375 42.625 37.375C42.5938 37.375 42.5625 37.2875 42.5625 37.1875C42.5625 37.0812 42.5375 37 42.5 37C42.4688 37 42.4375 36.9437 42.4375 36.875C42.4375 36.8062 42.3938 36.75 42.3438 36.75C42.2813 36.75 42.25 36.6812 42.25 36.5312C42.25 36.4125 42.225 36.3125 42.1875 36.3125C42.1563 36.3125 42.125 36.2562 42.125 36.1875C42.125 36.1187 42.1 36.0625 42.0625 36.0625C42.0313 36.0625 42 36.0062 42 35.9375C42 35.8687 41.975 35.8125 41.9375 35.8125C41.9063 35.8125 41.875 35.7625 41.875 35.7C41.875 35.6375 41.8188 35.55 41.75 35.5C41.6813 35.45 41.625 35.3437 41.625 35.2687C41.625 35.1875 41.6 35.125 41.5625 35.125C41.5313 35.125 41.5 35.0687 41.5 35C41.5 34.9187 41.5438 34.875 41.625 34.875C41.6938 34.875 41.75 34.9 41.75 34.9375C41.75 34.975 41.9875 35 42.3438 35C42.7 35 42.9375 35.025 42.9375 35.0625C42.9375 35.1 43.2375 35.125 43.7188 35.125C44.2 35.125 44.5 35.1 44.5 35.0625C44.5 35.025 44.8313 35 45.375 35C45.9188 35 46.25 34.975 46.25 34.9375C46.25 34.9 46.5938 34.875 47.1563 34.875C47.7188 34.875 48.0625 34.85 48.0625 34.8125C48.0625 34.775 48.25 34.75 48.5 34.75C48.8875 34.75 48.9625 34.7312 49.0938 34.5937C49.1813 34.5125 49.25 34.4 49.25 34.3437C49.25 34.2937 49.2813 34.25 49.3125 34.25C49.35 34.25 49.375 34.125 49.375 33.9687C49.375 33.7625 49.4 33.6875 49.4688 33.6875C49.5438 33.6875 49.5625 33.5937 49.5625 33.2187C49.5625 32.95 49.5875 32.75 49.625 32.75C49.6625 32.75 49.6875 32.5625 49.6875 32.3125C49.6875 32.0625 49.7125 31.875 49.75 31.875C49.7875 31.875 49.8125 31.6125 49.8125 31.2187C49.8125 30.825 49.8375 30.5625 49.875 30.5625C49.9125 30.5625 49.9375 30.325 49.9375 29.9687C49.9375 29.6125 49.9125 29.375 49.875 29.375C49.8375 29.375 49.8125 29.1562 49.8125 28.8437C49.8125 28.5312 49.7875 28.3125 49.75 28.3125C49.7188 28.3125 49.6875 28.1562 49.6875 27.9687C49.6875 27.7812 49.6625 27.625 49.625 27.625C49.5938 27.625 49.5625 27.5375 49.5625 27.4375C49.5625 27.3125 49.5313 27.25 49.4688 27.25C49.4063 27.25 49.375 27.1812 49.375 27.0312C49.375 26.9125 49.35 26.8125 49.3125 26.8125C49.2813 26.8125 49.25 26.7562 49.25 26.6875C49.25 26.6187 49.225 26.5625 49.1875 26.5625C49.1563 26.5625 49.125 26.5062 49.125 26.4375C49.125 26.3687 49.1 26.3125 49.0625 26.3125C49.0313 26.3125 49 26.2562 49 26.1875C49 26.1187 48.975 26.0625 48.9375 26.0625C48.9063 26.0625 48.875 26.0062 48.875 25.9375C48.875 25.8687 48.85 25.8125 48.8125 25.8125C48.7813 25.8125 48.75 25.7437 48.75 25.6562C48.75 25.5687 48.725 25.5 48.6875 25.5C48.6563 25.5 48.625 25.4187 48.625 25.325C48.625 25.225 48.575 25.1125 48.5 25.0625C48.4313 25.0125 48.375 24.925 48.375 24.8625C48.375 24.8 48.3313 24.75 48.2813 24.75C48.2313 24.75 48.1875 24.6937 48.1875 24.625C48.1875 24.5562 48.1625 24.5 48.125 24.5C48.0938 24.5 48.0625 24.4312 48.0625 24.3437C48.0625 24.2562 48.0375 24.1875 48 24.1875C47.9688 24.1875 47.9375 24.1375 47.9375 24.075C47.9375 24.0125 47.8813 23.925 47.8125 23.875C47.7438 23.825 47.6875 23.7437 47.6875 23.7C47.6875 23.65 47.6063 23.5312 47.5 23.4375C47.4 23.3437 47.3125 23.2312 47.3125 23.1937C47.3125 23.1562 47.2875 23.125 47.25 23.125C47.2188 23.125 47.1875 23.0687 47.1875 23C47.1875 22.9312 47.1563 22.875 47.125 22.875C47.0563 22.875 46.25 22.0937 46.25 22.0312C46.25 21.9687 45.9438 21.6875 45.875 21.6875C45.8438 21.6875 45.8125 21.6312 45.8125 21.5625C45.8125 21.4937 45.8563 21.4375 45.9063 21.4375C45.9563 21.4375 46 21.3812 46 21.3125C46 21.2437 46.0313 21.1875 46.0625 21.1875C46.1 21.1875 46.125 21.1312 46.125 21.0625C46.125 20.9937 46.1563 20.9375 46.1875 20.9375C46.225 20.9375 46.25 20.8687 46.25 20.7812C46.25 20.6937 46.2813 20.625 46.3125 20.625C46.35 20.625 46.375 20.5687 46.375 20.5C46.375 20.4312 46.4063 20.375 46.4375 20.375C46.475 20.375 46.5 20.3187 46.5 20.25C46.5 20.1812 46.5313 20.125 46.5625 20.125C46.6 20.125 46.625 20.075 46.625 20.0125C46.625 19.95 46.6813 19.8625 46.75 19.8125C46.8438 19.7437 46.875 19.65 46.875 19.4562C46.875 19.3062 46.9063 19.1875 46.9375 19.1875C46.975 19.1875 47 19.0437 47 18.875C47 18.6375 47.025 18.5625 47.0938 18.5625C47.1688 18.5625 47.1875 18.4625 47.1875 18.0312C47.1875 17.6 47.1688 17.5 47.0938 17.5C47.0188 17.5 47 17.4125 47 17.0937C47 16.8625 46.975 16.6875 46.9375 16.6875C46.9063 16.6875 46.875 16.575 46.875 16.4375C46.875 16.3 46.85 16.1875 46.8125 16.1875C46.7813 16.1875 46.75 16.0875 46.75 15.9687C46.75 15.85 46.725 15.75 46.6875 15.75C46.6563 15.75 46.625 15.6937 46.625 15.625C46.625 15.5562 46.6 15.5 46.5625 15.5C46.5313 15.5 46.5 15.4187 46.5 15.325C46.5 15.225 46.45 15.1125 46.375 15.0625C46.3063 15.0125 46.25 14.9062 46.25 14.8312C46.25 14.75 46.225 14.6875 46.1875 14.6875C46.1563 14.6875 46.125 14.6437 46.125 14.5875C46.125 14.475 45.9813 14.3125 45.8813 14.3125C45.8438 14.3125 45.8125 14.2625 45.8125 14.2C45.8125 14.1375 45.7563 14.05 45.6875 14C45.6188 13.95 45.5625 13.8437 45.5625 13.7687C45.5625 13.6875 45.5375 13.625 45.5 13.625C45.4688 13.625 45.4375 13.575 45.4375 13.5125C45.4375 13.45 45.3813 13.3625 45.3125 13.3125C45.2438 13.2625 45.1875 13.1875 45.1875 13.1375C45.1875 13.0437 44.7813 12.625 44.6875 12.625C44.6563 12.625 44.625 12.5937 44.625 12.5625C44.625 12.4687 44.3313 12.1875 44.2375 12.1875C44.1875 12.1875 44.1125 12.1312 44.0625 12.0625C44.0125 11.9937 43.9313 11.9375 43.875 11.9375C43.8188 11.9375 43.7375 11.8812 43.6875 11.8125C43.6375 11.7437 43.5313 11.6875 43.4563 11.6875C43.375 11.6875 43.3125 11.6562 43.3125 11.625C43.3125 11.5875 43.2313 11.5625 43.125 11.5625C43.025 11.5625 42.9375 11.5312 42.9375 11.5C42.9375 11.4625 42.8813 11.4375 42.8125 11.4375C42.7438 11.4375 42.6875 11.3937 42.6875 11.3437C42.6875 11.275 42.6125 11.25 42.4063 11.25C42.25 11.25 42.125 11.2187 42.125 11.1875C42.125 11.15 41.7625 11.125 41.1563 11.125C40.55 11.125 40.1875 11.15 40.1875 11.1875C40.1875 11.225 39.9875 11.25 39.7188 11.25C39.3438 11.25 39.25 11.2687 39.25 11.3437C39.25 11.4062 39.1875 11.4375 39.0625 11.4375C38.9625 11.4375 38.875 11.4625 38.875 11.5C38.875 11.5312 38.775 11.5625 38.6563 11.5625C38.5375 11.5625 38.4375 11.5875 38.4375 11.625C38.4375 11.6562 38.3813 11.6875 38.3125 11.6875C38.2438 11.6875 38.1875 11.7125 38.1875 11.75C38.1875 11.7812 38.1375 11.8125 38.075 11.8125C38.0125 11.8125 37.925 11.8687 37.875 11.9375C37.825 12.0062 37.725 12.0625 37.6563 12.0625C37.5875 12.0625 37.4875 12.1187 37.4375 12.1875C37.3875 12.2562 37.3125 12.3125 37.2625 12.3125C37.175 12.3125 37 12.4562 37 12.5312C37 12.6125 36.5625 13 36.4688 13C36.3438 13 35.9375 13.4062 35.9375 13.5312C35.9375 13.5812 35.9125 13.625 35.875 13.625C35.8438 13.625 35.8125 13.6562 35.8125 13.6937C35.8125 13.7312 35.7313 13.8437 35.625 13.9375C35.525 14.0312 35.4375 14.1437 35.4375 14.1875C35.4375 14.275 35.2813 14.4375 35.1938 14.4375C35.1563 14.4375 35.125 14.4937 35.125 14.5625C35.125 14.6312 35.1 14.6875 35.0625 14.6875C35.0313 14.6875 35 14.7562 35 14.8437C35 14.9312 34.975 15 34.9375 15C34.9063 15 34.875 15.0562 34.875 15.125C34.875 15.1937 34.85 15.25 34.8125 15.25C34.7813 15.25 34.75 15.3312 34.75 15.4375C34.75 15.5375 34.725 15.625 34.6875 15.625C34.6563 15.625 34.625 15.6812 34.625 15.75C34.625 15.8187 34.6 15.875 34.5625 15.875C34.5313 15.875 34.5 16 34.5 16.1562C34.5 16.3125 34.475 16.4375 34.4375 16.4375C34.4 16.4375 34.375 16.675 34.375 17.0312C34.375 17.3875 34.35 17.625 34.3125 17.625C34.2813 17.625 34.25 17.6812 34.25 17.75C34.25 17.8187 34.2813 17.875 34.3125 17.875C34.35 17.875 34.375 18.1125 34.375 18.4687C34.375 18.825 34.4 19.0625 34.4375 19.0625C34.475 19.0625 34.5 19.1437 34.5 19.25C34.5 19.35 34.5313 19.4375 34.5625 19.4375C34.6 19.4375 34.625 19.5375 34.625 19.6562C34.625 19.775 34.6563 19.875 34.6875 19.875C34.725 19.875 34.75 20 34.75 20.1562C34.75 20.3812 34.7125 20.4812 34.5938 20.6C34.4563 20.7375 34.425 20.7437 34.3438 20.6625C34.2875 20.6062 34.25 20.4562 34.25 20.2875C34.25 20.1312 34.225 20 34.1875 20C34.1563 20 34.125 19.9 34.125 19.7812C34.125 19.6312 34.0938 19.5625 34.0313 19.5625C33.9688 19.5625 33.9375 19.5 33.9375 19.375C33.9375 19.2687 33.9125 19.1875 33.875 19.1875C33.8438 19.1875 33.8125 19.1312 33.8125 19.0625C33.8125 18.9937 33.7875 18.9375 33.75 18.9375C33.7188 18.9375 33.6875 18.8812 33.6875 18.8125C33.6875 18.7437 33.6625 18.6875 33.625 18.6875C33.5938 18.6875 33.5625 18.6187 33.5625 18.5312C33.5625 18.4437 33.5375 18.375 33.5 18.375C33.4688 18.375 33.4375 18.3187 33.4375 18.25C33.4375 18.1812 33.4125 18.125 33.375 18.125C33.3438 18.125 33.3125 18.0687 33.3125 18C33.3125 17.9312 33.2875 17.875 33.25 17.875C33.2188 17.875 33.1875 17.825 33.1875 17.7625C33.1875 17.7 33.1313 17.6125 33.0625 17.5625C32.9938 17.5125 32.9375 17.4062 32.9375 17.3312C32.9375 17.2437 32.9 17.1875 32.8438 17.1875C32.7938 17.1875 32.75 17.1375 32.75 17.075C32.75 17.0125 32.6938 16.925 32.625 16.875C32.5563 16.825 32.5 16.7437 32.5 16.6875C32.5 16.6312 32.4438 16.55 32.375 16.5C32.3063 16.45 32.25 16.3625 32.25 16.3C32.25 16.2375 32.225 16.1875 32.1875 16.1875C32.1563 16.1875 32.125 16.1562 32.125 16.125C32.125 16.0562 31.7188 15.625 31.6563 15.625C31.6063 15.625 30.9375 14.95 30.9375 14.9C30.9375 14.875 30.875 14.8062 30.8 14.7437L30.6688 14.625L30.8 14.5062C30.875 14.4437 30.9375 14.3437 30.9375 14.2875C30.9375 14.2312 30.9688 14.1875 31 14.1875C31.0375 14.1875 31.0625 14.1375 31.0625 14.075C31.0625 14.0125 31.1188 13.925 31.1875 13.875C31.2688 13.8187 31.3125 13.7125 31.3125 13.5812C31.3125 13.4687 31.3438 13.375 31.375 13.375C31.4125 13.375 31.4375 13.3187 31.4375 13.25C31.4375 13.1812 31.4688 13.125 31.5 13.125C31.5375 13.125 31.5625 13.0687 31.5625 13C31.5625 12.9312 31.6063 12.875 31.6563 12.875C31.7188 12.875 31.75 12.8062 31.75 12.6562C31.75 12.5375 31.7813 12.4375 31.8125 12.4375C31.85 12.4375 31.875 12.2937 31.875 12.125C31.875 11.95 31.9063 11.8125 31.9375 11.8125C31.975 11.8125 32 11.6375 32 11.4062C32 11.175 32.025 11 32.0625 11C32.1 11 32.125 10.6562 32.125 10.0937C32.125 9.53125 32.1 9.1875 32.0625 9.1875C32.025 9.1875 32 8.9875 32 8.71875C32 8.45 31.975 8.25 31.9375 8.25C31.9063 8.25 31.875 8.09375 31.875 7.90625C31.875 7.71875 31.85 7.5625 31.8125 7.5625C31.7813 7.5625 31.75 7.475 31.75 7.375C31.75 7.25 31.7188 7.1875 31.6563 7.1875C31.5938 7.1875 31.5625 7.125 31.5625 7C31.5625 6.89375 31.5375 6.8125 31.5 6.8125C31.4688 6.8125 31.4375 6.74375 31.4375 6.65625C31.4375 6.56875 31.4125 6.5 31.375 6.5C31.3438 6.5 31.3125 6.44375 31.3125 6.375C31.3125 6.30625 31.2875 6.25 31.25 6.25C31.2188 6.25 31.1875 6.20625 31.1875 6.15C31.1875 6.09375 31.1063 5.96875 31 5.875C30.9 5.78125 30.8125 5.65625 30.8125 5.6C30.8125 5.54375 30.7875 5.5 30.75 5.5C30.7188 5.5 30.6875 5.46875 30.6875 5.43125C30.6875 5.34375 30.5313 5.1875 30.4438 5.1875C30.4063 5.1875 30.375 5.15625 30.375 5.125C30.375 5.0875 30.3313 5.0625 30.275 5.0625C30.2188 5.0625 30.0938 4.975 30 4.875C29.9063 4.76875 29.7875 4.6875 29.7375 4.6875C29.6938 4.6875 29.6125 4.63125 29.5625 4.5625C29.5125 4.49375 29.4188 4.4375 29.3563 4.4375C29.2313 4.4375 29.0625 4.3 29.0625 4.19375C29.0625 4.15625 29.0063 4.125 28.9375 4.125C28.8688 4.125 28.8125 4.09375 28.8125 4.0625C28.8125 4.025 28.7563 4 28.6875 4C28.6188 4 28.5625 3.96875 28.5625 3.9375C28.5625 3.9 28.4813 3.875 28.375 3.875C28.275 3.875 28.1875 3.84375 28.1875 3.8125C28.1875 3.775 28.0875 3.75 27.9688 3.75C27.85 3.75 27.75 3.71875 27.75 3.6875C27.75 3.65 27.6375 3.625 27.5 3.625C27.3625 3.625 27.25 3.59375 27.25 3.5625C27.25 3.525 26.75 3.5 25.875 3.5C25 3.5 24.5 3.525 24.5 3.5625ZM27.125 5.40625C27.125 5.46875 27.1875 5.5 27.3125 5.5C27.4188 5.5 27.5 5.525 27.5 5.5625C27.5 5.59375 27.5813 5.625 27.675 5.625C27.775 5.625 27.8875 5.675 27.9375 5.75C27.9875 5.81875 28.0813 5.875 28.1438 5.875C28.2125 5.875 28.3438 5.95625 28.4375 6.0625C28.5313 6.1625 28.6438 6.25 28.6813 6.25C28.7563 6.25 29.0625 6.525 29.0625 6.59375C29.0625 6.64375 29.2313 6.8125 29.2813 6.8125C29.3563 6.8125 29.5 6.99375 29.5 7.0875C29.5 7.14375 29.5313 7.1875 29.5625 7.1875C29.6 7.1875 29.625 7.24375 29.625 7.3125C29.625 7.38125 29.6563 7.4375 29.6875 7.4375C29.725 7.4375 29.75 7.5375 29.75 7.65625C29.75 7.775 29.7813 7.875 29.8125 7.875C29.85 7.875 29.875 8.0125 29.875 8.1875C29.875 8.35625 29.9063 8.5 29.9375 8.5C29.975 8.5 30 8.7 30 8.96875C30 9.2375 30.025 9.4375 30.0625 9.4375C30.1 9.4375 30.125 9.6375 30.125 9.90625C30.125 10.175 30.1 10.375 30.0625 10.375C30.025 10.375 30 10.5937 30 10.9062C30 11.2187 29.975 11.4375 29.9375 11.4375C29.9063 11.4375 29.875 11.55 29.875 11.6875C29.875 11.825 29.85 11.9375 29.8125 11.9375C29.7813 11.9375 29.75 12.05 29.75 12.1875C29.75 12.325 29.725 12.4375 29.6875 12.4375C29.6563 12.4375 29.625 12.5062 29.625 12.5937C29.625 12.6812 29.6 12.75 29.5625 12.75C29.5313 12.75 29.5 12.8062 29.5 12.875C29.5 12.9437 29.475 13 29.4375 13C29.4063 13 29.375 13.0562 29.375 13.125C29.375 13.1937 29.3438 13.25 29.3063 13.25C29.2063 13.25 29.0625 13.4125 29.0625 13.525C29.0625 13.5812 29.0375 13.625 29 13.625C28.9688 13.625 28.9375 13.6562 28.9375 13.6875C28.9375 13.8 28.2563 14.4375 28.1375 14.4375C28.0813 14.4375 27.9875 14.4937 27.9375 14.5625C27.8875 14.6375 27.775 14.6875 27.675 14.6875C27.5813 14.6875 27.5 14.7125 27.5 14.75C27.5 14.7812 27.4438 14.8125 27.375 14.8125C27.3063 14.8125 27.25 14.8562 27.25 14.9062C27.25 14.9812 27.1688 15 26.9063 15C26.7188 15 26.5625 15.025 26.5625 15.0625C26.5625 15.1 26.3625 15.125 26.0938 15.125C25.825 15.125 25.625 15.15 25.625 15.1875C25.625 15.225 25.3938 15.25 25.0625 15.25C24.7313 15.25 24.5 15.225 24.5 15.1875C24.5 15.15 24.4438 15.125 24.3688 15.125C24.2313 15.125 24.0625 14.9875 24.0625 14.8812C24.0625 14.8437 24.0125 14.8125 23.95 14.8125C23.8875 14.8125 23.8 14.7562 23.75 14.6875C23.7 14.6187 23.6125 14.5625 23.55 14.5625C23.4875 14.5625 23.4375 14.5312 23.4375 14.5C23.4375 14.4625 23.3375 14.4375 23.2188 14.4375C23.1 14.4375 23 14.4062 23 14.375C23 14.3375 22.9563 14.3125 22.9063 14.3125C22.8125 14.3125 22.25 13.8 22.25 13.7187C22.25 13.6562 22.075 13.5 22.0063 13.5C21.9688 13.5 21.9375 13.4562 21.9375 13.4C21.9375 13.3437 21.8563 13.2187 21.75 13.125C21.65 13.0312 21.5625 12.9125 21.5625 12.8625C21.5625 12.8187 21.5063 12.7375 21.4375 12.6875C21.3688 12.6375 21.3125 12.5312 21.3125 12.4562C21.3125 12.375 21.2875 12.3125 21.25 12.3125C21.2188 12.3125 21.1875 12.2562 21.1875 12.1875C21.1875 12.1187 21.1625 12.0625 21.125 12.0625C21.0938 12.0625 21.0625 11.975 21.0625 11.875C21.0625 11.7687 21.0375 11.6875 21 11.6875C20.9688 11.6875 20.9375 11.6312 20.9375 11.5625C20.9375 11.4937 20.8938 11.4375 20.8438 11.4375C20.7813 11.4375 20.75 11.3687 20.75 11.2187C20.75 11.1 20.725 11 20.6875 11C20.65 11 20.625 10.7812 20.625 10.4687C20.625 10.1562 20.65 9.9375 20.6875 9.9375C20.725 9.9375 20.75 9.825 20.75 9.6875C20.75 9.50625 20.775 9.4375 20.8438 9.4375C20.8938 9.4375 20.9375 9.38125 20.9375 9.3125C20.9375 9.24375 20.9688 9.1875 21 9.1875C21.0375 9.1875 21.0625 9.0875 21.0625 8.96875C21.0625 8.85 21.0938 8.75 21.125 8.75C21.1625 8.75 21.1875 8.7 21.1875 8.6375C21.1875 8.575 21.2438 8.4875 21.3125 8.4375C21.3813 8.3875 21.4375 8.3 21.4375 8.2375C21.4375 8.175 21.4688 8.125 21.5 8.125C21.5375 8.125 21.5625 8.06875 21.5625 8C21.5625 7.93125 21.5938 7.875 21.625 7.875C21.6625 7.875 21.6875 7.81875 21.6875 7.75C21.6875 7.6125 21.9438 7.3125 22.0625 7.3125C22.0938 7.3125 22.125 7.26875 22.125 7.2125C22.125 7.1625 22.2375 7.00625 22.375 6.875C22.5125 6.74375 22.625 6.61875 22.625 6.59375C22.625 6.50625 23.0688 6.125 23.1688 6.125C23.2313 6.125 23.325 6.06875 23.375 6C23.425 5.93125 23.5125 5.875 23.575 5.875C23.6375 5.875 23.6875 5.84375 23.6875 5.8125C23.6875 5.775 23.7438 5.75 23.8125 5.75C23.8813 5.75 23.9375 5.71875 23.9375 5.6875C23.9375 5.65 24.025 5.625 24.125 5.625C24.2313 5.625 24.3125 5.59375 24.3125 5.5625C24.3125 5.525 24.4125 5.5 24.5313 5.5C24.6813 5.5 24.75 5.46875 24.75 5.40625C24.75 5.325 24.925 5.3125 25.9375 5.3125C26.95 5.3125 27.125 5.325 27.125 5.40625ZM12.4375 11.625C12.4375 11.6562 12.5375 11.6875 12.6563 11.6875C12.775 11.6875 12.875 11.7125 12.875 11.75C12.875 11.7812 12.9313 11.8125 13 11.8125C13.0688 11.8125 13.125 11.8375 13.125 11.875C13.125 11.9062 13.175 11.9375 13.2375 11.9375C13.3 11.9375 13.3875 11.9937 13.4375 12.0625C13.4875 12.1312 13.5875 12.1875 13.6563 12.1875C13.725 12.1875 13.825 12.2437 13.875 12.3125C13.925 12.3812 14.0125 12.4375 14.075 12.4375C14.1375 12.4375 14.1875 12.4687 14.1875 12.5C14.1875 12.5875 14.85 13.25 14.9375 13.25C14.9688 13.25 15 13.3 15 13.3625C15 13.425 15.0563 13.5125 15.125 13.5625C15.1938 13.6125 15.25 13.6875 15.25 13.7312C15.25 13.775 15.2813 13.8125 15.3125 13.8125C15.35 13.8125 15.375 13.8562 15.375 13.9125C15.375 13.9687 15.4563 14.0937 15.5625 14.1875C15.6688 14.2812 15.75 14.3937 15.75 14.4312C15.75 14.525 16.0313 14.8125 16.125 14.8125C16.1563 14.8125 16.1875 14.8812 16.1875 14.9687C16.1875 15.0562 16.2188 15.125 16.25 15.125C16.2875 15.125 16.3125 15.1812 16.3125 15.25C16.3125 15.3187 16.3438 15.375 16.375 15.375C16.4125 15.375 16.4375 15.55 16.4375 15.7812C16.4375 16.0125 16.4625 16.1875 16.5 16.1875C16.5375 16.1875 16.5625 16.45 16.5625 16.8437C16.5625 17.2375 16.5375 17.5 16.5 17.5C16.4688 17.5 16.4375 17.5812 16.4375 17.6875C16.4375 17.7875 16.4125 17.875 16.375 17.875C16.3438 17.875 16.3125 17.9312 16.3125 18C16.3125 18.0687 16.2875 18.125 16.25 18.125C16.2188 18.125 16.1875 18.2812 16.1875 18.4687C16.1875 18.7312 16.1688 18.8125 16.0938 18.8125C16.0438 18.8125 16 18.8687 16 18.9375C16 19.0062 15.975 19.0625 15.9375 19.0625C15.9063 19.0625 15.875 19.1437 15.875 19.2375C15.875 19.3375 15.825 19.45 15.75 19.5C15.6813 19.55 15.625 19.6562 15.625 19.7312C15.625 19.8125 15.6 19.875 15.5625 19.875C15.5313 19.875 15.5 19.9187 15.5 19.975C15.5 20.0312 15.4188 20.1562 15.3125 20.25C15.2125 20.3437 15.125 20.4562 15.125 20.5C15.125 20.5875 14.9688 20.75 14.8813 20.75C14.8438 20.75 14.8125 20.7812 14.8125 20.8125C14.8125 20.9062 14.2688 21.4375 14.1688 21.4375C14.125 21.4375 14.05 21.4937 14 21.5625C13.95 21.6312 13.8438 21.6875 13.7688 21.6875C13.6875 21.6875 13.625 21.7125 13.625 21.75C13.625 21.7812 13.5688 21.8125 13.5 21.8125C13.4313 21.8125 13.375 21.8375 13.375 21.875C13.375 21.9062 13.3188 21.9375 13.25 21.9375C13.1813 21.9375 13.125 21.9812 13.125 22.0312C13.125 22.0812 13.0688 22.125 13 22.125C12.9313 22.125 12.875 22.15 12.875 22.1875C12.875 22.2187 12.8188 22.25 12.75 22.25C12.6813 22.25 12.625 22.275 12.625 22.3125C12.625 22.3437 12.525 22.375 12.4063 22.375C12.2875 22.375 12.1875 22.4 12.1875 22.4375C12.1875 22.475 11.7688 22.5 11.0625 22.5C10.3563 22.5 9.9375 22.475 9.9375 22.4375C9.9375 22.4 9.85625 22.375 9.75 22.375C9.65 22.375 9.5625 22.3437 9.5625 22.3125C9.5625 22.275 9.51875 22.25 9.4625 22.25C9.35 22.25 9.1875 22.1062 9.1875 22.0062C9.1875 21.9687 9.13125 21.9375 9.05625 21.9375C8.98125 21.9375 8.84375 21.85 8.75 21.75C8.65625 21.6437 8.5375 21.5625 8.4875 21.5625C8.44375 21.5625 8.3625 21.5062 8.3125 21.4375C8.2625 21.3687 8.18125 21.3125 8.125 21.3125C8.06875 21.3125 7.9875 21.2562 7.9375 21.1875C7.8875 21.1187 7.79375 21.0625 7.73125 21.0625C7.625 21.0625 7.4375 20.925 7.4375 20.85C7.4375 20.8 6.6375 20 6.5875 20C6.5125 20 6.375 19.8187 6.375 19.7187C6.375 19.6625 6.2875 19.5312 6.1875 19.4375C6.0875 19.3437 6 19.2187 6 19.1625C6 19.1062 5.975 19.0625 5.9375 19.0625C5.90625 19.0625 5.875 19.0062 5.875 18.9375C5.875 18.8687 5.85 18.8125 5.8125 18.8125C5.78125 18.8125 5.75 18.7562 5.75 18.6875C5.75 18.6187 5.725 18.5625 5.6875 18.5625C5.65625 18.5625 5.625 18.4937 5.625 18.4062C5.625 18.3187 5.6 18.25 5.5625 18.25C5.53125 18.25 5.5 18.1937 5.5 18.125C5.5 18.0562 5.45625 18 5.40625 18C5.34375 18 5.3125 17.9375 5.3125 17.8125C5.3125 17.7062 5.2875 17.625 5.25 17.625C5.21875 17.625 5.1875 17.525 5.1875 17.4062C5.1875 17.2875 5.1625 17.1875 5.125 17.1875C5.09375 17.1875 5.0625 17.0437 5.0625 16.875C5.0625 16.7 5.0375 16.5625 5 16.5625C4.96875 16.5625 4.9375 16.4062 4.9375 16.2187C4.9375 16.0312 4.96875 15.875 5 15.875C5.0375 15.875 5.0625 15.7625 5.0625 15.625C5.0625 15.4875 5.09375 15.375 5.125 15.375C5.1625 15.375 5.1875 15.2875 5.1875 15.1875C5.1875 15.0812 5.21875 15 5.25 15C5.2875 15 5.3125 14.9 5.3125 14.7812C5.3125 14.6312 5.34375 14.5625 5.40625 14.5625C5.45625 14.5625 5.5 14.5125 5.5 14.45C5.5 14.3875 5.55625 14.3 5.625 14.25C5.69375 14.2 5.75 14.1187 5.75 14.0625C5.75 14.0062 5.80625 13.925 5.875 13.875C5.94375 13.825 6 13.7625 6 13.7375C6 13.675 6.5375 13.125 6.6 13.125C6.61875 13.125 6.71875 13.0375 6.8125 12.9375C6.90625 12.8312 7.01875 12.75 7.0625 12.75C7.1375 12.75 7.3125 12.6 7.3125 12.5312C7.3125 12.4562 7.49375 12.3125 7.5875 12.3125C7.64375 12.3125 7.6875 12.2812 7.6875 12.25C7.6875 12.2125 7.75625 12.1875 7.84375 12.1875C7.93125 12.1875 8 12.1562 8 12.125C8 12.0875 8.05625 12.0625 8.125 12.0625C8.19375 12.0625 8.25 12.0312 8.25 12C8.25 11.9625 8.3375 11.9375 8.4375 11.9375C8.54375 11.9375 8.625 11.9062 8.625 11.875C8.625 11.8375 8.725 11.8125 8.84375 11.8125C8.9625 11.8125 9.0625 11.7812 9.0625 11.75C9.0625 11.7125 9.20625 11.6875 9.375 11.6875C9.55 11.6875 9.6875 11.6562 9.6875 11.625C9.6875 11.5875 10.1875 11.5625 11.0625 11.5625C11.9375 11.5625 12.4375 11.5875 12.4375 11.625ZM41.625 13.1875C41.625 13.2187 41.7125 13.25 41.8125 13.25C41.9188 13.25 42 13.275 42 13.3125C42 13.3437 42.0563 13.375 42.125 13.375C42.1938 13.375 42.25 13.4 42.25 13.4375C42.25 13.4687 42.3063 13.5 42.3813 13.5C42.5188 13.5 42.6875 13.6375 42.6875 13.7437C42.6875 13.7812 42.7313 13.8125 42.7875 13.8125C42.8375 13.8125 43.0188 13.95 43.1875 14.125C43.3563 14.2937 43.5063 14.4375 43.5313 14.4375C43.5938 14.4375 44 14.8687 44 14.9375C44 14.9687 44.0313 15 44.0625 15C44.1 15 44.125 15.05 44.125 15.1125C44.125 15.175 44.1813 15.2625 44.25 15.3125C44.3188 15.3625 44.375 15.4437 44.375 15.5C44.375 15.5562 44.4313 15.6375 44.5 15.6875C44.5688 15.7375 44.625 15.825 44.625 15.8875C44.625 15.95 44.6688 16 44.7188 16C44.7688 16 44.8125 16.0437 44.8125 16.0937C44.8125 16.1437 44.8438 16.1875 44.875 16.1875C44.9125 16.1875 44.9375 16.2687 44.9375 16.375C44.9375 16.475 44.9688 16.5625 45 16.5625C45.0375 16.5625 45.0625 16.6437 45.0625 16.75C45.0625 16.85 45.0938 16.9375 45.125 16.9375C45.1625 16.9375 45.1875 17.0625 45.1875 17.2187C45.1875 17.375 45.2188 17.5 45.25 17.5C45.2875 17.5 45.3125 17.7812 45.3125 18.2187C45.3125 18.6562 45.2875 18.9375 45.25 18.9375C45.2188 18.9375 45.1875 19.075 45.1875 19.25C45.1875 19.4187 45.1625 19.5625 45.125 19.5625C45.0938 19.5625 45.0625 19.6625 45.0625 19.7812C45.0625 19.9 45.0375 20 45 20C44.9688 20 44.9375 20.0562 44.9375 20.125C44.9375 20.1937 44.9125 20.25 44.875 20.25C44.8438 20.25 44.8125 20.3062 44.8125 20.375C44.8125 20.4437 44.7813 20.5 44.75 20.5C44.6625 20.5 44.375 20.7875 44.375 20.875C44.375 20.9062 44.35 20.9375 44.3125 20.9375C44.2813 20.9375 44.25 20.9937 44.25 21.0625C44.25 21.1375 44.2063 21.1875 44.15 21.1875C44.0938 21.1875 43.9688 21.2687 43.875 21.375C43.7813 21.475 43.65 21.5625 43.5813 21.5625C43.5188 21.5625 43.425 21.6187 43.375 21.6875C43.325 21.7562 43.2375 21.8125 43.175 21.8125C43.1125 21.8125 43.0625 21.8375 43.0625 21.875C43.0625 21.9062 43.0063 21.9375 42.9375 21.9375C42.8688 21.9375 42.8125 21.9812 42.8125 22.0312C42.8125 22.0812 42.7563 22.125 42.6875 22.125C42.6188 22.125 42.5625 22.15 42.5625 22.1875C42.5625 22.2187 42.4625 22.25 42.3438 22.25C42.225 22.25 42.125 22.275 42.125 22.3125C42.125 22.3437 42.0688 22.375 42 22.375C41.9313 22.375 41.875 22.4 41.875 22.4375C41.875 22.4687 41.8188 22.5 41.75 22.5C41.6813 22.5 41.625 22.525 41.625 22.5625C41.625 22.5937 41.5438 22.625 41.4375 22.625C41.3375 22.625 41.25 22.65 41.25 22.6875C41.25 22.725 40.9563 22.75 40.5 22.75C40.0438 22.75 39.75 22.775 39.75 22.8125C39.75 22.85 39.5188 22.875 39.1875 22.875C38.625 22.875 38.6188 22.875 38.4063 22.6562C38.2875 22.5375 38.1875 22.4062 38.1875 22.3625C38.1875 22.3125 38.1313 22.2375 38.0625 22.1875C37.9938 22.1375 37.9375 22.0625 37.9375 22.0187C37.9375 21.975 37.9125 21.9375 37.875 21.9375C37.8438 21.9375 37.8125 21.8937 37.8125 21.8375C37.8125 21.725 37.6688 21.5625 37.5688 21.5625C37.5313 21.5625 37.5 21.5062 37.5 21.4375C37.5 21.3687 37.475 21.3125 37.4375 21.3125C37.4063 21.3125 37.375 21.2562 37.375 21.1875C37.375 21.1187 37.35 21.0625 37.3125 21.0625C37.2813 21.0625 37.25 20.9937 37.25 20.9062C37.25 20.8187 37.225 20.75 37.1875 20.75C37.1563 20.75 37.125 20.6937 37.125 20.625C37.125 20.5562 37.1 20.5 37.0625 20.5C37.0313 20.5 37 20.4125 37 20.3125C37 20.2062 36.975 20.125 36.9375 20.125C36.9063 20.125 36.875 20.0375 36.875 19.9375C36.875 19.8312 36.85 19.75 36.8125 19.75C36.7813 19.75 36.75 19.65 36.75 19.5312C36.75 19.4125 36.725 19.3125 36.6875 19.3125C36.6563 19.3125 36.625 19.2 36.625 19.0625C36.625 18.925 36.6 18.8125 36.5625 18.8125C36.5313 18.8125 36.5 18.7125 36.5 18.5937C36.5 18.4437 36.4688 18.375 36.4063 18.375C36.3375 18.375 36.3125 18.3062 36.3125 18.125C36.3125 17.9875 36.2875 17.875 36.25 17.875C36.2188 17.875 36.1875 17.7187 36.1875 17.5312C36.1875 17.3437 36.2188 17.1875 36.25 17.1875C36.2875 17.1875 36.3125 17.0187 36.3125 16.8125C36.3125 16.5187 36.3313 16.4375 36.4063 16.4375C36.4563 16.4375 36.5 16.3812 36.5 16.3125C36.5 16.2437 36.5313 16.1875 36.5625 16.1875C36.6 16.1875 36.625 16.0875 36.625 15.9687C36.625 15.85 36.6563 15.75 36.6875 15.75C36.725 15.75 36.75 15.6937 36.75 15.625C36.75 15.5562 36.7813 15.5 36.8125 15.5C36.85 15.5 36.875 15.45 36.875 15.3875C36.875 15.325 36.9313 15.2375 37 15.1875C37.0688 15.1375 37.125 15.0437 37.125 14.9812C37.125 14.8812 37.5063 14.4375 37.6 14.4375C37.6188 14.4375 37.7188 14.35 37.8125 14.25C37.9063 14.1437 38.025 14.0625 38.075 14.0625C38.1188 14.0625 38.2 14.0062 38.25 13.9375C38.3 13.8687 38.3875 13.8125 38.45 13.8125C38.5125 13.8125 38.5625 13.7687 38.5625 13.7187C38.5625 13.6625 38.6188 13.625 38.7188 13.625C38.8063 13.625 38.875 13.5937 38.875 13.5625C38.875 13.525 38.9625 13.5 39.0625 13.5C39.1688 13.5 39.25 13.4687 39.25 13.4375C39.25 13.4 39.3625 13.375 39.5 13.375C39.6375 13.375 39.75 13.3437 39.75 13.3125C39.75 13.275 39.9063 13.25 40.0938 13.25C40.2813 13.25 40.4375 13.2187 40.4375 13.1875C40.4375 13.15 40.675 13.125 41.0313 13.125C41.3875 13.125 41.625 13.15 41.625 13.1875ZM21.1875 15.35C21.1875 15.4 21.3313 15.5812 21.5 15.75C21.675 15.9187 21.8125 16.075 21.8125 16.0937C21.8125 16.1812 22 16.3125 22.1188 16.3125C22.1938 16.3125 22.25 16.3375 22.25 16.375C22.25 16.4062 22.3 16.4375 22.3625 16.4375C22.425 16.4375 22.5125 16.4937 22.5625 16.5625C22.6125 16.6312 22.6938 16.6875 22.75 16.6875C22.8063 16.6875 22.8875 16.7437 22.9375 16.8125C22.9875 16.8812 23.0938 16.9375 23.1688 16.9375C23.25 16.9375 23.3125 16.9625 23.3125 17C23.3125 17.0312 23.3688 17.0625 23.4375 17.0625C23.5063 17.0625 23.5625 17.0875 23.5625 17.125C23.5625 17.1562 23.675 17.1875 23.8125 17.1875C23.9938 17.1875 24.0625 17.2125 24.0625 17.2812C24.0625 17.3625 24.2 17.375 24.9375 17.375C25.675 17.375 25.8125 17.3625 25.8125 17.2812C25.8125 17.2062 25.8938 17.1875 26.1875 17.1875C26.3938 17.1875 26.5625 17.1625 26.5625 17.125C26.5625 17.0875 26.7188 17.0625 26.9063 17.0625C27.0938 17.0625 27.25 17.0312 27.25 17C27.25 16.9625 27.3375 16.9375 27.4375 16.9375C27.5438 16.9375 27.625 16.9062 27.625 16.875C27.625 16.8375 27.7125 16.8125 27.8125 16.8125C27.9188 16.8125 28 16.7812 28 16.75C28 16.7125 28.0688 16.6875 28.1563 16.6875C28.2438 16.6875 28.3125 16.6562 28.3125 16.625C28.3125 16.5875 28.3688 16.5625 28.4375 16.5625C28.5063 16.5625 28.5625 16.5312 28.5625 16.5C28.5625 16.4625 28.6188 16.4375 28.6875 16.4375C28.7563 16.4375 28.8125 16.4062 28.8125 16.375C28.8125 16.3375 28.8563 16.3125 28.9125 16.3125C29.025 16.3125 29.1875 16.1687 29.1875 16.0687C29.1875 16.0312 29.2438 16 29.3188 16C29.3875 16 29.5563 15.8875 29.6875 15.75C29.9375 15.4875 30.25 15.4062 30.25 15.6C30.25 15.7125 30.3938 15.875 30.4938 15.875C30.5313 15.875 30.5625 15.9437 30.5625 16.0312C30.5625 16.1187 30.5938 16.1875 30.625 16.1875C30.6625 16.1875 30.6875 16.2375 30.6875 16.3C30.6875 16.3625 30.7438 16.45 30.8125 16.5C30.8813 16.55 30.9375 16.6312 30.9375 16.6875C30.9375 16.7437 30.9938 16.825 31.0625 16.875C31.1313 16.925 31.1875 17.0125 31.1875 17.075C31.1875 17.1375 31.2188 17.1875 31.25 17.1875C31.2875 17.1875 31.3125 17.2562 31.3125 17.3437C31.3125 17.4312 31.3438 17.5 31.375 17.5C31.4125 17.5 31.4375 17.5812 31.4375 17.6875C31.4375 17.7875 31.4688 17.875 31.5 17.875C31.5375 17.875 31.5625 17.9312 31.5625 18C31.5625 18.0687 31.6063 18.125 31.6563 18.125C31.7188 18.125 31.75 18.1937 31.75 18.3437C31.75 18.4625 31.7813 18.5625 31.8125 18.5625C31.85 18.5625 31.875 18.6187 31.875 18.6875C31.875 18.7562 31.9063 18.8125 31.9375 18.8125C31.975 18.8125 32 18.8687 32 18.9375C32 19.0062 32.0313 19.0625 32.0625 19.0625C32.1 19.0625 32.125 19.1437 32.125 19.25C32.125 19.35 32.1563 19.4375 32.1875 19.4375C32.225 19.4375 32.25 19.5062 32.25 19.5937C32.25 19.6812 32.2813 19.75 32.3125 19.75C32.35 19.75 32.375 19.8625 32.375 20C32.375 20.1375 32.4063 20.25 32.4375 20.25C32.475 20.25 32.5 20.6875 32.5 21.4375V22.625H32.3125C32.2125 22.625 32.125 22.65 32.125 22.6875C32.125 22.7187 32 22.75 31.8438 22.75C31.6875 22.75 31.5625 22.775 31.5625 22.8125C31.5625 22.8437 31.45 22.875 31.3125 22.875C31.175 22.875 31.0625 22.9 31.0625 22.9375C31.0625 22.9687 30.9813 23 30.875 23C30.775 23 30.6875 23.025 30.6875 23.0625C30.6875 23.0937 30.6188 23.125 30.5313 23.125C30.4313 23.125 30.375 23.1625 30.375 23.2187C30.375 23.2687 30.3188 23.3125 30.25 23.3125C30.1813 23.3125 30.125 23.3375 30.125 23.375C30.125 23.4062 30.075 23.4375 30.0125 23.4375C29.95 23.4375 29.8625 23.4937 29.8125 23.5625C29.7625 23.6312 29.6813 23.6875 29.625 23.6875C29.5688 23.6875 29.4875 23.7437 29.4375 23.8125C29.3875 23.8812 29.325 23.9375 29.2938 23.9375C29.2313 23.9375 28.8125 24.3562 28.8125 24.4187C28.8125 24.45 28.7563 24.5125 28.6875 24.5625C28.6188 24.6125 28.5625 24.6937 28.5625 24.75C28.5625 24.8062 28.5063 24.8875 28.4375 24.9375C28.3688 24.9875 28.3125 25.075 28.3125 25.1375C28.3125 25.2 28.2875 25.25 28.25 25.25C28.2188 25.25 28.1875 25.3062 28.1875 25.375C28.1875 25.4437 28.1438 25.5 28.0938 25.5C28.0313 25.5 28 25.5687 28 25.7187C28 25.8375 27.975 25.9375 27.9375 25.9375C27.9063 25.9375 27.875 25.9937 27.875 26.0625C27.875 26.1312 27.85 26.1875 27.8125 26.1875C27.7813 26.1875 27.75 26.1562 27.75 26.125C27.75 26.0875 27.6125 26.0625 27.4375 26.0625C27.2688 26.0625 27.125 26.0312 27.125 26C27.125 25.9625 26.6125 25.9375 25.7188 25.9375C24.825 25.9375 24.3125 25.9625 24.3125 26C24.3125 26.0375 24.0313 26.0625 23.5938 26.0625C22.9188 26.0625 22.875 26.0562 22.875 25.9375C22.875 25.8687 22.85 25.8125 22.8125 25.8125C22.7813 25.8125 22.75 25.7687 22.75 25.7187C22.75 25.6687 22.725 25.625 22.6875 25.625C22.6563 25.625 22.625 25.5687 22.625 25.5C22.625 25.4312 22.6 25.375 22.5625 25.375C22.5313 25.375 22.5 25.3187 22.5 25.25C22.5 25.1812 22.475 25.125 22.4375 25.125C22.4063 25.125 22.375 25.0687 22.375 25C22.375 24.9312 22.35 24.875 22.3125 24.875C22.2813 24.875 22.25 24.8187 22.25 24.75C22.25 24.6812 22.225 24.625 22.1875 24.625C22.1563 24.625 22.125 24.5562 22.125 24.4687C22.125 24.3812 22.0938 24.3125 22.0563 24.3125C21.9688 24.3125 21.8125 24.15 21.8125 24.0625C21.8125 24.025 21.6438 23.825 21.4375 23.625C21.2313 23.425 21.0625 23.2375 21.0625 23.2187C21.0625 23.1375 20.8813 23 20.7688 23C20.7063 23 20.6125 22.9437 20.5625 22.875C20.5125 22.8062 20.425 22.75 20.3625 22.75C20.3 22.75 20.25 22.7187 20.25 22.6875C20.25 22.65 20.1688 22.625 20.0625 22.625C19.9625 22.625 19.875 22.5937 19.875 22.5625C19.875 22.525 19.75 22.5 19.5938 22.5C19.4375 22.5 19.3125 22.4687 19.3125 22.4375C19.3125 22.4 19.175 22.375 19 22.375C18.8313 22.375 18.6875 22.3437 18.6875 22.3125C18.6875 22.275 18.45 22.25 18.0938 22.25H17.5V22.0312C17.5 21.9125 17.475 21.8125 17.4375 21.8125C17.4063 21.8125 17.375 21.7562 17.375 21.6875C17.375 21.6187 17.3313 21.5625 17.2813 21.5625C17.2313 21.5625 17.1875 21.5187 17.1875 21.4625C17.1875 21.4062 17.1063 21.2812 17 21.1875C16.7813 20.9812 16.7625 20.8125 16.9375 20.6875C17.0063 20.6375 17.0625 20.55 17.0625 20.4875C17.0625 20.425 17.0938 20.375 17.125 20.375C17.1625 20.375 17.1875 20.3187 17.1875 20.25C17.1875 20.1812 17.2313 20.125 17.2813 20.125C17.3313 20.125 17.375 20.0687 17.375 20C17.375 19.9312 17.4063 19.875 17.4375 19.875C17.475 19.875 17.5 19.8062 17.5 19.7187C17.5 19.6312 17.5313 19.5625 17.5625 19.5625C17.6 19.5625 17.625 19.5062 17.625 19.4375C17.625 19.3687 17.6563 19.3125 17.6875 19.3125C17.725 19.3125 17.75 19.225 17.75 19.125C17.75 19.0187 17.7813 18.9375 17.8125 18.9375C17.85 18.9375 17.875 18.8812 17.875 18.8125C17.875 18.7437 17.9063 18.6875 17.9375 18.6875C17.975 18.6875 18 18.5625 18 18.4062C18 18.25 18.0313 18.125 18.0625 18.125C18.1 18.125 18.125 18.0125 18.125 17.875C18.125 17.7375 18.1563 17.625 18.1875 17.625C18.225 17.625 18.25 17.5687 18.25 17.5C18.25 17.4312 18.2813 17.375 18.3125 17.375C18.35 17.375 18.375 17.3312 18.375 17.2812C18.375 17.2312 18.4063 17.1875 18.4375 17.1875C18.475 17.1875 18.7 16.9875 18.9375 16.75C19.175 16.5062 19.4125 16.3125 19.4688 16.3125C19.5188 16.3125 19.5625 16.2812 19.5625 16.25C19.5625 16.2125 19.6063 16.1875 19.6563 16.1875C19.7063 16.1875 19.75 16.1562 19.75 16.125C19.75 16.0312 20.0438 15.75 20.1375 15.75C20.1875 15.75 20.2625 15.6937 20.3125 15.625C20.3625 15.5562 20.4438 15.5 20.5 15.5C20.5563 15.5 20.6375 15.4437 20.6875 15.375C20.8 15.2187 21.1875 15.2 21.1875 15.35ZM35.975 21.9C36.025 21.95 36.0625 22.0062 36.0625 22.0312C36.0625 22.0812 36.3563 22.375 36.4063 22.375C36.4563 22.375 36.625 22.5437 36.625 22.5875C36.625 22.6062 36.5 22.625 36.3438 22.625C36.1875 22.625 36.0625 22.5937 36.0625 22.5625C36.0625 22.525 35.8625 22.5 35.5938 22.5C35.325 22.5 35.125 22.475 35.125 22.4375C35.125 22.4 35.1563 22.375 35.1875 22.375C35.2563 22.375 35.5625 22.0937 35.5625 22.0312C35.5625 21.9625 35.7188 21.8187 35.8 21.8125C35.8438 21.8125 35.925 21.85 35.975 21.9ZM5.875 22C5.875 22.1125 6.43125 22.625 6.55 22.625C6.60625 22.625 6.7 22.6812 6.75 22.75C6.8 22.825 6.9125 22.875 7.0125 22.875C7.10625 22.875 7.1875 22.9 7.1875 22.9375C7.1875 22.9687 7.24375 23 7.3125 23C7.38125 23 7.4375 23.025 7.4375 23.0625C7.4375 23.0937 7.49375 23.125 7.5625 23.125C7.63125 23.125 7.6875 23.1687 7.6875 23.2187C7.6875 23.2687 7.725 23.3125 7.76875 23.3125C7.8125 23.3125 7.8875 23.3687 7.9375 23.4375C7.9875 23.5062 8.06875 23.5625 8.125 23.5625C8.18125 23.5625 8.2625 23.6187 8.3125 23.6875C8.3625 23.7562 8.45 23.8125 8.5125 23.8125C8.575 23.8125 8.625 23.8375 8.625 23.875C8.625 23.9062 8.68125 23.9375 8.75 23.9375C8.81875 23.9375 8.875 23.9625 8.875 24C8.875 24.0312 8.975 24.0625 9.09375 24.0625C9.2125 24.0625 9.3125 24.0875 9.3125 24.125C9.3125 24.1562 9.425 24.1875 9.5625 24.1875C9.7 24.1875 9.8125 24.2125 9.8125 24.25C9.8125 24.2875 10.0938 24.3125 10.5313 24.3125C11.2813 24.3125 11.4 24.3625 11.125 24.5625C11.0563 24.6125 11 24.6937 11 24.75C11 24.8062 10.9438 24.8875 10.875 24.9375C10.8063 24.9875 10.75 25.0687 10.75 25.125C10.75 25.1812 10.6938 25.2625 10.625 25.3125C10.5563 25.3625 10.5 25.45 10.5 25.5125C10.5 25.575 10.475 25.625 10.4375 25.625C10.4063 25.625 10.375 25.6937 10.375 25.7812C10.375 25.8687 10.35 25.9375 10.3125 25.9375C10.2813 25.9375 10.25 25.9937 10.25 26.0625C10.25 26.1312 10.2063 26.1875 10.1563 26.1875C10.1063 26.1875 10.0625 26.2437 10.0625 26.3125C10.0625 26.3812 10.0375 26.4375 10 26.4375C9.96875 26.4375 9.9375 26.4937 9.9375 26.5625C9.9375 26.6312 9.9125 26.6875 9.875 26.6875C9.84375 26.6875 9.8125 26.8437 9.8125 27.0312C9.8125 27.2187 9.7875 27.375 9.75 27.375C9.7125 27.375 9.6875 27.675 9.6875 28.1562C9.6875 28.6375 9.7125 28.9375 9.75 28.9375C9.7875 28.9375 9.8125 29.1562 9.8125 29.4687C9.8125 29.7812 9.8375 30 9.875 30C9.9125 30 9.9375 30.125 9.9375 30.2812C9.9375 30.4375 9.96875 30.5625 10 30.5625C10.0375 30.5625 10.0625 30.6437 10.0625 30.75C10.0625 30.875 10.0938 30.9375 10.1563 30.9375C10.2063 30.9375 10.25 30.9937 10.25 31.0625C10.25 31.1312 10.2813 31.1875 10.3125 31.1875C10.35 31.1875 10.375 31.2437 10.375 31.3125C10.375 31.3812 10.4063 31.4375 10.4375 31.4375C10.475 31.4375 10.5 31.5062 10.5 31.5875C10.5 31.6687 10.5313 31.75 10.575 31.7625C10.6875 31.8 10.3438 32.125 10.1875 32.125C10.1125 32.125 10.0625 32.1687 10.0625 32.225C10.0625 32.275 9.95 32.4312 9.8125 32.5625C9.675 32.6937 9.5625 32.85 9.5625 32.9062C9.5625 33.0375 9.1125 33.4875 9.075 33.3875C9.0625 33.3437 8.95625 33.3125 8.8375 33.3125C8.71875 33.3125 8.625 33.2812 8.625 33.25C8.625 33.2125 8.14375 33.1875 7.3125 33.1875C6.48125 33.1875 6 33.2125 6 33.25C6 33.2875 5.825 33.3125 5.59375 33.3125C5.3625 33.3125 5.1875 33.3375 5.1875 33.375C5.1875 33.4125 4.76875 33.4375 4.0625 33.4375C3.35625 33.4375 2.9375 33.4625 2.9375 33.5C2.9375 33.6 2.25625 33.575 2.15 33.475C2.0875 33.4062 2.0625 33.225 2.0625 32.8187C2.0625 32.4812 2.0375 32.25 2 32.25C1.96875 32.25 1.9375 32.1375 1.9375 32C1.9375 31.8625 1.96875 31.75 2 31.75C2.0375 31.75 2.0625 31.4375 2.0625 30.9375C2.0625 30.4375 2.0875 30.125 2.125 30.125C2.1625 30.125 2.1875 29.9562 2.1875 29.75C2.1875 29.5437 2.2125 29.375 2.25 29.375C2.2875 29.375 2.3125 29.2187 2.3125 29.0312C2.3125 28.8437 2.34375 28.6875 2.375 28.6875C2.4125 28.6875 2.4375 28.5312 2.4375 28.3437C2.4375 28.1562 2.46875 28 2.5 28C2.5375 28 2.5625 27.8875 2.5625 27.75C2.5625 27.6125 2.59375 27.5 2.625 27.5C2.6625 27.5 2.6875 27.3875 2.6875 27.25C2.6875 27.1125 2.71875 27 2.75 27C2.7875 27 2.8125 26.875 2.8125 26.7187C2.8125 26.5625 2.84375 26.4375 2.875 26.4375C2.9125 26.4375 2.9375 26.35 2.9375 26.25C2.9375 26.125 2.96875 26.0625 3.03125 26.0625C3.09375 26.0625 3.125 25.9937 3.125 25.8437C3.125 25.725 3.15625 25.625 3.1875 25.625C3.225 25.625 3.25 25.5375 3.25 25.4375C3.25 25.3312 3.28125 25.25 3.3125 25.25C3.35 25.25 3.375 25.2062 3.375 25.15C3.375 25.1 3.4875 24.9437 3.625 24.8125C3.7625 24.6812 3.875 24.5125 3.875 24.4437C3.875 24.3687 3.90625 24.3125 3.9375 24.3125C3.975 24.3125 4 24.2375 4 24.15C4 23.9875 4.125 23.8125 4.24375 23.8125C4.28125 23.8125 4.3125 23.7625 4.3125 23.7C4.3125 23.6375 4.36875 23.55 4.4375 23.5C4.50625 23.45 4.5625 23.3437 4.5625 23.2687C4.5625 23.1875 4.59375 23.125 4.625 23.125C4.6625 23.125 4.6875 23.0812 4.6875 23.0312C4.6875 22.9437 5.325 22.25 5.40625 22.25C5.46875 22.25 5.625 22.075 5.625 22.0062C5.625 21.9687 5.68125 21.9375 5.75 21.9375C5.81875 21.9375 5.875 21.9687 5.875 22ZM16.225 22.2125C16.3625 22.35 16.3313 22.375 16.0375 22.375C15.875 22.375 15.75 22.4062 15.7313 22.45C15.7188 22.4937 15.6813 22.5125 15.6563 22.4875C15.5938 22.425 15.8875 22.1312 16.0188 22.1312C16.0813 22.125 16.175 22.1625 16.225 22.2125ZM45.1563 22.6562C45.2438 22.7375 45.3125 22.8437 45.3125 22.8875C45.3125 22.9375 45.3688 23.0125 45.4375 23.0625C45.5063 23.1125 45.5625 23.2125 45.5625 23.2812C45.5625 23.35 45.6188 23.45 45.6875 23.5C45.7563 23.55 45.8125 23.6375 45.8125 23.7C45.8125 23.7625 45.8438 23.8125 45.875 23.8125C45.9813 23.8125 46.25 24.1062 46.25 24.2187C46.25 24.2687 46.2813 24.3125 46.3125 24.3125C46.35 24.3125 46.375 24.3562 46.375 24.4062C46.375 24.4562 46.4063 24.5 46.4375 24.5C46.475 24.5 46.5 24.5562 46.5 24.625C46.5 24.6937 46.5313 24.75 46.5625 24.75C46.6 24.75 46.625 24.8062 46.625 24.875C46.625 24.9437 46.6563 25 46.6875 25C46.725 25 46.75 25.0562 46.75 25.125C46.75 25.1937 46.7813 25.25 46.8125 25.25C46.85 25.25 46.875 25.3062 46.875 25.375C46.875 25.4437 46.9063 25.5 46.9375 25.5C46.975 25.5 47 25.6 47 25.7187C47 25.8687 47.0313 25.9375 47.0938 25.9375C47.1438 25.9375 47.1875 25.9937 47.1875 26.0625C47.1875 26.1312 47.2188 26.1875 47.25 26.1875C47.2875 26.1875 47.3125 26.2437 47.3125 26.3125C47.3125 26.3812 47.3438 26.4375 47.375 26.4375C47.4125 26.4375 47.4375 26.5187 47.4375 26.625C47.4375 26.725 47.4688 26.8125 47.5 26.8125C47.5375 26.8125 47.5625 26.8812 47.5625 26.9687C47.5625 27.0562 47.5938 27.125 47.625 27.125C47.6625 27.125 47.6875 27.2062 47.6875 27.3125C47.6875 27.4125 47.7188 27.5 47.75 27.5C47.7875 27.5 47.8125 27.5812 47.8125 27.6875C47.8125 27.7875 47.8438 27.875 47.875 27.875C47.9125 27.875 47.9375 28 47.9375 28.1562C47.9375 28.3125 47.9688 28.4375 48 28.4375C48.0375 28.4375 48.0625 28.7 48.0625 29.0937C48.0625 29.4875 48.0375 29.75 48 29.75C47.9625 29.75 47.9375 29.9875 47.9375 30.3437C47.9375 30.7 47.9125 30.9375 47.875 30.9375C47.8375 30.9375 47.8125 31.1125 47.8125 31.3437C47.8125 31.575 47.7875 31.75 47.75 31.75C47.7188 31.75 47.6875 31.8625 47.6875 32C47.6875 32.1375 47.6625 32.25 47.625 32.25C47.5938 32.25 47.5625 32.3937 47.5625 32.5687C47.5625 33.0312 47.5063 33.0625 46.6938 33.0625C46.275 33.0625 46 33.0375 46 33C46 32.9625 45.4063 32.9375 44.3438 32.9375C42.9125 32.9375 42.6875 32.925 42.6875 32.8437C42.6875 32.7687 42.575 32.75 42.0313 32.75C41.6375 32.75 41.375 32.725 41.375 32.6875C41.375 32.65 41.275 32.625 41.1563 32.625C41.0375 32.625 40.9375 32.65 40.9375 32.6875C40.9375 32.7187 40.8 32.75 40.625 32.75C40.4563 32.75 40.3125 32.7187 40.3125 32.6875C40.3125 32.65 40.3438 32.625 40.375 32.625C40.4125 32.625 40.4375 32.5375 40.4375 32.4375C40.4375 32.3312 40.4688 32.25 40.5 32.25C40.5375 32.25 40.5625 32.1375 40.5625 32C40.5625 31.8625 40.5938 31.75 40.625 31.75C40.6625 31.75 40.6875 31.5937 40.6875 31.4062C40.6875 31.2187 40.7188 31.0625 40.75 31.0625C40.7875 31.0625 40.8125 30.9062 40.8125 30.7187C40.8125 30.5312 40.8438 30.375 40.875 30.375C40.9125 30.375 40.9375 30.0312 40.9375 29.4687C40.9375 28.9062 40.9125 28.5625 40.875 28.5625C40.8438 28.5625 40.8125 28.4062 40.8125 28.2187C40.8125 28.0312 40.7875 27.875 40.75 27.875C40.7188 27.875 40.6875 27.7625 40.6875 27.625C40.6875 27.4875 40.6625 27.375 40.625 27.375C40.5938 27.375 40.5625 27.2875 40.5625 27.1875C40.5625 27.0812 40.5375 27 40.5 27C40.4688 27 40.4375 26.9 40.4375 26.7812C40.4375 26.6625 40.4125 26.5625 40.375 26.5625C40.3438 26.5625 40.3125 26.5062 40.3125 26.4375C40.3125 26.3687 40.2875 26.3125 40.25 26.3125C40.2188 26.3125 40.1875 26.2562 40.1875 26.1875C40.1875 26.1187 40.1625 26.0625 40.125 26.0625C40.0938 26.0625 40.0625 26.0062 40.0625 25.9375C40.0625 25.8687 40.0188 25.8125 39.9688 25.8125C39.9125 25.8125 39.875 25.7562 39.875 25.6562C39.875 25.5687 39.85 25.5 39.8125 25.5C39.7813 25.5 39.75 25.4562 39.75 25.4C39.75 25.35 39.6375 25.1937 39.5 25.0625C39.1188 24.7 39.1563 24.625 39.7188 24.625C39.9875 24.625 40.1875 24.6 40.1875 24.5625C40.1875 24.525 40.4875 24.5 40.9688 24.5C41.6188 24.5 41.75 24.4875 41.75 24.4062C41.75 24.3437 41.8125 24.3125 41.9375 24.3125C42.0438 24.3125 42.125 24.2812 42.125 24.25C42.125 24.2125 42.1938 24.1875 42.2813 24.1875C42.3688 24.1875 42.4375 24.1562 42.4375 24.125C42.4375 24.0875 42.4938 24.0625 42.5625 24.0625C42.6313 24.0625 42.6875 24.0312 42.6875 24C42.6875 23.9625 42.7375 23.9375 42.8 23.9375C42.8625 23.9375 42.95 23.8812 43 23.8125C43.05 23.7437 43.1375 23.6875 43.2 23.6875C43.2625 23.6875 43.3125 23.6562 43.3125 23.625C43.3125 23.5875 43.3813 23.5625 43.4688 23.5625C43.5563 23.5625 43.625 23.5312 43.625 23.5C43.625 23.4625 43.6688 23.4375 43.725 23.4375C43.8375 23.4375 44 23.2937 44 23.1937C44 23.1562 44.05 23.125 44.1125 23.125C44.175 23.125 44.2625 23.0687 44.3125 23C44.3625 22.9312 44.45 22.875 44.5125 22.875C44.575 22.875 44.625 22.8437 44.625 22.8125C44.625 22.775 44.6625 22.75 44.7063 22.75C44.75 22.75 44.825 22.6937 44.875 22.625C44.9875 22.4687 44.975 22.4687 45.1563 22.6562ZM18.375 23.75C18.375 23.7812 18.5 23.8125 18.6563 23.8125C18.8125 23.8125 18.9375 23.8375 18.9375 23.875C18.9375 23.9062 19.025 23.9375 19.125 23.9375C19.2313 23.9375 19.3125 23.9625 19.3125 24C19.3125 24.0312 19.4 24.0625 19.5 24.0625C19.675 24.0625 20 24.2875 20 24.4062C20 24.4312 20.1125 24.5562 20.25 24.6875C20.3875 24.8187 20.5 24.9687 20.5 25.0125C20.5 25.0562 20.5563 25.1375 20.625 25.1875C20.6938 25.2375 20.75 25.325 20.75 25.3875C20.75 25.45 20.7938 25.5 20.8438 25.5C20.9 25.5 20.9375 25.5562 20.9375 25.6562C20.9375 25.7437 20.9688 25.8125 21 25.8125C21.0375 25.8125 21.0625 25.8625 21.0625 25.925C21.0625 25.9875 21.1188 26.075 21.1875 26.125C21.2563 26.175 21.3125 26.2625 21.3125 26.325C21.3125 26.3875 21.3438 26.4375 21.375 26.4375C21.4125 26.4375 21.4375 26.4937 21.4375 26.5625C21.4375 26.6312 21.4688 26.6875 21.5 26.6875C21.5375 26.6875 21.5625 26.7562 21.5625 26.8437C21.5625 26.9312 21.5938 27 21.625 27C21.6625 27 21.6875 27.0562 21.6875 27.125C21.6875 27.1937 21.7188 27.25 21.75 27.25C21.7875 27.25 21.8125 27.3062 21.8125 27.375C21.8125 27.4437 21.8438 27.5 21.875 27.5C21.9125 27.5 21.9375 27.6125 21.9375 27.75C21.9375 27.9312 21.9625 28 22.0313 28C22.1063 28 22.125 28.1187 22.125 28.6875C22.125 29.2562 22.1063 29.375 22.0313 29.375C21.9625 29.375 21.9375 29.4437 21.9375 29.625C21.9375 29.7625 21.9125 29.875 21.875 29.875C21.8438 29.875 21.8125 29.9312 21.8125 30C21.8125 30.0687 21.7875 30.125 21.75 30.125C21.7188 30.125 21.6875 30.225 21.6875 30.3437C21.6875 30.4625 21.6625 30.5625 21.625 30.5625C21.5938 30.5625 21.5625 30.6125 21.5625 30.675C21.5625 30.7375 21.5063 30.825 21.4375 30.875C21.3688 30.925 21.3125 31.0125 21.3125 31.075C21.3125 31.1375 21.2875 31.1875 21.25 31.1875C21.2188 31.1875 21.1875 31.2375 21.1875 31.3C21.1875 31.3625 21.1313 31.45 21.0625 31.5C20.9938 31.55 20.9375 31.6562 20.9375 31.7312C20.9375 31.8125 20.9063 31.875 20.875 31.875C20.8063 31.875 19.875 32.7812 19.875 32.85C19.875 32.9062 19.7063 33.0625 19.6438 33.0625C19.6125 33.0625 19.55 33.1187 19.5 33.1875C19.45 33.2562 19.3625 33.3125 19.3 33.3125C19.2375 33.3125 19.1875 33.3375 19.1875 33.375C19.1875 33.4062 19.1313 33.4375 19.0625 33.4375C18.9938 33.4375 18.9375 33.4625 18.9375 33.5C18.9375 33.5312 18.8813 33.5625 18.8125 33.5625C18.7438 33.5625 18.6875 33.5875 18.6875 33.625C18.6875 33.6562 18.5875 33.6875 18.4688 33.6875C18.35 33.6875 18.25 33.7125 18.25 33.75C18.25 33.7875 18.0813 33.8125 17.875 33.8125C17.6688 33.8125 17.5 33.8375 17.5 33.875C17.5 33.9062 17.4313 33.9375 17.3438 33.9375C17.2563 33.9375 17.1875 33.9062 17.1875 33.875C17.1875 33.8375 17.0188 33.8125 16.8125 33.8125C16.6063 33.8125 16.4375 33.7875 16.4375 33.75C16.4375 33.7125 16.2625 33.6875 16.0313 33.6875C15.8 33.6875 15.625 33.6625 15.625 33.625C15.625 33.5875 15.425 33.5625 15.1563 33.5625C14.8875 33.5625 14.6875 33.5375 14.6875 33.5C14.6875 33.4625 14.5813 33.4375 14.45 33.4375C14.2875 33.4375 14.1875 33.4 14.125 33.3125C14.075 33.2437 13.9875 33.1875 13.925 33.1875C13.8625 33.1875 13.8125 33.1562 13.8125 33.125C13.8125 33.0875 13.7813 33.0625 13.7438 33.0625C13.675 33.0625 13.5 32.9062 13.5 32.8437C13.5 32.825 13.3563 32.6687 13.1875 32.5C13.0188 32.3312 12.875 32.1625 12.875 32.125C12.875 32.0375 12.5875 31.75 12.5 31.75C12.4688 31.75 12.4375 31.6875 12.4375 31.6062C12.4375 31.5312 12.3813 31.425 12.3125 31.375C12.2438 31.325 12.1875 31.2437 12.1875 31.1875C12.1875 31.1312 12.1313 31.05 12.0625 31C11.9938 30.95 11.9375 30.8625 11.9375 30.8C11.9375 30.7375 11.9125 30.6875 11.875 30.6875C11.8438 30.6875 11.8125 30.5875 11.8125 30.4687C11.8125 30.35 11.7875 30.25 11.75 30.25C11.7188 30.25 11.6875 30.1375 11.6875 30C11.6875 29.8625 11.6625 29.75 11.625 29.75C11.5875 29.75 11.5625 29.4875 11.5625 29.0937C11.5625 28.7 11.5375 28.4375 11.5 28.4375C11.4625 28.4375 11.4375 28.2375 11.4375 27.9687C11.4375 27.7 11.4625 27.5 11.5 27.5C11.5375 27.5 11.5625 27.3437 11.5625 27.1562C11.5625 26.9687 11.5938 26.8125 11.625 26.8125C11.6625 26.8125 11.6875 26.725 11.6875 26.625C11.6875 26.5187 11.7188 26.4375 11.75 26.4375C11.7875 26.4375 11.8125 26.3812 11.8125 26.3125C11.8125 26.2437 11.8438 26.1875 11.875 26.1875C11.9125 26.1875 11.9375 26.1375 11.9375 26.075C11.9375 26.0125 11.9938 25.925 12.0625 25.875C12.1313 25.825 12.1875 25.75 12.1875 25.7062C12.1875 25.6625 12.2188 25.625 12.25 25.625C12.2875 25.625 12.3125 25.5812 12.3125 25.525C12.3125 25.4312 12.4563 25.25 12.5313 25.25C12.55 25.25 12.7063 25.1062 12.875 24.9375C13.0438 24.7625 13.2125 24.625 13.25 24.625C13.3375 24.625 13.5 24.4687 13.5 24.3812C13.5 24.3437 13.5688 24.3125 13.6563 24.3125C13.7438 24.3125 13.8125 24.2812 13.8125 24.25C13.8125 24.2125 13.925 24.1875 14.0625 24.1875C14.2 24.1875 14.3125 24.1562 14.3125 24.125C14.3125 24.0875 14.4688 24.0625 14.6563 24.0625C14.8438 24.0625 15 24.0312 15 24C15 23.9625 15.1438 23.9375 15.3125 23.9375C15.4875 23.9375 15.625 23.9062 15.625 23.875C15.625 23.8375 15.7813 23.8125 15.9688 23.8125C16.1563 23.8125 16.3125 23.7812 16.3125 23.75C16.3125 23.7125 16.7 23.6875 17.3438 23.6875C17.9875 23.6875 18.375 23.7125 18.375 23.75ZM34.75 24C34.75 24.0375 34.9875 24.0625 35.3438 24.0625C35.7 24.0625 35.9375 24.0875 35.9375 24.125C35.9375 24.1562 36.0625 24.1875 36.2188 24.1875C36.375 24.1875 36.5 24.2125 36.5 24.25C36.5 24.2812 36.5563 24.3125 36.625 24.3125C36.6938 24.3125 36.75 24.3562 36.75 24.4062C36.75 24.4562 36.7938 24.5 36.8438 24.5C36.9563 24.5 37.375 24.9 37.375 25C37.375 25.075 37.525 25.25 37.5938 25.25C37.675 25.25 38.0625 25.6875 38.0625 25.7875C38.0625 25.8437 38.15 25.9687 38.25 26.0625C38.3563 26.1562 38.4375 26.2812 38.4375 26.3375C38.4375 26.3937 38.4688 26.4375 38.5 26.4375C38.5375 26.4375 38.5625 26.4937 38.5625 26.5625C38.5625 26.6312 38.5938 26.6875 38.625 26.6875C38.6625 26.6875 38.6875 26.7562 38.6875 26.8437C38.6875 26.9437 38.725 27 38.7813 27C38.8438 27 38.875 27.0625 38.875 27.1875C38.875 27.2875 38.9063 27.375 38.9375 27.375C38.975 27.375 39 27.4312 39 27.5C39 27.5687 39.0313 27.625 39.0625 27.625C39.1 27.625 39.125 27.7062 39.125 27.8125C39.125 27.9125 39.1563 28 39.1875 28C39.225 28 39.25 28.1 39.25 28.2187C39.25 28.3375 39.2813 28.4375 39.3125 28.4375C39.35 28.4375 39.375 28.575 39.375 28.75C39.375 28.9187 39.4063 29.0625 39.4375 29.0625C39.475 29.0625 39.5 29.2375 39.5 29.4687C39.5 29.7 39.475 29.875 39.4375 29.875C39.4063 29.875 39.375 30.0312 39.375 30.2187C39.375 30.4062 39.35 30.5625 39.3125 30.5625C39.2813 30.5625 39.25 30.675 39.25 30.8125C39.25 30.95 39.225 31.0625 39.1875 31.0625C39.1563 31.0625 39.125 31.175 39.125 31.3125C39.125 31.45 39.1 31.5625 39.0625 31.5625C39.0313 31.5625 39 31.6625 39 31.7812C39 31.9 38.975 32 38.9375 32C38.9063 32 38.875 32.0562 38.875 32.125C38.875 32.1937 38.8438 32.25 38.8125 32.25C38.725 32.25 38.1875 32.7875 38.1875 32.875C38.1875 32.9062 38.1313 32.9375 38.0625 32.9375C37.9938 32.9375 37.9375 32.9625 37.9375 33C37.9375 33.0312 37.8813 33.0625 37.8125 33.0625C37.7438 33.0625 37.6875 33.0875 37.6875 33.125C37.6875 33.1562 37.6188 33.1875 37.5313 33.1875C37.4438 33.1875 37.375 33.2125 37.375 33.25C37.375 33.2812 37.2938 33.3125 37.1875 33.3125C37.0875 33.3125 37 33.3375 37 33.375C37 33.4062 36.9438 33.4375 36.875 33.4375C36.8063 33.4375 36.75 33.4625 36.75 33.5C36.75 33.5312 36.65 33.5625 36.5313 33.5625C36.4125 33.5625 36.3125 33.5875 36.3125 33.625C36.3125 33.6562 36.2563 33.6875 36.1875 33.6875C36.1188 33.6875 36.0625 33.7125 36.0625 33.75C36.0625 33.7812 35.95 33.8125 35.8125 33.8125C35.675 33.8125 35.5625 33.8375 35.5625 33.875C35.5625 33.9125 35.3625 33.9375 35.0938 33.9375C34.7188 33.9375 34.625 33.9562 34.625 34.0312C34.625 34.1062 34.5188 34.125 34.0313 34.125C33.5438 34.125 33.4375 34.1062 33.4375 34.0312C33.4375 33.9687 33.375 33.9375 33.2625 33.9375C33.1625 33.9375 33.05 33.8875 33 33.8125C32.95 33.7437 32.85 33.6875 32.7813 33.6875C32.7125 33.6875 32.6125 33.6312 32.5625 33.5625C32.5125 33.4937 32.4313 33.4375 32.3875 33.4375C32.3375 33.4375 32.2188 33.35 32.125 33.25C32.0313 33.1437 31.9063 33.0625 31.85 33.0625C31.7938 33.0625 31.75 33.0312 31.75 33C31.75 32.9625 31.7063 32.9375 31.6563 32.9375C31.6063 32.9375 31.5625 32.9062 31.5625 32.8687C31.5625 32.7812 31.4063 32.625 31.3125 32.625C31.225 32.625 30.6875 32.0875 30.6875 32C30.6875 31.9062 30.5313 31.75 30.4438 31.75C30.4063 31.75 30.375 31.7125 30.375 31.6687C30.375 31.625 30.3188 31.55 30.25 31.5C30.1813 31.45 30.125 31.3687 30.125 31.3125C30.125 31.2562 30.0688 31.175 30 31.125C29.9313 31.075 29.875 30.9875 29.875 30.925C29.875 30.8625 29.85 30.8125 29.8125 30.8125C29.7813 30.8125 29.75 30.7562 29.75 30.6875C29.75 30.6187 29.725 30.5625 29.6875 30.5625C29.6563 30.5625 29.625 30.4937 29.625 30.4062C29.625 30.3187 29.6 30.25 29.5625 30.25C29.5313 30.25 29.5 30.1625 29.5 30.0625C29.5 29.9562 29.475 29.875 29.4375 29.875C29.4063 29.875 29.375 29.7875 29.375 29.6875C29.375 29.5625 29.3438 29.5 29.2813 29.5C29.2063 29.5 29.1875 29.4125 29.1875 29.0937C29.1875 28.8625 29.1625 28.6875 29.125 28.6875C29.0875 28.6875 29.0625 28.425 29.0625 28.0312C29.0625 27.6375 29.0875 27.375 29.125 27.375C29.1625 27.375 29.1875 27.175 29.1875 26.9062C29.1875 26.5312 29.2063 26.4375 29.2813 26.4375C29.3313 26.4375 29.375 26.3812 29.375 26.3125C29.375 26.2437 29.4063 26.1875 29.4375 26.1875C29.475 26.1875 29.5 26.1312 29.5 26.0625C29.5 25.9937 29.5313 25.9375 29.5625 25.9375C29.6 25.9375 29.625 25.8812 29.625 25.8125C29.625 25.6437 30.3938 24.875 30.5625 24.875C30.6313 24.875 30.6875 24.8437 30.6875 24.8125C30.6875 24.775 30.7438 24.75 30.8125 24.75C30.8813 24.75 30.9375 24.7187 30.9375 24.6875C30.9375 24.65 30.9938 24.625 31.0625 24.625C31.1313 24.625 31.1875 24.5937 31.1875 24.5625C31.1875 24.525 31.2438 24.5 31.3125 24.5C31.3813 24.5 31.4375 24.4562 31.4375 24.4062C31.4375 24.3375 31.5125 24.3125 31.7188 24.3125C31.875 24.3125 32 24.2812 32 24.25C32 24.2125 32.0875 24.1875 32.1875 24.1875C32.2938 24.1875 32.375 24.1562 32.375 24.125C32.375 24.0875 32.55 24.0625 32.7813 24.0625C33.0125 24.0625 33.1875 24.0375 33.1875 24C33.1875 23.9625 33.4875 23.9375 33.9688 23.9375C34.45 23.9375 34.75 23.9625 34.75 24ZM27.625 27.9062C27.625 28.2187 27.6 28.4375 27.5625 28.4375C27.525 28.4375 27.5 28.7187 27.5 29.1562C27.5 29.5937 27.525 29.875 27.5625 29.875C27.6 29.875 27.625 30.1125 27.625 30.4687C27.625 30.825 27.65 31.0625 27.6875 31.0625C27.725 31.0625 27.75 31.175 27.75 31.3125C27.75 31.45 27.7813 31.5625 27.8125 31.5625C27.85 31.5625 27.875 31.6625 27.875 31.7812C27.875 31.9 27.9063 32 27.9375 32C27.975 32 28 32.0562 28 32.125C28 32.1937 28.0438 32.25 28.0938 32.25C28.1438 32.25 28.1875 32.3062 28.1875 32.375C28.1875 32.4437 28.2188 32.5 28.25 32.5C28.2875 32.5 28.3125 32.5562 28.3125 32.625C28.3125 32.6937 28.3438 32.75 28.375 32.75C28.4125 32.75 28.4375 32.7875 28.4375 32.8312C28.4375 32.875 28.4938 32.95 28.5625 33C28.7188 33.1125 28.7375 33.4375 28.5875 33.4375C28.5313 33.4375 28.4063 33.5187 28.3125 33.625C28.2188 33.725 28.1063 33.8125 28.0688 33.8125C28.0313 33.8125 28 33.8375 28 33.875C28 33.9062 27.9438 33.9375 27.875 33.9375C27.8063 33.9375 27.75 33.9687 27.75 34C27.75 34.0687 26.9688 34.875 26.9063 34.875C26.8438 34.875 26.5625 35.1812 26.5625 35.25C26.5625 35.2812 26.5375 35.3125 26.5 35.3125C26.4688 35.3125 26.4375 35.3562 26.4375 35.4125C26.4375 35.4625 26.3 35.6437 26.125 35.8125C25.9563 35.9812 25.8125 36.1625 25.8125 36.2125C25.8125 36.2687 25.7688 36.3125 25.7188 36.3125C25.6688 36.3125 25.625 36.35 25.625 36.3937C25.625 36.4375 25.5688 36.5125 25.5 36.5625C25.4313 36.6125 25.375 36.6937 25.375 36.75C25.375 36.8062 25.3188 36.8875 25.25 36.9375C25.1813 36.9875 25.125 37.0625 25.125 37.1125C25.125 37.1937 24.9813 37.375 24.9125 37.375C24.8938 37.375 24.875 37.2875 24.875 37.1875C24.875 37.0812 24.85 37 24.8125 37C24.7813 37 24.75 36.9125 24.75 36.8125C24.75 36.7062 24.725 36.625 24.6875 36.625C24.6563 36.625 24.625 36.5562 24.625 36.4687C24.625 36.3812 24.6 36.3125 24.5625 36.3125C24.5313 36.3125 24.5 36.225 24.5 36.125C24.5 36 24.4688 35.9375 24.4063 35.9375C24.3563 35.9375 24.3125 35.8875 24.3125 35.825C24.3125 35.7625 24.2563 35.675 24.1875 35.625C24.1188 35.575 24.0625 35.4875 24.0625 35.425C24.0625 35.3625 24.0375 35.3125 24 35.3125C23.9688 35.3125 23.9375 35.2437 23.9375 35.1562C23.9375 35.0687 23.9125 35 23.875 35C23.8438 35 23.8125 34.95 23.8125 34.8875C23.8125 34.825 23.7563 34.7375 23.6875 34.6875C23.6188 34.6375 23.5625 34.5562 23.5625 34.5C23.5625 34.4437 23.5063 34.3625 23.4375 34.3125C23.3688 34.2625 23.3125 34.1562 23.3125 34.0812C23.3125 34 23.2813 33.9375 23.25 33.9375C23.2125 33.9375 22.9875 33.7375 22.75 33.5C22.5125 33.2562 22.275 33.0625 22.2188 33.0625C22.1688 33.0625 22.125 33.0312 22.125 33C22.125 32.9625 22.0813 32.9375 22.0313 32.9375C21.975 32.9375 21.9375 32.8812 21.9375 32.7812C21.9375 32.6937 21.9688 32.625 22.0063 32.625C22.1 32.625 22.25 32.4625 22.25 32.3625C22.25 32.3125 22.3063 32.2375 22.375 32.1875C22.4438 32.1375 22.5 32.0562 22.5 32C22.5 31.9437 22.5563 31.8625 22.625 31.8125C22.6938 31.7625 22.75 31.6562 22.75 31.5812C22.75 31.5 22.7813 31.4375 22.8125 31.4375C22.85 31.4375 22.875 31.3812 22.875 31.3125C22.875 31.2437 22.9063 31.1875 22.9375 31.1875C22.975 31.1875 23 31.1312 23 31.0625C23 30.9937 23.0313 30.9375 23.0625 30.9375C23.1 30.9375 23.125 30.8812 23.125 30.8125C23.125 30.7437 23.1688 30.6875 23.2188 30.6875C23.275 30.6875 23.3125 30.6312 23.3125 30.5312C23.3125 30.4437 23.3438 30.375 23.375 30.375C23.4125 30.375 23.4375 30.2625 23.4375 30.125C23.4375 29.9875 23.4688 29.875 23.5 29.875C23.5375 29.875 23.5625 29.7625 23.5625 29.625C23.5625 29.4875 23.5938 29.375 23.625 29.375C23.6625 29.375 23.6875 29.1062 23.6875 28.6875C23.6875 28.2687 23.6625 28 23.625 28C23.5938 28 23.5625 27.8875 23.5625 27.75V27.5H25.3438C26.4875 27.5 27.125 27.475 27.125 27.4375C27.125 27.4 27.2375 27.375 27.375 27.375H27.625V27.9062ZM12.0938 33.6562C12.2813 33.8437 12.4375 34.025 12.4375 34.0625C12.4375 34.0937 12.4813 34.125 12.5313 34.125C12.5813 34.125 12.625 34.15 12.625 34.1875C12.625 34.2187 12.675 34.25 12.7375 34.25C12.8 34.25 12.8875 34.3062 12.9375 34.375C12.9875 34.4437 13.075 34.5 13.1375 34.5C13.2 34.5 13.25 34.525 13.25 34.5625C13.25 34.5937 13.3063 34.625 13.375 34.625C13.4438 34.625 13.5 34.65 13.5 34.6875C13.5 34.7187 13.6 34.75 13.7188 34.75C13.8375 34.75 13.9375 34.775 13.9375 34.8125C13.9375 34.8437 14.05 34.875 14.1875 34.875C14.325 34.875 14.4375 34.9 14.4375 34.9375C14.4375 34.9687 14.5625 35 14.7188 35C14.875 35 15 35.025 15 35.0625C15 35.0937 15.1125 35.125 15.25 35.125C15.4313 35.125 15.5 35.15 15.5 35.2187C15.5 35.2937 15.6125 35.3125 16.1563 35.3125C16.55 35.3125 16.8125 35.3375 16.8125 35.375C16.8125 35.4125 17.05 35.4375 17.4063 35.4375C17.7625 35.4375 18 35.4125 18 35.375C18 35.3375 18.125 35.3125 18.2813 35.3125C18.4875 35.3125 18.5625 35.2875 18.5625 35.2187C18.5625 35.1562 18.625 35.125 18.75 35.125C18.8563 35.125 18.9375 35.0937 18.9375 35.0625C18.9375 35.025 19.025 35 19.125 35C19.2313 35 19.3125 34.9687 19.3125 34.9375C19.3125 34.9 19.3688 34.875 19.4375 34.875C19.5063 34.875 19.5625 34.8437 19.5625 34.8125C19.5625 34.775 19.6313 34.75 19.7188 34.75C19.8063 34.75 19.875 34.7187 19.875 34.6875C19.875 34.65 19.925 34.625 19.9875 34.625C20.05 34.625 20.1375 34.5687 20.1875 34.5C20.2375 34.4312 20.3125 34.375 20.3625 34.375C20.4563 34.375 20.75 34.0937 20.75 34C20.75 33.9687 20.7813 33.9375 20.8188 33.9375C20.8563 33.9375 20.9688 33.85 21.0625 33.75C21.2313 33.5687 21.4375 33.5 21.4375 33.625C21.4375 33.6562 21.4813 33.6875 21.5313 33.6875C21.6438 33.6875 21.9375 33.9562 21.9375 34.0625C21.9375 34.0937 21.9688 34.125 22.0063 34.125C22.1063 34.125 22.25 34.2875 22.25 34.4C22.25 34.4562 22.2813 34.5 22.3125 34.5C22.35 34.5 22.375 34.5562 22.375 34.625C22.375 34.6937 22.4063 34.75 22.4375 34.75C22.475 34.75 22.5 34.8062 22.5 34.875C22.5 34.9437 22.5313 35 22.5625 35C22.6 35 22.625 35.0687 22.625 35.1562C22.625 35.2437 22.6563 35.3125 22.6875 35.3125C22.725 35.3125 22.75 35.3687 22.75 35.4375C22.75 35.5062 22.7813 35.5625 22.8125 35.5625C22.85 35.5625 22.875 35.6187 22.875 35.6875C22.875 35.7562 22.9063 35.8125 22.9375 35.8125C22.975 35.8125 23 35.8937 23 36C23 36.1 23.0313 36.1875 23.0625 36.1875C23.1 36.1875 23.125 36.2875 23.125 36.4062C23.125 36.5562 23.1563 36.625 23.2188 36.625C23.2813 36.625 23.3125 36.6875 23.3125 36.8125C23.3125 36.9125 23.3438 37 23.375 37C23.4125 37 23.4375 37.1125 23.4375 37.25C23.4375 37.3875 23.4688 37.5 23.5 37.5C23.5375 37.5 23.5625 37.625 23.5625 37.7812C23.5625 37.9375 23.5938 38.0625 23.625 38.0625C23.6625 38.0625 23.6875 38.2 23.6875 38.375C23.6875 38.5437 23.7188 38.6875 23.75 38.6875C23.7875 38.6875 23.8125 38.8437 23.8125 39.0312C23.8125 39.2187 23.8438 39.375 23.875 39.375C23.9125 39.375 23.9375 39.4875 23.9375 39.625C23.9375 39.7625 23.9688 39.875 24 39.875C24.0375 39.875 24.0625 39.975 24.0625 40.0937C24.0625 40.2125 24.0938 40.3125 24.125 40.3125C24.1625 40.3125 24.1875 40.675 24.1875 41.2812C24.1875 41.8875 24.1625 42.25 24.125 42.25C24.0875 42.25 24.0625 42.5187 24.0625 42.9375V43.625H23.75C23.5813 43.625 23.4375 43.65 23.4375 43.6875C23.4375 43.725 23.2375 43.75 22.9688 43.75C22.7 43.75 22.5 43.775 22.5 43.8125C22.5 43.85 22.1688 43.875 21.625 43.875C21.0813 43.875 20.75 43.85 20.75 43.8125C20.75 43.775 20.0313 43.75 18.7188 43.75C17.4063 43.75 16.6875 43.775 16.6875 43.8125C16.6875 43.85 16.3625 43.875 15.8438 43.875C15.325 43.875 15 43.9 15 43.9375C15 43.975 14.5813 44 13.875 44C13.1688 44 12.75 44.025 12.75 44.0625C12.75 44.1 12.0188 44.125 10.6875 44.125C9.35625 44.125 8.625 44.15 8.625 44.1875C8.625 44.225 8.3875 44.25 8.03125 44.25C7.675 44.25 7.4375 44.275 7.4375 44.3125C7.4375 44.4062 7.25625 44.3875 7.15 44.2875C7.05 44.1812 7.025 43.625 7.125 43.625C7.1625 43.625 7.1875 43.4062 7.1875 43.0937C7.1875 42.7812 7.2125 42.5625 7.25 42.5625C7.2875 42.5625 7.3125 42.3875 7.3125 42.1562C7.3125 41.925 7.3375 41.75 7.375 41.75C7.4125 41.75 7.4375 41.5937 7.4375 41.4062C7.4375 41.2187 7.46875 41.0625 7.5 41.0625C7.5375 41.0625 7.5625 40.95 7.5625 40.8125C7.5625 40.675 7.59375 40.5625 7.625 40.5625C7.6625 40.5625 7.6875 40.475 7.6875 40.375C7.6875 40.25 7.71875 40.1875 7.78125 40.1875C7.84375 40.1875 7.875 40.1187 7.875 39.9687C7.875 39.85 7.90625 39.75 7.9375 39.75C7.975 39.75 8 39.6625 8 39.5625C8 39.4562 8.03125 39.375 8.0625 39.375C8.1 39.375 8.125 39.3187 8.125 39.25C8.125 39.1812 8.15625 39.125 8.1875 39.125C8.225 39.125 8.25 39.025 8.25 38.9062C8.25 38.7875 8.28125 38.6875 8.3125 38.6875C8.35 38.6875 8.375 38.6312 8.375 38.5625C8.375 38.4937 8.40625 38.4375 8.4375 38.4375C8.475 38.4375 8.5 38.3812 8.5 38.3125C8.5 38.2437 8.53125 38.1875 8.5625 38.1875C8.6 38.1875 8.625 38.1312 8.625 38.0625C8.625 37.9937 8.65625 37.9375 8.6875 37.9375C8.725 37.9375 8.75 37.8375 8.75 37.7187C8.75 37.6 8.78125 37.5 8.8125 37.5C8.85 37.5 8.875 37.4437 8.875 37.375C8.875 37.3062 8.91875 37.25 8.96875 37.25C9.01875 37.25 9.0625 37.1937 9.0625 37.125C9.0625 37.0562 9.09375 37 9.125 37C9.1625 37 9.1875 36.9437 9.1875 36.875C9.1875 36.8062 9.21875 36.75 9.25 36.75C9.2875 36.75 9.3125 36.6937 9.3125 36.625C9.3125 36.5562 9.34375 36.5 9.375 36.5C9.4125 36.5 9.4375 36.4375 9.4375 36.3562C9.4375 36.2812 9.49375 36.175 9.5625 36.125C9.63125 36.075 9.6875 35.9875 9.6875 35.925C9.6875 35.8625 9.71875 35.8125 9.75 35.8125C9.7875 35.8125 9.8125 35.7625 9.8125 35.7C9.8125 35.6375 9.86875 35.55 9.9375 35.5C10.0063 35.45 10.0625 35.3437 10.0625 35.2687C10.0625 35.1875 10.0938 35.125 10.125 35.125C10.2188 35.125 10.5 34.8312 10.5 34.7375C10.5 34.6875 10.5563 34.6125 10.625 34.5625C10.6938 34.5125 10.75 34.4312 10.75 34.375C10.75 34.3187 10.8063 34.2375 10.875 34.1875C10.9438 34.1375 11 34.0687 11 34.0312C11 33.9937 11.0563 33.925 11.125 33.875C11.1938 33.825 11.25 33.7375 11.25 33.675C11.25 33.6125 11.2875 33.5625 11.3313 33.5625C11.375 33.5625 11.45 33.5062 11.5 33.4375C11.6375 33.25 11.7188 33.2812 12.0938 33.6562ZM39.1875 34.5C39.2375 34.5687 39.325 34.625 39.3875 34.625C39.45 34.625 39.5 34.65 39.5 34.6875C39.5 34.7187 39.5875 34.75 39.6875 34.75C39.7938 34.75 39.875 34.775 39.875 34.8125C39.875 34.8437 39.9063 34.875 39.9438 34.875C40.05 34.875 40.1875 35.0437 40.1875 35.1687C40.1875 35.2312 40.2438 35.325 40.3125 35.375C40.3813 35.425 40.4375 35.5125 40.4375 35.575C40.4375 35.6375 40.4688 35.6875 40.5 35.6875C40.5375 35.6875 40.5625 35.7437 40.5625 35.8125C40.5625 35.8812 40.5938 35.9375 40.625 35.9375C40.6625 35.9375 40.6875 35.9937 40.6875 36.0625C40.6875 36.1312 40.7188 36.1875 40.75 36.1875C40.7875 36.1875 40.8125 36.2875 40.8125 36.4062C40.8125 36.525 40.8438 36.625 40.875 36.625C40.9125 36.625 40.9375 36.7062 40.9375 36.8125C40.9375 36.9125 40.9688 37 41 37C41.0375 37 41.0625 37.1125 41.0625 37.25C41.0625 37.4312 41.0875 37.5 41.1563 37.5C41.2313 37.5 41.25 37.5875 41.25 37.9062C41.25 38.1375 41.275 38.3125 41.3125 38.3125C41.35 38.3125 41.375 38.5125 41.375 38.7812C41.375 39.05 41.4 39.25 41.4375 39.25C41.475 39.25 41.5 39.75 41.5 40.625C41.5 41.5 41.475 42 41.4375 42C41.4063 42 41.375 42.125 41.375 42.2812C41.375 42.4375 41.35 42.5625 41.3125 42.5625C41.2813 42.5625 41.25 42.675 41.25 42.8125C41.25 42.9937 41.225 43.0625 41.1563 43.0625C41.0938 43.0625 41.0625 43.125 41.0625 43.25C41.0625 43.35 41.0375 43.4375 41 43.4375C40.9688 43.4375 40.9375 43.5375 40.9375 43.6562C40.9375 43.775 40.9125 43.875 40.875 43.875C40.8438 43.875 40.8125 43.9312 40.8125 44C40.8125 44.0687 40.7875 44.125 40.75 44.125C40.7188 44.125 40.6875 44.2062 40.6875 44.3C40.6875 44.4 40.6375 44.5125 40.5625 44.5625C40.4938 44.6125 40.4375 44.6875 40.4375 44.7312C40.4375 44.775 40.3813 44.8125 40.3125 44.8125C40.2438 44.8125 40.1875 44.7687 40.1875 44.7187C40.1875 44.6375 40.0438 44.625 39.25 44.625C38.4563 44.625 38.3125 44.6375 38.3125 44.7187C38.3125 44.8 38.125 44.8125 37 44.8125C35.875 44.8125 35.6875 44.8 35.6875 44.7187C35.6875 44.6375 35.2938 44.625 32.5313 44.625C30.4688 44.625 29.375 44.6062 29.375 44.5625C29.375 44.525 29.2 44.5 28.9688 44.5C28.7375 44.5 28.5625 44.525 28.5625 44.5625C28.5625 44.6 28.0625 44.625 27.1875 44.625C26.3125 44.625 25.8125 44.6 25.8125 44.5625C25.8125 44.525 25.7688 44.5 25.7188 44.5C25.65 44.5 25.625 44.425 25.625 44.1875C25.625 43.95 25.65 43.875 25.7188 43.875C25.8 43.875 25.8125 43.6687 25.8125 42.4062C25.8125 41.1437 25.8 40.9375 25.7188 40.9375C25.6438 40.9375 25.625 40.8312 25.625 40.3437C25.625 39.8562 25.6438 39.75 25.7188 39.75C25.7688 39.75 25.8125 39.6937 25.8125 39.625C25.8125 39.5562 25.8438 39.5 25.875 39.5C25.9125 39.5 25.9375 39.4437 25.9375 39.375C25.9375 39.3062 25.9688 39.25 26 39.25C26.0375 39.25 26.0625 39.2 26.0625 39.1375C26.0625 39.075 26.1188 38.9875 26.1875 38.9375C26.2563 38.8875 26.3125 38.7812 26.3125 38.7062C26.3125 38.625 26.3438 38.5625 26.375 38.5625C26.4125 38.5625 26.4375 38.5187 26.4375 38.4625C26.4375 38.4062 26.525 38.2812 26.625 38.1875C26.7313 38.0937 26.8125 37.9687 26.8125 37.9125C26.8125 37.8562 26.8438 37.8125 26.8813 37.8125C26.95 37.8125 27.125 37.6562 27.125 37.5937C27.125 37.5687 27.2375 37.4437 27.375 37.3125C27.5125 37.1812 27.625 37.0437 27.625 37C27.625 36.9125 28.0375 36.5 28.125 36.5C28.1563 36.5 28.1875 36.4687 28.1875 36.4375C28.1875 36.35 28.475 36.0625 28.5625 36.0625C28.6 36.0625 28.7688 35.9187 28.9375 35.75C29.1063 35.575 29.2625 35.4375 29.2813 35.4375C29.3438 35.4375 29.5 35.2625 29.5 35.1937C29.5 35.1562 29.5438 35.125 29.6 35.125C29.65 35.125 29.8063 35.0125 29.9375 34.875C30.1625 34.6375 30.375 34.55 30.375 34.6875C30.375 34.7187 30.4438 34.75 30.5313 34.75C30.6188 34.75 30.6875 34.775 30.6875 34.8125C30.6875 34.8437 30.8 34.875 30.9375 34.875C31.075 34.875 31.1875 34.9 31.1875 34.9375C31.1875 34.9687 31.3438 35 31.5313 35C31.7188 35 31.875 35.025 31.875 35.0625C31.875 35.0937 31.9625 35.125 32.0625 35.125C32.1875 35.125 32.25 35.1562 32.25 35.2187C32.25 35.2812 32.3125 35.3125 32.4375 35.3125C32.5438 35.3125 32.625 35.3375 32.625 35.375C32.625 35.4062 32.6938 35.4375 32.7813 35.4375C32.8688 35.4375 32.9375 35.4625 32.9375 35.5C32.9375 35.5312 33.0813 35.5625 33.25 35.5625C33.425 35.5625 33.5625 35.5875 33.5625 35.625C33.5625 35.6625 33.825 35.6875 34.2188 35.6875C34.6125 35.6875 34.875 35.6625 34.875 35.625C34.875 35.5875 35.0938 35.5625 35.4063 35.5625C35.7188 35.5625 35.9375 35.5375 35.9375 35.5C35.9375 35.4625 36.0938 35.4375 36.2813 35.4375C36.4688 35.4375 36.625 35.4062 36.625 35.375C36.625 35.3375 36.7125 35.3125 36.8125 35.3125C36.9375 35.3125 37 35.2812 37 35.2187C37 35.1687 37.0563 35.125 37.125 35.125C37.1938 35.125 37.25 35.0937 37.25 35.0625C37.25 35.025 37.35 35 37.4688 35C37.5875 35 37.6875 34.9687 37.6875 34.9375C37.6875 34.9 37.775 34.875 37.875 34.875C37.9813 34.875 38.0625 34.8437 38.0625 34.8125C38.0625 34.775 38.1188 34.75 38.1875 34.75C38.2563 34.75 38.3125 34.7187 38.3125 34.6875C38.3125 34.65 38.3688 34.625 38.4375 34.625C38.5063 34.625 38.5625 34.5937 38.5625 34.5625C38.5625 34.525 38.6313 34.5 38.7188 34.5C38.8063 34.5 38.875 34.4687 38.875 34.4375C38.875 34.325 39.0938 34.3687 39.1875 34.5Z" fill="#334155"/>
</svg>
