<svg width="50" height="50" viewBox="0 0 50 50" fill="none" xmlns="http://www.w3.org/2000/svg">
<g clip-path="url(#clip0_2165_1624)">
<mask id="mask0_2165_1624" style="mask-type:luminance" maskUnits="userSpaceOnUse" x="0" y="0" width="50" height="50">
<path d="M49.9304 0.625H0.24292V49.375H49.9304V0.625Z" fill="white"/>
</mask>
<g mask="url(#mask0_2165_1624)">
<path d="M0.366672 34.4202C0.366672 31.6405 0.313544 28.8595 0.385337 26.0818C0.432794 24.2486 0.728278 22.4221 0.779587 20.5889C0.808587 19.5506 1.20548 18.8348 1.95302 18.182C4.01615 16.3791 6.04159 14.5329 8.09662 12.7204C8.4344 12.4315 8.64868 12.024 8.69531 11.5816C9.15731 8.64382 10.3881 6.14788 13.0354 4.57081C14.5627 3.66143 16.2042 3.16455 18.0063 3.56531C18.5912 3.69531 19.0654 3.53044 19.5679 3.2158C20.5948 2.57251 21.6451 1.95739 22.7279 1.41525C24.5836 0.485954 26.4609 0.447968 28.3117 1.47456C28.8575 1.77742 29.4215 2.05115 29.9486 2.38367C30.253 2.5824 30.5984 2.70902 30.959 2.75401C31.3193 2.79899 31.6853 2.761 32.0293 2.64313C33.4703 2.21481 35.0081 2.24247 36.4328 2.72208C38.6093 3.43871 39.9972 4.97663 40.7556 7.06091C41.1181 8.05622 41.2481 9.14547 41.3865 10.2048C41.4162 10.6517 41.6184 11.0693 41.9512 11.3688C44.0422 13.2434 46.0753 15.186 48.2237 16.9916C49.4609 18.031 49.7672 19.3416 49.75 20.7901C49.7156 23.7044 49.5922 26.6174 49.5268 29.5315C49.4443 33.2443 49.4278 36.9593 49.2903 40.6699C49.2334 42.1255 49.0409 43.5727 48.715 44.9924C48.1756 47.3515 47.1197 48.3908 44.3481 48.7158C42.7628 48.8674 41.1703 48.9343 39.5778 48.9155C35.9693 48.9496 32.36 48.8993 28.7524 48.9662C26.5052 49.0068 24.2607 49.2058 22.0144 49.3221C21.4263 49.3527 20.8351 49.344 20.2455 49.344C16.4983 49.344 12.7504 49.3805 9.00422 49.3224C7.51675 49.2771 6.03347 49.1402 4.56275 48.9127C2.76771 48.6615 1.45331 47.703 0.939194 45.9087C0.614228 44.8868 0.416703 43.829 0.351075 42.7587C0.269952 39.9815 0.323472 37.2002 0.323472 34.4208L0.366672 34.4202ZM34.1284 32.0468C33.734 32.3052 33.4187 32.5124 33.1031 32.718C30.5144 34.4015 27.926 36.0852 25.3376 37.7687C24.6602 38.2099 23.9835 38.4696 23.2152 37.9543C21.1703 36.5818 19.1115 35.2296 17.0702 33.8508C16.3906 33.3921 15.7481 32.8783 15.1192 32.4127C13.5028 33.748 4.53943 44.8658 4.18553 46.0062C4.67753 46.1327 5.1604 46.3352 5.65565 46.3718C7.93397 46.538 10.2155 46.759 12.4969 46.7705C16.1359 46.7887 19.7757 46.6558 23.4152 46.5868C23.4846 46.5855 23.5539 46.5812 23.6231 46.578C26.5638 46.4543 29.5045 46.2715 32.4453 46.2205C36.1575 46.1558 39.8718 46.2037 43.585 46.1874C44.0484 46.1852 44.5115 46.0887 45.14 46.0171L34.1284 32.0468ZM26.1282 22.8397C28.559 20.971 30.8811 19.2108 33.175 17.4143C34.7125 16.2104 36.0972 14.8453 37.1637 13.1925C38.5359 11.065 38.5372 8.59285 37.1912 6.74035C36.9393 6.36216 36.6075 6.0441 36.2187 5.80922C35.8303 5.57431 35.3947 5.42828 34.9431 5.38135C34.1912 5.31431 33.3815 5.26172 32.6715 5.46566C28.8818 6.55622 26.3612 8.95244 25.3889 12.8561C25.2784 13.3281 25.136 13.7919 24.963 14.2447C24.8008 14.6489 24.4248 14.757 24.0161 14.7495C23.8227 14.7568 23.6328 14.6962 23.4793 14.5783C23.3256 14.4604 23.2179 14.2927 23.1745 14.1038C23.1037 13.8724 23.0575 13.6341 23.037 13.3929C22.8398 10.9198 21.6487 8.97306 19.7643 7.4616C18.2136 6.21828 16.0549 6.23372 14.4213 7.36756C11.4332 9.44106 11.0333 13.9345 13.3359 16.7088C15.0052 18.7197 17.1892 20.0158 19.5866 20.8923C21.694 21.6638 23.8922 22.1852 26.1282 22.8397ZM40.6553 13.9922C39.6503 15.2899 38.8237 16.493 37.8603 17.574C35.7465 19.9461 33.219 21.8538 30.6568 23.7032C29.5252 24.5017 28.3527 25.24 27.144 25.9156C26.7516 26.1338 26.2977 26.2154 25.8539 26.1476C22.0264 25.3806 18.3022 24.2913 14.947 22.2169C12.889 20.9446 11.0692 19.4017 9.88153 17.2348C9.60287 16.727 9.39178 16.1806 9.07943 15.4991L4.11068 19.7334C4.33622 20.0798 4.58809 20.4082 4.86409 20.7157C5.69681 21.4995 6.52306 22.298 7.41947 23.0061C10.4398 25.395 13.4447 27.8079 16.5419 30.0939C18.9385 31.8627 21.4648 33.4552 23.8472 35.0677C26.4279 34.0296 44.7306 20.6423 45.8731 19.009L40.6553 13.9922ZM46.1665 42.4796L46.3868 42.4202C46.5693 35.734 46.7518 29.048 46.9393 22.1572L36.2037 30.4415C39.6775 34.4683 42.6137 38.729 46.1665 42.4796ZM12.6817 30.556L3.14328 22.6378C3.1285 22.9654 3.09603 23.2959 3.10111 23.6256C3.15872 27.4058 3.23393 31.1857 3.27956 34.9662C3.30675 37.2224 3.28709 39.479 3.29725 41.7355C3.31325 41.9858 3.34475 42.2346 3.39153 42.4812L12.6817 30.556ZM21.6311 5.11594C22.1901 5.72206 22.6592 6.18175 23.069 6.68956C23.4892 7.20956 23.8514 7.77656 24.1883 8.25188C25.423 6.93156 26.5873 5.68669 27.7374 4.45638C26.5157 3.35949 25.1782 3.30716 23.7776 3.97078C23.0954 4.29353 22.4423 4.67985 21.6311 5.11513V5.11594Z" fill="#334155"/>
</g>
</g>
<defs>
<clipPath id="clip0_2165_1624">
<rect width="50" height="50" fill="white"/>
</clipPath>
</defs>
</svg>
