<svg width="50" height="50" viewBox="0 0 50 50" fill="none" xmlns="http://www.w3.org/2000/svg">
<path d="M9.4875 2.56884C8.94375 2.85009 8.55 3.46259 8.3125 4.40009L8.2 4.84384L7.36875 4.95009C6.43125 5.07509 5.96875 5.21259 5.36875 5.56259C4.35 6.16259 4.0625 6.74384 4.0625 8.21259C4.0625 9.02509 3.9125 11.2188 3.78125 12.3938C3.725 12.8501 3.65625 13.9751 3.625 14.9063C3.59375 15.8313 3.50625 17.1813 3.4375 17.9063C3.34375 18.9001 3.3125 19.6813 3.3125 21.1626C3.3125 23.2688 3.34375 23.5688 3.69375 24.9563C4.08125 26.5063 4.43125 27.1813 5.05625 27.6313C5.73125 28.1188 6.2125 28.1751 10.3438 28.3126C13.2188 28.4063 14.4188 28.4876 16.1875 28.7001C18.2188 28.9438 19.7875 28.9938 21.1 28.8501C21.6125 28.7938 22.1875 28.7438 22.375 28.7313L22.7188 28.7188L22.7125 29.8438C22.7125 30.4626 22.6688 32.1626 22.6313 33.6251C22.5438 36.3876 22.5563 36.7126 22.8188 39.4376C22.9438 40.7438 23.2313 41.4876 23.9688 42.4188C24.4625 43.0501 24.8438 43.3376 25.3438 43.4626C25.8375 43.5876 30.1438 43.6626 34.8563 43.6313L38.3063 43.6126L38.4688 43.9438C38.6875 44.3751 39.225 44.9001 39.6375 45.0938C40.05 45.2876 40.4875 45.2938 40.875 45.1188C41.2625 44.9438 41.4563 44.7438 41.8563 44.0938C42.2313 43.4876 42.275 43.4376 42.4688 43.4376C42.7188 43.4376 44.2313 42.9813 44.6563 42.7813C45.1938 42.5251 45.8438 41.9438 46.0813 41.5188C46.5375 40.6751 46.6438 39.3063 46.6063 34.8313C46.5875 31.8501 46.5625 31.1626 46.4188 29.5001C46.3313 28.4501 46.2438 27.1438 46.2188 26.5938C46.1313 24.2813 45.9063 22.9188 45.475 22.0438C44.6313 20.3313 43.3438 19.4938 41.125 19.2188C39.8875 19.0688 38.7625 19.0501 34.5313 19.1188C30.0875 19.1938 29.2625 19.2376 27.6 19.4813L27.3625 19.5188L27.4063 18.8376C27.425 18.4626 27.4875 17.7501 27.5375 17.2563C27.6375 16.2313 27.6563 13.1688 27.5625 11.9251C27.475 10.7126 27.0813 8.90634 26.75 8.19384C26.4813 7.61884 26.1688 7.23134 25.6 6.74384C25.0688 6.29384 24.825 6.15009 24.0938 5.88759C23.7 5.74384 23.5563 5.72509 22.6875 5.71884C20.8563 5.70634 18.7188 5.61884 17.6875 5.51884C16.95 5.45009 16.3125 5.43134 15.4375 5.45634C14.3 5.48759 13.6938 5.44384 12.8938 5.27509C12.7938 5.25634 12.6875 5.12509 12.5563 4.86259C12.0188 3.79384 11.1563 2.73759 10.6563 2.53134C10.3438 2.40009 9.76875 2.41884 9.4875 2.56884ZM10.4313 6.15634C10.6625 6.55634 10.8688 6.75009 11.375 7.03134C12.0813 7.43134 12.3313 7.50009 13.375 7.59384C14.7063 7.70634 17.4813 7.78759 18.875 7.75009C20.4625 7.70634 21.3875 7.71259 22.7938 7.78759L23.9938 7.84384L24.3563 8.10009C24.9 8.48134 25.125 8.96884 25.4188 10.3751L25.6438 11.4688L25.675 13.6813C25.6938 15.6126 25.6813 16.0313 25.5688 16.9938C25.5 17.6001 25.425 18.5876 25.4063 19.1876C25.375 20.2251 25.3625 20.2876 25.2313 20.3751C24.5 20.8688 24.0875 21.5688 23.6938 22.9688C23.1438 24.9376 22.9375 25.7376 22.8688 26.1376C22.8313 26.3938 22.7688 26.5688 22.7125 26.5876C22.5938 26.6313 21.7625 26.7251 20.5813 26.8188C19.4313 26.9126 18.7313 26.8751 16.7688 26.6313C14.4313 26.3376 13.3125 26.2626 8.825 26.1251C7.675 26.0876 6.65625 26.0438 6.55625 26.0188C6.175 25.9438 5.98125 25.5313 5.64375 24.0938C5.5 23.4563 5.48125 23.2626 5.45625 21.5313C5.43125 19.9626 5.45 19.4001 5.55625 18.1563C5.625 17.3313 5.73125 15.9938 5.78125 15.1876C5.83125 14.3813 5.94375 13.0876 6.025 12.3126C6.15625 11.1063 6.28125 9.33759 6.33125 7.88134L6.34375 7.47509L6.625 7.33134C6.81875 7.23134 7.14375 7.15634 7.65625 7.09384C8.9375 6.92509 9 6.88759 9.65 5.93759L9.95625 5.48759L10.1 5.66259C10.1813 5.76259 10.3313 5.98134 10.4313 6.15634ZM40.6563 21.2563C41.6938 21.3563 42.4875 21.6188 43.0313 22.0376C43.2875 22.2313 43.7563 22.9626 43.8938 23.3813C44.0938 23.9813 44.225 25.1563 44.375 27.8126C44.4063 28.4126 44.4938 29.5688 44.575 30.3751C44.8125 32.9438 44.7625 39.4376 44.4938 40.5126C44.4313 40.7501 44.1063 41.0876 43.8188 41.2001C43.4063 41.3626 42.35 41.6251 42.1188 41.6251C41.975 41.6251 41.7688 41.6688 41.65 41.7251C41.3563 41.8688 40.8125 42.4688 40.5313 42.9688C40.2625 43.4563 40.2688 43.4563 39.8875 42.7813C39.6875 42.4251 39.5875 42.3188 39.3438 42.1938C39.0688 42.0501 38.9813 42.0376 37.7 42.0126C36.95 42.0001 35.7563 42.0126 35.0313 42.0501C33.5938 42.1188 31.1375 42.0688 28.4375 41.9188C27.525 41.8688 26.5625 41.8313 26.2875 41.8376L25.8 41.8438L25.525 41.5376C24.9063 40.8376 24.775 40.3813 24.5563 38.2188C24.4313 37.0126 24.4125 36.5626 24.425 34.5626C24.4313 33.3063 24.4688 32.0126 24.5 31.6876C24.5938 30.8188 24.6875 28.8438 24.6875 27.8751C24.6875 26.5688 24.85 25.8126 25.6313 23.4563C26.0188 22.2876 26.2063 22.0938 27.3438 21.7313C28.4688 21.3688 29.1563 21.3188 33.8063 21.2501C35.9125 21.2188 37.6563 21.1751 37.6813 21.1563C37.7313 21.1001 39.825 21.1751 40.6563 21.2563Z" fill="#334155"/>
<path d="M14.55 9.41267C14.2688 9.56267 14.1875 9.80017 14.1875 10.4877C14.1875 11.0189 14.1625 11.1752 13.9938 11.6314C13.8875 11.9189 13.7313 12.2314 13.6438 12.3252L13.4813 12.4939L12.7563 12.4564C11.575 12.4002 10.7688 12.5814 10.5625 12.9502C10.4813 13.1002 10.4813 13.1377 10.575 13.3377C10.8375 13.8877 11.675 14.0189 15.425 14.1002C17.6875 14.1502 17.4875 14.0564 17.1875 14.9377C16.975 15.5814 16.4625 16.6252 16.1125 17.1502C15.8563 17.5189 14.8563 18.7127 14.6688 18.8689C14.525 18.9814 14.4688 18.9314 13.6563 17.9377C12.8938 17.0002 12.025 16.1627 11.7188 16.0627C10.9 15.7939 10.475 16.5939 10.9563 17.4939C11.0625 17.7064 11.5875 18.4002 12.1125 19.0377L13.0688 20.1939L12.925 20.3189C12.8438 20.3814 12.5438 20.6002 12.25 20.7939C11.9563 20.9877 11.6125 21.2127 11.4875 21.2939C11.175 21.5064 10.9375 21.8627 10.9375 22.1314C10.9375 22.3939 11.15 22.6252 11.525 22.7814C12.1188 23.0314 13.0313 22.6127 14.1125 21.6064C14.4375 21.3064 14.4438 21.3002 14.6063 21.4064C14.8875 21.5939 16.075 22.2502 16.5313 22.4689C17.4438 22.9127 18.3938 22.8377 18.5875 22.3002C18.75 21.8439 18.3563 21.4314 17 20.6689C16.4313 20.3502 15.9688 20.0564 15.9688 20.0189C15.9688 19.9814 16.2063 19.6814 16.5 19.3439C17.2313 18.5064 17.5125 18.0939 17.9438 17.2127C18.4625 16.1377 18.6875 15.4377 18.7375 14.7002L18.7813 14.0939L19.6938 14.0564C20.825 14.0064 21.1063 13.9689 21.3563 13.8127C21.7875 13.5502 21.7438 12.9439 21.275 12.7189C21.05 12.6064 20.825 12.6002 18.1188 12.5939C16.5188 12.5877 15.1813 12.5627 15.1438 12.5439C15.1 12.5189 15.15 12.3564 15.2875 12.1064C15.4 11.8877 15.5375 11.5439 15.5938 11.3439C15.7125 10.8752 15.7188 10.0627 15.6 9.78142C15.4313 9.38142 14.925 9.20642 14.55 9.41267Z" fill="#334155"/>
<path d="M35.3875 25.8813C35.1375 25.9313 34.775 26.175 34.2938 26.625C33.9188 26.9688 32.725 28.675 32.0063 29.9C31.0063 31.5938 29.8688 34.3313 29.6813 35.4875C29.575 36.1125 29.675 36.5438 29.975 36.8063C30.0938 36.9125 30.2313 37 30.275 37C30.4375 37 30.6188 36.7813 30.75 36.4375C30.8188 36.25 31.125 35.5813 31.425 34.9563L31.9688 33.8188L32.4688 33.85C32.775 33.875 33.275 33.85 33.75 33.7875C34.9063 33.6375 36.0438 33.6063 36.8438 33.7L37.525 33.7813L38.0375 35.1125C38.3188 35.8438 38.6188 36.5438 38.7125 36.675C39.0313 37.1375 39.575 37.3063 40.0375 37.0875C40.475 36.8813 40.675 36.3438 40.5563 35.7063C40.4688 35.25 39.9438 33.7625 39.4188 32.5C38.5813 30.4813 36.7188 26.6313 36.4063 26.2625C36.1313 25.9375 35.7688 25.8 35.3875 25.8813ZM35.8813 29.9188L36.5375 31.4688L35.8188 31.5125C34.9188 31.5688 33.7063 31.8188 32.9875 32.0938C32.925 32.1188 32.875 32.1125 32.875 32.0813C32.875 32 33.9125 30.2 34.2875 29.625C34.8688 28.7438 35.1313 28.375 35.175 28.375C35.2 28.375 35.5188 29.0688 35.8813 29.9188Z" fill="#334155"/>
<path d="M31.3125 5.45626C30.825 5.63126 30.2625 5.97501 29.375 6.61876C28.2313 7.45001 28.0125 7.75626 28.1813 8.31251C28.2875 8.66876 28.6688 9.05001 29.6438 9.78751C30.1313 10.1563 30.6813 10.6 30.8688 10.7625C31.5063 11.3375 31.825 11.3938 32.525 11.0563C33.1688 10.7438 33.2125 10.6563 33.25 9.66876L33.2813 8.84376H33.7813C34.725 8.85001 35.3688 9.30001 36.4188 10.6875C36.825 11.225 38.4813 13.7813 39.2938 15.125C39.7063 15.8 39.9688 16.0625 40.2938 16.1063C40.5125 16.1375 40.575 16.1125 40.7563 15.95C40.9688 15.7625 40.9688 15.75 40.9688 15.2375C40.9688 14.5375 40.8063 14.0625 40.0938 12.6563C39.1313 10.7625 38.4 9.61251 37.45 8.50001C36.3313 7.18751 35.2563 6.62501 33.8688 6.62501H33.2625L33.1938 6.31251C33.0938 5.85626 32.9688 5.58751 32.8 5.48126C32.725 5.42501 32.4438 5.36876 32.1875 5.35001C31.7875 5.31251 31.6563 5.33126 31.3125 5.45626Z" fill="#334155"/>
<path d="M7.0438 31.1251C6.58755 31.4876 6.71255 32.5376 7.3688 33.8126C9.2688 37.5314 9.8688 38.4314 11.2875 39.7126C12.125 40.4751 12.5938 40.8251 13.1313 41.0939C13.875 41.4751 14.1688 41.5314 15.325 41.5314H16.3688L16.4625 41.7376C16.5188 41.8439 16.65 41.9939 16.7625 42.0689C16.9438 42.1814 17.0375 42.1876 17.5625 42.1564C17.9813 42.1314 18.2375 42.0814 18.4375 41.9876C18.8063 41.8126 20.1438 40.5001 20.3125 40.1564C20.55 39.6689 20.45 39.1439 20.05 38.7689C19.7438 38.4751 17.775 37.3251 17.3875 37.2126C16.9 37.0689 16.4813 37.1876 16.1625 37.5626C15.9063 37.8751 15.8563 38.1751 15.9313 38.9689C16.0313 39.9814 16.0688 39.8876 15.5813 39.8376C14.4313 39.7314 13.9313 39.5001 12.9875 38.6564C11.8813 37.6689 11.2813 36.8689 10.3625 35.2001C10.0875 34.6939 9.6313 33.9189 9.3438 33.4689C9.06255 33.0251 8.6688 32.3626 8.4688 32.0001C8.01255 31.1814 7.8313 31.0001 7.4688 31.0001C7.30005 31.0001 7.15005 31.0439 7.0438 31.1251Z" fill="#334155"/>
</svg>
