<?xml version="1.0" standalone="no"?>
<!DOCTYPE svg PUBLIC "-//W3C//DTD SVG 20010904//EN"
 "http://www.w3.org/TR/2001/REC-SVG-20010904/DTD/svg10.dtd">
<svg version="1.0" xmlns="http://www.w3.org/2000/svg"
 width="800.000000pt" height="800.000000pt" viewBox="0 0 800.000000 800.000000"
 preserveAspectRatio="xMidYMid meet">

<g transform="translate(0.000000,800.000000) scale(0.100000,-0.100000)"
fill="#737373" stroke="none">
<path d="M3795 7073 c-484 -26 -1030 -178 -1455 -406 -319 -171 -548 -345
-815 -619 -376 -385 -643 -865 -771 -1383 -60 -242 -77 -389 -78 -645 0 -242
14 -383 61 -605 118 -565 420 -1106 860 -1538 406 -400 873 -671 1437 -836
156 -46 179 -48 273 -24 56 14 73 23 112 65 49 52 65 86 87 183 25 113 11 248
-41 395 -31 89 -158 186 -312 240 -212 75 -295 100 -383 116 -52 9 -103 24
-113 33 -21 18 -119 173 -113 178 2 2 38 -19 79 -47 101 -67 289 -164 357
-185 30 -8 128 -21 216 -27 154 -11 163 -10 195 8 46 27 76 74 89 142 21 104
61 226 98 301 57 115 48 211 -28 274 -63 54 -149 87 -265 102 -116 15 -301 73
-383 121 -66 39 -282 259 -340 347 -61 92 -94 190 -117 343 -17 112 -15 208 6
397 11 102 102 458 153 602 20 55 57 174 82 265 42 154 70 223 112 278 l18 23
59 -39 c87 -56 365 -197 402 -205 38 -7 142 21 210 57 26 14 82 39 125 55 70
27 90 30 255 37 261 10 465 -22 616 -97 98 -50 173 -70 220 -59 54 12 147 51
192 81 75 50 140 77 225 94 82 17 287 36 303 28 27 -14 -19 -226 -75 -345
l-43 -93 0 -115 c1 -131 0 -127 101 -281 35 -53 72 -119 83 -146 22 -56 44
-199 37 -235 -3 -13 -8 -102 -11 -200 -8 -245 -8 -246 -161 -433 -208 -256
-437 -421 -734 -531 -127 -47 -204 -138 -203 -240 0 -52 2 -57 91 -214 76
-132 147 -440 161 -695 8 -141 13 -173 29 -194 58 -78 151 -59 223 45 94 136
112 421 45 686 -23 91 -77 233 -97 253 -13 13 -11 35 4 35 24 0 282 163 384
242 191 149 443 426 542 597 139 237 189 489 143 711 -41 198 -131 371 -305
584 -18 22 -18 24 12 82 56 108 66 166 65 394 0 113 -4 222 -8 242 -22 119
-179 181 -456 181 -248 -1 -414 -49 -525 -154 l-55 -52 -60 27 c-124 53 -277
81 -507 92 -198 10 -447 -30 -582 -91 -29 -14 -61 -25 -71 -25 -10 0 -40 21
-66 46 -29 27 -86 63 -139 89 -216 103 -284 133 -334 145 -105 25 -237 -5
-305 -68 -15 -15 -50 -59 -77 -99 -103 -152 -133 -240 -144 -418 -11 -173 -30
-248 -90 -355 -120 -212 -148 -302 -165 -530 -32 -409 -25 -519 46 -722 46
-131 77 -192 155 -303 107 -150 312 -349 435 -421 56 -33 234 -108 329 -139
l70 -23 -3 -64 c-2 -34 -5 -64 -6 -66 -6 -6 -118 39 -196 78 -120 60 -210 120
-285 190 -77 72 -251 189 -355 239 -74 35 -77 36 -195 36 -141 -1 -227 -20
-296 -67 -63 -43 -89 -84 -89 -140 0 -93 45 -156 176 -246 72 -49 137 -116
239 -247 108 -137 319 -352 375 -380 25 -12 97 -34 160 -48 118 -26 338 -100
422 -143 l48 -24 -7 -78 c-3 -42 -7 -78 -8 -80 -7 -8 -292 95 -423 153 -438
193 -817 473 -1104 815 -272 323 -466 734 -553 1165 -65 325 -61 695 11 1036
199 944 975 1731 1994 2024 302 87 681 134 976 121 656 -29 1190 -197 1702
-535 167 -111 316 -236 477 -402 306 -316 496 -620 629 -1006 84 -245 118
-423 135 -692 24 -377 -57 -831 -219 -1220 -48 -117 -115 -226 -219 -357 -53
-66 -134 -169 -180 -228 -292 -372 -676 -644 -1217 -861 -156 -63 -316 -110
-599 -176 -293 -68 -333 -78 -390 -97 -47 -16 -50 -19 -50 -52 0 -32 3 -35 43
-47 80 -23 266 -34 381 -23 340 33 768 162 1070 321 211 112 440 264 583 387
37 31 134 114 215 184 98 83 173 157 219 214 38 49 95 118 127 154 77 85 277
388 341 515 100 196 170 438 195 665 17 156 24 661 12 785 -48 460 -179 857
-413 1249 -333 556 -841 998 -1462 1272 -516 227 -1065 327 -1631 297z"/>
</g>
</svg>
