<svg width="158" height="160" viewBox="0 0 158 160" fill="none" xmlns="http://www.w3.org/2000/svg">
<g clip-path="url(#clip0_2181_2208)">
<path d="M151.886 66.6513C150.949 65.8041 149.98 64.9276 149.056 64.0428C141.33 56.6491 133.607 49.2524 125.886 41.8531C112.662 29.1865 99.4341 16.527 86.2015 3.87422C81.4333 -0.681574 79.3581 -0.641412 74.5156 4.10353L71.0914 7.45846C54.2524 23.9547 36.8402 41.0131 19.6555 57.7296C16.0051 61.28 12.1886 64.7903 8.49751 68.1814C6.71127 69.8222 4.9287 71.4682 3.1498 73.1187C2.38289 73.8313 0.0485538 76.0065 2.05725 78.3449C3.40241 79.9113 5.19726 79.816 7.39141 78.0632C8.8212 76.9192 10.2497 75.7312 11.6317 74.5781C12.5233 73.8345 13.4168 73.0947 14.3123 72.3569C14.7039 72.033 15.1115 71.7402 15.7305 71.2933L15.9334 71.1462C15.9334 72.5266 15.9424 73.8669 15.9489 75.1728C15.9657 78.7459 15.9812 82.1215 15.9172 85.4756C15.7945 91.8556 15.6562 98.2348 15.5024 104.615C15.3125 112.937 15.1148 121.543 14.9759 130.007C14.8867 135.384 14.8357 141.095 15.2666 146.655C15.7318 152.657 18.0273 154.831 24.3649 155.271C28.2143 155.539 32.1283 155.842 35.9137 156.137C43.4013 156.72 51.1434 157.32 58.7743 157.671C77.0011 158.509 95.5155 159.145 113.804 159.562C114.45 159.576 115.104 159.583 115.765 159.584C121.112 159.543 126.452 159.157 131.75 158.427C139.692 157.395 142.568 154.614 143.585 146.983C144.861 137.412 145.721 127.332 146.214 116.166C146.65 106.29 146.813 96.5947 146.986 86.3313C147.052 82.4531 147.123 78.5432 147.198 74.6015C147.872 75.2382 148.454 75.7882 149.067 76.3187C151.498 78.4253 154.113 78.6066 155.889 76.7916C156.29 76.3945 156.607 75.9203 156.82 75.3982C157.034 74.8755 157.14 74.3151 157.133 73.7509C157.038 72.1827 156.326 70.7168 155.154 69.6745C154.087 68.6426 152.968 67.6275 151.886 66.6513ZM62.1444 96.7009L92.6062 93.8157L93.5617 151.767L60.9543 150.51L62.1444 96.7009ZM101.62 102.118C101.612 99.1812 101.454 96.2047 101.303 93.3267C101.264 92.5927 101.226 91.8581 101.189 91.1242C101.086 89.0624 100.52 87.61 99.4586 86.6831C98.379 85.7406 96.8148 85.37 94.6775 85.5637C82.312 86.6591 70.9763 87.5951 60.0232 88.4243C55.3785 88.776 53.813 90.4674 53.8169 95.1281C53.8363 115.043 53.8311 130.32 53.7988 144.664C53.7723 145.92 53.6817 147.174 53.5274 148.421C53.4796 148.878 53.4299 149.347 53.384 149.832L22.5997 147.912C22.5442 147.435 22.4834 146.97 22.4227 146.514C22.2331 145.3 22.1251 144.075 22.0997 142.846C22.1307 137.491 22.1933 132.047 22.2541 126.781C22.3258 120.497 22.4001 114.001 22.4221 107.611C22.4434 101.591 22.4272 95.4714 22.4124 89.5534C22.3943 82.3981 22.3755 74.9992 22.4208 67.7234C22.4186 66.4168 22.879 65.1524 23.72 64.1541C37.618 50.7744 51.825 37.2501 65.5653 24.1715L71.9771 18.067C74.0298 16.1127 76.096 14.174 78.2061 12.1931L80.8163 9.74057C82.6719 11.5232 84.5223 13.2967 86.3669 15.0612C90.6349 19.1474 95.0484 23.3737 99.332 27.5512C104.786 32.8715 110.232 38.1993 115.67 43.5348C122.602 50.3261 129.769 57.3472 136.845 64.2272C138.3 65.6434 138.964 66.7757 138.557 69.0364C138.316 70.858 138.322 72.7035 138.575 74.5237C138.709 75.7001 138.773 76.8836 138.769 78.0677L138.7 80.7883C138.419 91.7623 138.128 103.109 137.597 114.254C137.279 120.909 136.757 127.673 136.257 134.213C136.031 137.161 135.805 140.111 135.594 143.061L135.584 143.195C135.565 143.469 135.545 143.745 135.51 144.019C134.77 149.882 134.258 150.408 128.672 151.052C119.701 152.092 110.658 152.374 101.64 151.894L101.644 139.013C101.649 126.899 101.655 114.374 101.621 102.118H101.62Z" fill="#334155ff"/>
</g>
<defs>
<clipPath id="clip0_2181_2208">
<rect width="157" height="160" fill="white" transform="translate(0.777344)"/>
</clipPath>
</defs>
</svg>
