<?xml version="1.0" encoding="UTF-8" standalone="no"?>
<svg
   version="1.0"
   width="625.50104pt"
   height="538.2431pt"
   viewBox="0 0 625.50104 538.2431"
   preserveAspectRatio="xMidYMid"
   id="svg32"
   sodipodi:docname="circle3.svg"
   inkscape:version="1.3.2 (091e20e, 2023-11-25)"
   xmlns:inkscape="http://www.inkscape.org/namespaces/inkscape"
   xmlns:sodipodi="http://sodipodi.sourceforge.net/DTD/sodipodi-0.dtd"
   xmlns="http://www.w3.org/2000/svg"
   xmlns:svg="http://www.w3.org/2000/svg">
  <sodipodi:namedview
     id="namedview1"
     pagecolor="#ffffff"
     bordercolor="#000000"
     borderopacity="0.25"
     inkscape:showpageshadow="2"
     inkscape:pageopacity="0.0"
     inkscape:pagecheckerboard="0"
     inkscape:deskcolor="#d1d1d1"
     inkscape:document-units="pt"
     inkscape:zoom="0.32884769"
     inkscape:cx="418.1267"
     inkscape:cy="357.30827"
     inkscape:window-width="1472"
     inkscape:window-height="806"
     inkscape:window-x="0"
     inkscape:window-y="37"
     inkscape:window-maximized="0"
     inkscape:current-layer="svg32" />
  <defs
     id="defs32" />
  <g
     id="layer3"
     transform="translate(-1690.5819,-706)">
    <path
       d="m 19304,17851 c -183,-92 -366,-205 -509,-315 -59,-45 -111,-74 -200,-110 -548,-223 -885,-472 -1101,-812 -22,-34 -72,-99 -112,-145 -372,-426 -537,-1016 -456,-1629 79,-601 401,-1154 910,-1564 540,-435 1218,-677 2004,-715 176,-9 549,1 572,15 6,4 155,8 331,9 177,1 367,8 422,14 907,106 1507,501 1800,1186 245,574 261,1341 43,2025 -42,132 -151,405 -208,525 -270,560 -777,976 -1487,1219 -381,130 -711,186 -1138,191 -424,6 -744,-38 -1119,-154 -54,-17 -101,-31 -105,-31 -23,0 296,193 449,272 63,33 117,64 118,69 4,11 -16,39 -28,39 -4,0 -88,-40 -186,-89 z m 1186,-187 c 308,-34 608,-104 864,-200 116,-44 420,-184 413,-190 -2,-2 -43,12 -93,32 -414,163 -988,225 -1594,173 -557,-47 -1140,-158 -1540,-293 l -75,-26 66,64 c 129,124 245,213 306,236 273,102 649,184 978,213 108,10 562,4 675,-9 z m 450,-279 c 582,-63 1065,-272 1399,-604 168,-167 295,-350 421,-606 118,-239 152,-353 185,-616 20,-162 20,-472 0,-626 -75,-567 -299,-1040 -678,-1430 -392,-403 -890,-662 -1532,-794 -123,-26 -239,-29 -400,-10 -1188,139 -2124,692 -2532,1496 -121,240 -171,398 -228,735 -13,78 -14,398 0,510 35,303 109,547 255,845 114,233 291,501 449,676 48,53 58,59 177,103 458,168 1138,298 1754,336 186,12 555,4 730,-15 z m -2501,-154 c -125,-121 -140,-132 -229,-171 -190,-83 -417,-220 -561,-337 -111,-90 -117,-92 -64,-23 110,145 297,307 482,417 127,75 469,240 502,243 3,0 -56,-58 -130,-129 z m -322,-359 c -316,-396 -531,-880 -604,-1362 -24,-160 -24,-483 0,-640 124,-803 615,-1439 1432,-1855 301,-154 611,-261 1000,-346 l 130,-29 -155,6 c -578,20 -1049,132 -1495,356 -698,351 -1191,926 -1360,1583 -47,182 -66,323 -70,515 -15,696 283,1277 852,1662 75,50 301,178 316,178 4,0 -16,-30 -46,-68 z m 4948,-2082 c -2,-201 -7,-284 -24,-393 -38,-247 -101,-456 -196,-653 -291,-604 -845,-951 -1680,-1050 -170,-20 -174,-18 -45,22 265,82 551,216 775,366 175,116 278,200 415,338 200,201 338,394 466,655 134,274 217,552 250,840 9,77 19,160 22,185 l 6,45 7,-50 c 3,-27 5,-165 4,-305 z"
       id="path25"
       transform="matrix(0.1,0,0,-0.1,0,2500)"
       style="fill:#334155;fill-opacity:1" />
  </g>
</svg>
