<?xml version="1.0" encoding="UTF-8" standalone="no"?>
<svg
   version="1.0"
   width="655.41278pt"
   height="552.56964pt"
   viewBox="0 0 655.41278 552.56964"
   preserveAspectRatio="xMidYMid"
   id="svg32"
   xmlns="http://www.w3.org/2000/svg"
   xmlns:svg="http://www.w3.org/2000/svg">
  <defs
     id="defs32" />
  <g
     id="layer1"
     transform="translate(-181.38311,-696.09715)">
    <path
       d="m 5679,18036 c -2,-2 -60,-6 -129,-9 -358,-18 -728,-103 -1110,-254 -91,-36 -201,-83 -245,-105 -79,-40 -79,-40 -93,-19 -19,29 -31,27 -126,-18 -253,-118 -586,-344 -802,-545 -53,-48 -96,-77 -165,-109 -295,-137 -642,-364 -918,-601 -128,-110 -283,-257 -277,-264 3,-2 54,41 113,96 291,271 588,479 968,678 140,73 141,72 35,-42 -83,-88 -192,-224 -301,-376 -287,-399 -311,-439 -474,-773 -182,-373 -240,-535 -286,-800 -29,-168 -35,-483 -13,-655 124,-968 751,-1590 1714,-1700 52,-6 108,-13 124,-15 93,-12 376,-16 541,-6 442,26 866,91 1288,197 1173,295 2000,854 2481,1678 248,426 382,930 362,1369 -25,572 -250,1067 -676,1486 -402,395 -918,653 -1500,750 -138,23 -497,49 -511,37 z m 410,-91 c 495,-62 980,-267 1371,-580 193,-155 415,-406 542,-615 293,-480 371,-1047 224,-1628 -90,-351 -287,-742 -532,-1052 -94,-120 -379,-400 -504,-496 -612,-473 -1405,-777 -2395,-919 -342,-48 -824,-69 -1097,-46 -497,42 -920,212 -1205,485 -301,287 -474,631 -550,1091 -25,152 -25,514 0,670 28,179 34,182 29,15 -16,-531 146,-985 476,-1332 205,-216 456,-382 756,-503 339,-136 671,-201 1066,-210 219,-4 381,5 586,36 76,11 229,24 339,29 222,10 336,22 500,51 653,117 1204,422 1587,879 288,343 472,732 545,1155 25,144 24,492 -1,630 -75,409 -263,760 -572,1070 -373,373 -876,616 -1447,700 -59,8 -200,20 -313,25 -113,6 -226,13 -252,16 -67,9 -481,9 -577,0 -271,-24 -438,-48 -645,-91 -119,-25 -355,-90 -439,-120 -24,-8 -46,-13 -49,-11 -6,7 255,177 382,250 325,187 669,329 1012,416 215,55 400,85 654,104 95,7 391,-4 509,-19 z m -2309,-500 c 0,-2 -10,-9 -22,-15 -22,-11 -22,-10 -4,4 21,17 26,19 26,11 z m -85,-54 c -20,-17 -165,-111 -165,-106 0,2 37,29 82,60 77,51 105,67 83,46 z m 1160,-28 c -801,-114 -1638,-512 -2184,-1038 -116,-111 -119,-111 -48,5 97,159 418,485 712,722 78,63 127,84 340,146 358,105 714,165 1060,178 88,4 161,8 163,9 2,2 13,0 25,-3 14,-4 -13,-11 -68,-19 z m 695,-47 c 91,-3 203,-12 250,-21 290,-54 655,-186 905,-327 625,-352 946,-859 947,-1493 0,-539 -218,-1040 -645,-1482 -456,-472 -1061,-811 -1755,-984 l -166,-42 -151,6 c -474,20 -978,148 -1388,353 -653,328 -1092,853 -1217,1455 -70,337 -48,711 62,1047 39,121 41,125 127,225 552,642 1485,1120 2421,1241 137,18 342,33 405,29 22,-1 114,-4 205,-7 z m 2134,-1473 c 178,-554 75,-1185 -283,-1729 -346,-526 -836,-871 -1486,-1044 -108,-29 -386,-80 -428,-79 -12,0 46,24 128,53 193,68 294,111 458,192 739,368 1282,920 1511,1535 128,346 159,719 86,1059 -10,47 -21,93 -25,103 -4,9 -5,17 -2,17 3,0 22,-48 41,-107 z m -5400,-143 c -38,-142 -56,-286 -59,-475 -5,-265 20,-445 91,-665 43,-131 153,-357 233,-475 347,-515 925,-893 1646,-1078 137,-36 400,-86 460,-88 24,-1 21,-3 -15,-10 -42,-7 -516,-12 -570,-5 -14,2 -56,7 -95,11 -556,57 -1075,283 -1424,620 -259,250 -424,562 -486,920 -22,122 -33,366 -23,495 14,185 68,438 121,570 23,56 128,242 134,237 1,-2 -4,-27 -13,-57 z"
       id="path24"
       transform="matrix(0.1,0,0,-0.1,0,2500)" />
  </g>
</svg>
