<?xml version="1.0" encoding="UTF-8" standalone="no"?>
<svg
   version="1.0"
   width="636.48456pt"
   height="457.18781pt"
   viewBox="0 0 636.48456 457.18781"
   preserveAspectRatio="xMidYMid"
   id="svg32"
   xmlns="http://www.w3.org/2000/svg"
   xmlns:svg="http://www.w3.org/2000/svg">
  <defs
     id="defs32" />
  <g
     id="layer2"
     transform="translate(-932.3955,-746.01219)">
    <path
       d="m 12410,17537 c -3,-3 -59,-8 -125,-11 -66,-4 -129,-9 -140,-11 -11,-2 -47,-7 -80,-10 -712,-71 -1457,-308 -1899,-603 -453,-302 -725,-721 -821,-1262 -20,-112 -28,-388 -14,-510 98,-913 743,-1626 1774,-1963 425,-139 817,-199 1290,-199 287,0 464,15 785,68 533,87 944,211 1360,410 784,376 1179,896 1147,1510 -15,290 -134,614 -317,864 -38,52 -88,129 -111,170 -485,868 -1482,1301 -2852,1240 -733,-33 -1245,-149 -1732,-395 -82,-42 -197,-97 -255,-122 -225,-98 -630,-318 -630,-343 0,-23 23,-17 87,22 74,46 410,218 425,218 5,0 -31,-33 -79,-74 -371,-310 -626,-720 -708,-1136 -23,-115 -31,-385 -16,-503 22,-168 84,-376 150,-506 12,-22 19,-41 16,-41 -10,0 -103,196 -139,293 -250,668 -117,1409 340,1905 401,435 1174,755 2104,871 421,53 901,62 1310,25 146,-13 165,-12 168,13 4,25 -3,28 -108,42 -41,6 -106,16 -145,22 -67,11 -775,25 -785,16 z m 600,-408 c 683,-52 1247,-249 1659,-581 84,-68 294,-278 286,-286 -3,-3 -15,4 -28,15 -92,82 -367,253 -577,358 -488,244 -1018,389 -1630,446 -160,15 -637,15 -800,0 -69,-6 -147,-13 -175,-16 -48,-4 -48,-4 -10,4 250,55 921,86 1275,60 z m -380,-119 c 791,-58 1483,-281 2067,-666 207,-137 429,-329 486,-421 41,-65 116,-249 143,-348 100,-372 63,-738 -110,-1084 -153,-305 -368,-553 -681,-786 -467,-348 -1113,-582 -1725,-625 -873,-60 -1769,143 -2355,535 -157,105 -255,187 -381,317 -453,472 -604,1072 -414,1642 167,497 558,927 1080,1188 144,72 524,165 875,213 298,42 724,56 1015,35 z m 2880,-1616 c 75,-187 110,-423 92,-606 -51,-497 -363,-879 -992,-1215 -90,-48 -342,-163 -357,-163 -4,0 43,30 105,68 562,337 958,839 1080,1367 51,221 50,424 -4,695 -7,36 39,-53 76,-146 z"
       id="path26"
       transform="matrix(0.1,0,0,-0.1,0,2500)" />
  </g>
</svg>
