<?xml version="1.0" encoding="UTF-8" standalone="no"?>
<svg
   version="1.0"
   width="491.49399pt"
   height="433.07788pt"
   viewBox="0 0 491.49399 433.07788"
   preserveAspectRatio="xMidYMid"
   id="svg32"
   xmlns="http://www.w3.org/2000/svg"
   xmlns:svg="http://www.w3.org/2000/svg">
  <defs
     id="defs32" />
  <g
     id="layer9"
     transform="translate(-1756.4204,-1878.3327)">
    <path
       d="m 19875,6213 c -131,-12 -289,-38 -424,-69 -618,-143 -1058,-441 -1315,-891 -47,-82 -63,-100 -142,-161 -106,-82 -234,-214 -293,-301 -80,-118 -157,-319 -132,-344 7,-7 12,-6 14,4 31,108 55,175 85,228 42,75 130,187 198,252 59,56 165,141 169,137 2,-2 -17,-55 -42,-118 -48,-122 -160,-502 -187,-635 -9,-44 -23,-159 -31,-255 -8,-96 -19,-191 -25,-210 -43,-147 -55,-409 -26,-562 46,-243 152,-448 326,-631 77,-82 118,-118 313,-285 406,-344 1045,-528 1662,-478 582,47 1167,311 1570,710 45,45 114,107 152,138 360,295 611,696 704,1125 15,72 22,149 26,288 5,166 2,207 -17,320 -73,432 -318,854 -675,1162 -342,296 -755,478 -1265,559 -100,15 -540,27 -645,17 z m 650,-93 c 697,-109 1240,-441 1588,-970 413,-630 391,-1363 -59,-1976 -49,-67 -144,-179 -144,-171 0,5 70,141 158,307 159,302 201,655 120,1029 -42,197 -143,440 -254,612 -27,42 -47,83 -45,96 3,26 -12,51 -95,159 -255,331 -669,536 -1264,626 -158,24 -459,28 -660,10 -69,-6 -166,-14 -217,-17 -131,-9 -272,-44 -482,-120 -216,-78 -350,-136 -464,-201 -112,-64 -487,-253 -487,-245 1,13 130,185 188,251 132,146 367,310 591,411 253,113 571,193 871,219 164,14 503,4 655,-20 z m 79,-381 c 364,-52 738,-244 1020,-523 280,-277 461,-638 516,-1026 14,-101 13,-348 -3,-440 l -13,-75 -6,175 c -7,190 -25,293 -78,453 -63,188 -180,398 -317,567 -76,93 -262,276 -367,359 -262,207 -594,385 -931,498 l -130,44 85,-6 c 47,-3 148,-15 224,-26 z m -549,-5 c 467,-63 1050,-358 1428,-723 373,-360 561,-767 559,-1211 -1,-204 -44,-422 -113,-567 -38,-80 -197,-247 -328,-346 -281,-212 -684,-391 -1226,-545 -287,-82 -312,-86 -475,-79 -389,17 -743,103 -1055,256 -394,194 -672,453 -839,780 -103,203 -149,370 -150,551 l -1,115 49,120 c 65,161 176,383 268,535 235,391 486,671 773,866 86,58 201,101 502,189 293,86 360,92 608,59 z m -1458,-436 c -158,-158 -267,-292 -393,-483 -116,-177 -190,-305 -271,-470 -71,-145 -73,-139 -27,65 27,122 48,178 108,298 90,178 217,343 372,483 71,63 317,238 337,239 4,0 -53,-60 -126,-132 z m -337,-129 c -49,-49 -113,-121 -141,-160 -29,-38 -53,-69 -55,-69 -3,0 42,101 80,180 14,28 38,47 109,88 51,28 93,52 95,52 1,0 -38,-41 -88,-91 z m -305,-1928 c 254,-487 811,-863 1483,-1001 82,-16 162,-30 178,-30 24,-1 26,-2 12,-10 -27,-16 -368,-12 -503,5 -283,37 -531,129 -760,283 -161,108 -318,327 -416,581 -31,80 -84,284 -94,361 l -5,45 25,-64 c 14,-35 50,-111 80,-170 z m -148,47 c -3,-8 -6,-5 -6,6 -1,11 2,17 5,13 3,-3 4,-12 1,-19 z m 10,-50 c -3,-8 -6,-5 -6,6 -1,11 2,17 5,13 3,-3 4,-12 1,-19 z m 22,-68 c 0,-9 -4,-8 -9,5 -5,11 -9,27 -9,35 0,9 4,8 9,-5 5,-11 9,-27 9,-35 z m 3851,-345 c -63,-79 -107,-116 -225,-188 -243,-147 -515,-251 -817,-313 -65,-13 -122,-24 -126,-24 -4,0 66,25 155,55 438,147 782,317 998,493 33,27 62,48 64,46 2,-2 -20,-33 -49,-69 z m -394,-374 c -8,-12 -153,-108 -245,-161 -253,-146 -581,-258 -896,-306 -147,-22 -500,-25 -645,-5 -151,20 -325,60 -450,101 -113,37 -293,110 -287,117 2,1 26,-4 53,-12 185,-55 369,-75 634,-70 234,4 237,5 450,40 80,13 197,27 260,30 255,14 503,54 725,119 125,37 297,101 362,135 44,23 46,24 39,12 z"
       id="path30"
       transform="matrix(0.1,0,0,-0.1,0,2500)" />
  </g>
</svg>
