<?xml version="1.0" encoding="UTF-8" standalone="no"?>
<svg
   width="67.625"
   height="207.743"
   viewBox="0 0 67.625 207.743"
   fill="none"
   version="1.1"
   id="svg2"
   sodipodi:docname="setaondulada.svg"
   inkscape:version="1.3.2 (091e20e, 2023-11-25)"
   xmlns:inkscape="http://www.inkscape.org/namespaces/inkscape"
   xmlns:sodipodi="http://sodipodi.sourceforge.net/DTD/sodipodi-0.dtd"
   xmlns="http://www.w3.org/2000/svg"
   xmlns:svg="http://www.w3.org/2000/svg">
  <defs
     id="defs2" />
  <sodipodi:namedview
     id="namedview2"
     pagecolor="#ffffff"
     bordercolor="#000000"
     borderopacity="0.25"
     inkscape:showpageshadow="2"
     inkscape:pageopacity="0.0"
     inkscape:pagecheckerboard="0"
     inkscape:deskcolor="#d1d1d1"
     inkscape:zoom="1.0727273"
     inkscape:cx="47.076271"
     inkscape:cy="110"
     inkscape:window-width="1312"
     inkscape:window-height="429"
     inkscape:window-x="0"
     inkscape:window-y="37"
     inkscape:window-maximized="0"
     inkscape:current-layer="svg2" />
  <g
     id="g2"
     transform="translate(-10.278691,-4.510517)">
    <path
       fill-rule="evenodd"
       clip-rule="evenodd"
       d="m 57.8545,201.005 20.0488,11.249 -3.9017,-19.469 c -2.5256,5.186 -9.2467,8.608 -16.1471,8.22 z"
       fill="#334155"
       id="path2" />
    <path
       d="m 25.9107,5.82988 c -4.6419,2.51079 -8.4975,6.02482 -10.9653,9.99482 -2.4691,3.9694 -3.5409,8.3805 -3.0504,12.5441 0.4918,4.1642 2.5446,8.0654 5.8389,11.0957 3.2942,3.0294 7.8189,5.1766 12.865,6.1065 0.4525,0.0832 0.9088,0.1573 1.3585,0.2439 4.384,0.8384 8.2013,2.8725 10.9598,5.5889 2.7583,2.7154 4.4782,6.0937 5.2113,9.6628 1.4662,7.1384 -0.9727,14.8285 -4.9349,21.8469 -2.9631,5.2484 -6.7616,10.2315 -9.9479,15.4132 -3.1863,5.1813 -5.7889,10.6843 -6.0823,16.2113 -0.1463,2.763 0.2977,5.508 1.4935,7.985 1.1948,2.478 3.1555,4.683 5.795,6.24 2.6383,1.557 5.9637,2.446 9.4317,2.362 3.4681,-0.084 7.0578,-1.17 9.8037,-3.109 0.7552,-0.533 1.4443,-1.126 2.2229,-1.636 1.9586,-1.282 4.4427,-1.984 6.8394,-2.027 2.3966,-0.043 4.6946,0.557 6.5483,1.603 1.854,1.047 3.2692,2.529 4.1831,4.208 0.9137,1.678 1.335,3.55 1.3585,5.452 0.0482,3.803 -1.4649,7.658 -3.4185,11.313 -1.9527,3.655 -4.3578,7.185 -6.2505,10.858 -7.3302,14.219 -6.2994,30.34 2.7122,42.438"
       stroke="#334155"
       stroke-width="3"
       id="path1" />
  </g>
</svg>
