<?xml version="1.0" encoding="UTF-8" standalone="no"?>
<svg
   version="1.0"
   width="569.37134pt"
   height="337.07019pt"
   viewBox="0 0 569.37134 337.07019"
   preserveAspectRatio="xMidYMid"
   id="svg32"
   sodipodi:docname="circle8.svg"
   inkscape:version="1.3.2 (091e20e, 2023-11-25)"
   xmlns:inkscape="http://www.inkscape.org/namespaces/inkscape"
   xmlns:sodipodi="http://sodipodi.sourceforge.net/DTD/sodipodi-0.dtd"
   xmlns="http://www.w3.org/2000/svg"
   xmlns:svg="http://www.w3.org/2000/svg">
  <sodipodi:namedview
     id="namedview1"
     pagecolor="#ffffff"
     bordercolor="#000000"
     borderopacity="0.25"
     inkscape:showpageshadow="2"
     inkscape:pageopacity="0.0"
     inkscape:pagecheckerboard="0"
     inkscape:deskcolor="#d1d1d1"
     inkscape:document-units="pt"
     inkscape:zoom="0.52511318"
     inkscape:cx="379.9181"
     inkscape:cy="224.71346"
     inkscape:window-width="1312"
     inkscape:window-height="429"
     inkscape:window-x="0"
     inkscape:window-y="37"
     inkscape:window-maximized="0"
     inkscape:current-layer="svg32" />
  <defs
     id="defs32" />
  <g
     id="layer8"
     transform="translate(-966.21139,-1926.2871)"
     style="fill:#334155;fill-opacity:1">
    <path
       d="m 12550,5729 c -114,-10 -225,-24 -380,-49 -63,-10 -162,-21 -220,-24 -356,-21 -610,-57 -847,-121 -335,-91 -636,-238 -865,-424 -503,-406 -711,-1118 -485,-1660 68,-165 223,-351 393,-473 303,-216 860,-424 1399,-522 673,-123 1456,-119 2355,10 606,87 959,231 1193,484 318,343 350,943 82,1495 -253,522 -747,943 -1345,1147 -185,63 -450,117 -665,136 -127,12 -490,12 -615,1 z m 675,-88 c 339,-42 585,-112 860,-246 632,-307 1069,-856 1169,-1470 20,-122 16,-382 -8,-490 -63,-285 -223,-494 -491,-640 -168,-92 -420,-170 -705,-219 -186,-32 -480,-70 -487,-62 -4,3 3,6 14,6 40,0 322,83 442,131 368,146 634,373 780,667 65,129 92,236 98,387 8,205 -35,389 -147,621 -104,215 -216,366 -458,615 -143,148 -247,235 -373,314 -221,137 -330,176 -861,306 -100,24 -275,54 -413,71 l -110,13 65,6 c 99,9 523,2 625,-10 z m -942,-62 c 144,-2 351,-19 361,-30 4,-3 -47,-9 -111,-13 -131,-8 -161,-11 -313,-32 -595,-83 -1077,-276 -1380,-553 -51,-46 -62,-62 -53,-71 9,-10 29,1 90,52 97,81 218,163 320,216 295,153 716,265 1183,314 163,17 628,17 735,-1 271,-43 662,-222 936,-428 203,-152 287,-241 402,-427 195,-314 286,-634 256,-896 -46,-387 -360,-715 -835,-869 -176,-58 -386,-94 -679,-116 -90,-7 -635,-6 -740,0 -668,45 -1361,191 -1875,397 -116,47 -130,55 -198,122 -263,255 -437,599 -483,950 -12,92 -12,96 15,168 29,82 103,212 169,297 218,285 607,516 1196,711 329,109 780,223 844,214 10,-2 82,-4 160,-5 z m -813,-65 c -547,-168 -880,-318 -1150,-517 -283,-209 -469,-486 -536,-797 -27,-123 -24,-327 5,-435 72,-267 249,-466 558,-627 53,-27 125,-73 162,-103 257,-206 681,-399 1069,-485 56,-13 100,-25 98,-28 -7,-7 -281,47 -431,84 -272,68 -523,156 -748,262 -389,184 -613,410 -710,717 -39,123 -50,227 -44,399 8,218 55,394 159,599 120,234 281,411 523,573 254,169 542,282 900,353 253,50 297,51 145,5 z M 9876,3990 c 43,-201 156,-433 302,-624 58,-75 30,-61 -78,41 -164,154 -243,317 -257,529 -5,88 7,228 14,159 2,-16 11,-64 19,-105 z m 4891,78 c -3,-8 -6,-5 -6,6 -1,11 2,17 5,13 3,-3 4,-12 1,-19 z m 39,-145 c 12,-64 15,-123 12,-218 -4,-116 -9,-141 -40,-232 -136,-394 -492,-682 -1027,-829 -342,-94 -685,-135 -1113,-135 -698,1 -1294,131 -1783,389 -155,82 -162,93 -32,51 409,-135 898,-235 1377,-283 349,-36 868,-36 1210,0 714,73 1218,414 1351,914 18,67 22,114 23,220 1,74 -2,162 -6,195 -11,84 7,38 28,-72 z M 11727,2514 c -3,-3 -12,-4 -19,-1 -8,3 -5,6 6,6 11,1 17,-2 13,-5 z"
       id="path32"
       transform="matrix(0.1,0,0,-0.1,0,2500)"
       style="fill:#334155;fill-opacity:1" />
  </g>
</svg>
