<?xml version="1.0" encoding="UTF-8" standalone="no"?>
<svg
   version="1.0"
   width="618.63757pt"
   height="467.34409pt"
   viewBox="0 0 618.63757 467.34409"
   preserveAspectRatio="xMidYMid"
   id="svg32"
   xmlns="http://www.w3.org/2000/svg"
   xmlns:svg="http://www.w3.org/2000/svg">
  <defs
     id="defs32" />
  <g
     id="layer5"
     transform="translate(-942.10357,-1296.4307)">
    <path
       d="m 12515,12034 c -521,-42 -1014,-184 -1525,-440 -862,-433 -1392,-1024 -1540,-1719 -41,-190 -38,-479 6,-660 129,-526 535,-1016 1124,-1357 52,-30 131,-79 175,-107 97,-64 349,-189 465,-231 783,-285 1802,-180 2765,284 747,360 1248,839 1478,1411 208,517 191,997 -49,1465 -265,515 -772,906 -1372,1060 -43,10 -118,38 -166,60 -225,104 -534,185 -856,225 -60,7 -441,14 -505,9 z m 560,-89 c 152,-19 359,-63 465,-98 l 75,-25 -155,6 c -309,14 -774,8 -930,-11 -177,-22 -415,-66 -575,-107 -120,-30 -151,-33 -95,-10 16,7 30,16 30,21 0,13 -3,12 -108,-37 -53,-25 -149,-63 -212,-86 -563,-199 -1007,-453 -1323,-757 -123,-118 -249,-260 -241,-273 3,-4 28,19 55,52 239,288 627,560 1091,765 55,25 102,44 104,42 2,-1 -38,-27 -89,-56 -229,-133 -483,-314 -652,-465 -44,-40 -118,-101 -165,-138 -446,-344 -703,-724 -786,-1163 -18,-95 -25,-331 -12,-440 l 7,-60 -19,63 c -80,268 -68,599 31,897 155,464 492,868 1009,1209 622,411 1286,644 1965,689 113,8 408,-2 530,-18 z m -535,-210 c -383,-88 -858,-246 -1240,-415 -177,-78 -474,-231 -577,-298 -13,-8 -23,-12 -23,-9 0,8 205,158 320,234 133,88 306,191 408,242 182,92 633,205 1033,260 216,30 246,25 79,-14 z m 1120,-15 c 274,-55 490,-136 630,-233 169,-118 369,-306 487,-457 199,-256 339,-567 398,-890 31,-173 23,-339 -29,-552 -125,-522 -519,-1080 -1028,-1462 -218,-162 -719,-345 -1181,-431 -274,-50 -389,-59 -732,-60 -337,0 -431,7 -685,51 -347,60 -702,176 -949,311 -123,67 -342,304 -466,504 -173,278 -260,555 -272,860 -17,442 118,832 418,1211 154,193 614,480 1124,700 534,232 1145,411 1555,457 52,6 109,13 125,15 17,1 127,4 245,4 202,2 224,0 360,-28 z m 792,-216 c 342,-172 598,-396 798,-700 338,-512 367,-1100 85,-1679 -115,-236 -252,-421 -466,-630 -256,-249 -584,-467 -980,-651 -126,-58 -333,-144 -346,-144 -4,0 50,30 120,65 71,36 172,93 225,127 54,34 149,90 212,126 500,281 814,584 995,957 127,263 198,616 181,895 -29,449 -75,656 -206,925 -146,301 -372,544 -662,713 -72,41 -87,52 -73,52 3,0 55,-25 117,-56 z m -4380,-1106 c -137,-201 -250,-496 -288,-750 -23,-157 -16,-421 16,-568 58,-275 181,-545 347,-763 24,-33 43,-61 40,-63 -8,-9 -190,172 -259,258 -142,176 -226,341 -276,537 -24,97 -27,123 -27,301 0,151 4,214 18,280 43,198 121,378 242,556 68,100 205,267 213,259 2,-2 -9,-23 -26,-47 z m 5074,-1083 c -57,-215 -152,-408 -286,-587 -76,-100 -249,-278 -340,-348 -35,-27 -27,-16 39,55 254,274 479,625 578,905 15,43 29,77 31,75 2,-2 -8,-47 -22,-100 z M 13480,7751 c -8,-5 -67,-29 -131,-54 -257,-102 -514,-164 -829,-201 -298,-35 -729,-1 -1072,85 -153,39 -389,116 -426,139 -15,10 -15,11 3,5 552,-178 1249,-218 1882,-110 143,25 452,100 528,129 44,16 68,20 45,7 z"
       id="path28"
       transform="matrix(0.1,0,0,-0.1,0,2500)" />
  </g>
</svg>
