<?xml version="1.0" encoding="UTF-8" standalone="no"?>
<svg
   width="221.914"
   height="86.151001"
   viewBox="0 0 221.914 86.151001"
   fill="none"
   version="1.1"
   id="svg2"
   sodipodi:docname="setaloop1.svg"
   inkscape:version="1.3.2 (091e20e, 2023-11-25)"
   xmlns:inkscape="http://www.inkscape.org/namespaces/inkscape"
   xmlns:sodipodi="http://sodipodi.sourceforge.net/DTD/sodipodi-0.dtd"
   xmlns="http://www.w3.org/2000/svg"
   xmlns:svg="http://www.w3.org/2000/svg">
  <defs
     id="defs2" />
  <sodipodi:namedview
     id="namedview2"
     pagecolor="#ffffff"
     bordercolor="#000000"
     borderopacity="0.25"
     inkscape:showpageshadow="2"
     inkscape:pageopacity="0.0"
     inkscape:pagecheckerboard="0"
     inkscape:deskcolor="#d1d1d1"
     inkscape:zoom="1.4390244"
     inkscape:cx="120.5678"
     inkscape:cy="82"
     inkscape:window-width="1312"
     inkscape:window-height="429"
     inkscape:window-x="0"
     inkscape:window-y="37"
     inkscape:window-maximized="0"
     inkscape:current-layer="svg2" />
  <g
     id="g2"
     transform="translate(-15.405354,-41.887358)">
    <path
       d="m 15.824,97.0237 c 46.1326,13.4083 95.551,6.2553 135.957,-19.6788 2.738,-1.7577 5.461,-3.6191 7.73,-6.1173 2.269,-2.4983 4.078,-5.7052 4.608,-9.3654 0.494,-3.4116 -0.174,-7.0818 -1.745,-10.1331 -1.574,-3.0508 -4.025,-5.4745 -6.804,-6.8731 -2.778,-1.4 -5.868,-1.7858 -8.775,-1.2146 -2.905,0.571 -5.621,2.0831 -7.866,4.2415 -4.487,4.3186 -6.96,11.1038 -7.397,18.038 -0.44,6.9346 1.022,14.0047 3.402,20.5366 3.644,10.0071 9.49,18.9985 16.782,25.8225 7.293,6.824 16.019,11.463 25.055,13.322 9.036,1.861 18.364,0.935 26.783,-2.655 8.42,-3.59 15.914,-9.836 21.52,-17.939"
       stroke="#334155"
       stroke-width="3"
       id="path1" />
    <path
       fill-rule="evenodd"
       clip-rule="evenodd"
       d="m 226.917,114.295 10.402,-20.9859 -23.804,10.9869 c 7.013,0.006 12.591,4.167 13.402,9.999 z"
       fill="#334155"
       id="path2" />
  </g>
</svg>
