<?xml version="1.0" encoding="UTF-8" standalone="no"?>
<svg
   width="209.755"
   height="88.519997"
   viewBox="0 0 209.755 88.519997"
   fill="none"
   version="1.1"
   id="svg2"
   sodipodi:docname="setaloop2.svg"
   inkscape:version="1.3.2 (091e20e, 2023-11-25)"
   xmlns:inkscape="http://www.inkscape.org/namespaces/inkscape"
   xmlns:sodipodi="http://sodipodi.sourceforge.net/DTD/sodipodi-0.dtd"
   xmlns="http://www.w3.org/2000/svg"
   xmlns:svg="http://www.w3.org/2000/svg">
  <defs
     id="defs2" />
  <sodipodi:namedview
     id="namedview2"
     pagecolor="#ffffff"
     bordercolor="#000000"
     borderopacity="0.25"
     inkscape:showpageshadow="2"
     inkscape:pageopacity="0.0"
     inkscape:pagecheckerboard="0"
     inkscape:deskcolor="#d1d1d1"
     inkscape:zoom="0.94779116"
     inkscape:cx="141.9089"
     inkscape:cy="124.5"
     inkscape:window-width="1312"
     inkscape:window-height="429"
     inkscape:window-x="0"
     inkscape:window-y="37"
     inkscape:window-maximized="0"
     inkscape:current-layer="svg2" />
  <g
     id="g2"
     transform="translate(-34.846356,-80.07821)">
    <path
       d="m 35.5515,91.1068 c 11.1934,-5.9618 25.6716,-9.2764 41.5718,-9.5145 15.8981,-0.24 33.1837,2.5967 49.6307,8.1432 16.447,5.5465 32.018,13.7905 44.712,23.6715 12.693,9.882 22.477,21.378 28.1,33.01 1.726,3.572 3.075,7.206 3.039,10.613 -0.037,3.405 -1.576,6.586 -5.033,8.401 -2.378,1.247 -5.59,1.8 -9.031,1.639 -3.444,-0.163 -7.104,-1.028 -10.494,-2.407 -6.779,-2.758 -12.257,-7.494 -15.178,-12.374 -2.919,-4.881 -3.442,-9.872 -2.366,-14.29 1.076,-4.419 3.679,-8.313 6.79,-11.888 12.831,-14.745 34.862,-24.531 61.333,-27.2433"
       stroke="#334155"
       stroke-width="3"
       id="path1" />
    <path
       fill-rule="evenodd"
       clip-rule="evenodd"
       d="m 222.608,110.794 21.993,-13.8618 -24.72,-3.6661 c 5.04,4.1783 6.177,11.4739 2.727,17.5279 z"
       fill="#334155"
       id="path2" />
  </g>
</svg>
