<?xml version="1.0" encoding="UTF-8" standalone="no"?>
<svg
   version="1.0"
   width="635.39789pt"
   height="395.20987pt"
   viewBox="0 0 635.39789 395.20987"
   preserveAspectRatio="xMidYMid"
   id="svg32"
   sodipodi:docname="circle6.svg"
   inkscape:version="1.3.2 (091e20e, 2023-11-25)"
   xmlns:inkscape="http://www.inkscape.org/namespaces/inkscape"
   xmlns:sodipodi="http://sodipodi.sourceforge.net/DTD/sodipodi-0.dtd"
   xmlns="http://www.w3.org/2000/svg"
   xmlns:svg="http://www.w3.org/2000/svg">
  <sodipodi:namedview
     id="namedview1"
     pagecolor="#ffffff"
     bordercolor="#000000"
     borderopacity="0.25"
     inkscape:showpageshadow="2"
     inkscape:pageopacity="0.0"
     inkscape:pagecheckerboard="0"
     inkscape:deskcolor="#d1d1d1"
     inkscape:document-units="pt"
     inkscape:zoom="0.44786331"
     inkscape:cx="423.12017"
     inkscape:cy="263.47325"
     inkscape:window-width="1312"
     inkscape:window-height="429"
     inkscape:window-x="0"
     inkscape:window-y="37"
     inkscape:window-maximized="0"
     inkscape:current-layer="svg32" />
  <defs
     id="defs32" />
  <g
     id="layer6"
     transform="translate(-1683.5049,-1331.4343)"
     style="fill:#334155;fill-opacity:1">
    <path
       d="m 20180,11684 c -75,-8 -280,-24 -370,-29 -898,-54 -1807,-442 -2380,-1015 -188,-188 -310,-374 -367,-560 -14,-47 -54,-143 -88,-215 -94,-194 -131,-327 -139,-493 -15,-343 148,-677 454,-934 372,-311 1000,-543 1767,-653 254,-36 406,-46 733,-50 418,-6 569,5 947,66 883,143 1777,577 2172,1055 271,327 343,672 226,1079 -50,174 -179,408 -322,585 -83,102 -289,301 -398,385 -49,37 -119,96 -155,130 -308,294 -659,474 -1130,579 -218,48 -404,68 -670,71 -135,1 -261,1 -280,-1 z m 305,-129 c 553,-57 1063,-217 1510,-475 257,-148 326,-208 457,-400 205,-301 302,-598 299,-920 -1,-156 -22,-301 -35,-245 -140,611 -437,1048 -934,1373 -502,328 -1215,494 -1938,453 -630,-36 -1174,-171 -1689,-420 -342,-166 -568,-322 -809,-559 -118,-116 -119,-117 -81,-57 65,103 125,176 235,285 302,302 716,558 1204,742 144,54 180,60 53,8 -137,-56 -404,-193 -552,-285 -154,-95 -365,-243 -365,-256 0,-19 25,-7 113,55 398,275 921,506 1442,635 177,44 331,71 447,80 150,11 471,4 643,-14 z m 766,-49 c 136,-38 244,-76 357,-126 99,-45 85,-48 -18,-4 -78,32 -317,114 -435,148 -27,7 -45,14 -39,15 6,1 66,-14 135,-33 z m 464,-176 c 3,-6 -1,-7 -9,-4 -18,7 -21,14 -7,14 6,0 13,-4 16,-10 z m -1310,-76 c 462,-48 871,-167 1200,-351 479,-267 810,-663 974,-1168 54,-165 71,-256 71,-380 0,-101 -1,-108 -36,-178 -308,-615 -914,-962 -1814,-1037 -161,-13 -511,-13 -687,0 -1092,83 -2201,498 -2695,1008 -165,170 -264,345 -299,526 -12,63 -12,228 0,277 17,72 201,295 360,436 552,491 1386,810 2285,873 118,8 542,4 641,-6 z m 2321,-767 c 185,-220 304,-451 354,-686 29,-136 25,-363 -10,-481 -112,-387 -473,-727 -1105,-1042 -488,-244 -1065,-397 -1700,-452 -213,-19 -733,-14 -950,8 -652,67 -1205,213 -1613,427 -441,230 -699,527 -774,889 -16,77 -19,118 -14,215 6,134 19,198 67,330 l 33,90 12,-78 c 81,-519 580,-962 1459,-1297 412,-157 954,-288 1380,-335 28,-3 93,-10 145,-15 162,-18 571,-24 740,-11 290,22 551,69 760,137 57,18 105,32 107,30 2,-1 -45,-22 -103,-46 -107,-44 -128,-61 -103,-85 12,-12 28,-8 104,21 311,121 593,304 839,543 196,192 306,352 352,509 7,26 31,99 53,162 58,169 74,268 75,450 0,282 -72,540 -229,820 l -37,65 42,-40 c 23,-22 76,-79 116,-128 z"
       id="path29"
       transform="matrix(0.1,0,0,-0.1,0,2500)"
       style="fill:#334155;fill-opacity:1" />
  </g>
</svg>
