<?xml version="1.0" encoding="UTF-8" standalone="no"?>
<svg
   version="1.0"
   width="611.50897pt"
   height="529.31171pt"
   viewBox="0 0 611.50897 529.31171"
   preserveAspectRatio="xMidYMid"
   id="svg32"
   xmlns="http://www.w3.org/2000/svg"
   xmlns:svg="http://www.w3.org/2000/svg">
  <defs
     id="defs32" />
  <g
     id="layer4"
     transform="translate(-203.25488,-1265.3443)">
    <path
       d="m 5040,12344 c -530,-46 -988,-209 -1395,-498 -110,-77 -208,-160 -334,-281 -64,-61 -141,-127 -171,-147 -99,-62 -254,-194 -362,-307 -262,-273 -462,-609 -593,-996 -216,-640 -202,-1261 39,-1745 156,-314 422,-604 746,-812 90,-58 133,-82 325,-184 355,-187 714,-284 1160,-314 147,-10 250,-9 685,6 344,11 633,59 960,159 80,24 192,58 250,75 838,250 1441,768 1675,1440 187,540 160,1074 -80,1577 -115,241 -255,444 -437,638 -52,55 -116,136 -143,180 -82,132 -219,308 -336,429 -404,421 -906,679 -1481,761 -102,15 -421,27 -508,19 z m 522,-94 c 259,-38 464,-103 713,-225 252,-123 452,-265 649,-459 87,-87 213,-231 266,-306 l 25,-35 -25,18 c -100,70 -260,173 -337,216 -343,192 -780,325 -1253,381 -205,24 -605,33 -830,19 -332,-21 -724,-83 -981,-153 -114,-32 -153,-45 -309,-105 l -55,-21 45,40 c 25,22 95,78 155,124 409,310 878,485 1420,530 101,8 384,-5 517,-24 z m -227,-474 c 588,-26 1159,-191 1592,-460 190,-117 418,-303 458,-371 57,-98 171,-391 189,-485 l 6,-35 -17,25 c -19,26 -85,113 -205,271 -160,209 -265,309 -468,444 -334,222 -683,339 -1220,410 -25,3 -169,9 -320,12 -313,6 -504,-8 -797,-57 -687,-116 -1281,-387 -1686,-769 l -58,-55 21,49 c 88,206 325,565 422,638 51,39 241,130 363,175 201,74 525,143 829,177 72,8 149,17 171,19 22,3 117,8 210,12 94,4 171,7 172,8 3,2 216,-3 338,-8 z m 255,-326 c 547,-53 1024,-229 1410,-522 211,-159 296,-260 400,-473 179,-366 229,-828 144,-1335 -40,-239 -228,-613 -438,-874 -31,-38 -56,-77 -56,-86 0,-19 19,-40 36,-40 16,0 128,139 206,255 33,50 62,92 65,95 15,16 -86,-188 -132,-266 -73,-123 -195,-284 -248,-327 -56,-46 -202,-142 -302,-199 -298,-170 -622,-299 -1000,-400 l -160,-43 -245,1 c -346,1 -608,35 -911,118 -685,188 -1186,553 -1487,1082 -141,248 -239,554 -277,864 -16,135 -13,519 5,650 17,129 56,312 92,435 l 32,110 131,131 c 71,71 168,160 215,196 348,269 784,467 1258,572 235,52 251,52 92,-2 -525,-179 -901,-453 -1157,-843 -35,-53 -63,-99 -63,-103 0,-3 6,-6 13,-5 6,0 39,39 72,87 75,109 300,336 420,425 270,199 585,345 918,426 110,27 338,66 427,74 101,8 441,7 540,-3 z m -2574,-232 c -97,-136 -231,-385 -299,-555 -26,-66 -54,-114 -101,-171 -198,-247 -358,-561 -430,-850 -47,-187 -59,-286 -60,-487 -1,-157 -2,-177 -9,-115 -13,117 -1,427 23,574 96,604 369,1141 777,1525 59,56 109,101 111,101 3,0 -3,-10 -12,-22 z m 4657,-601 c 174,-245 311,-567 362,-847 23,-125 31,-421 16,-547 -88,-718 -494,-1274 -1190,-1631 -80,-41 -141,-71 -136,-65 6,5 51,41 100,79 50,38 128,107 175,153 47,46 123,116 170,156 345,295 570,635 671,1012 45,168 59,292 54,483 -5,248 -50,457 -148,690 -24,58 -47,128 -51,156 -11,85 -62,283 -105,404 l -40,115 30,-35 c 16,-19 58,-74 92,-123 z m -5098,-413 c -48,-216 -57,-297 -60,-574 -4,-287 4,-382 51,-595 159,-735 634,-1301 1354,-1613 251,-109 604,-204 891,-240 l 144,-19 -80,-7 c -68,-6 -321,5 -435,19 -144,17 -291,39 -380,56 -250,48 -552,139 -695,212 -330,166 -657,459 -858,768 -103,157 -199,371 -241,537 -124,477 -28,1002 268,1480 32,51 60,92 62,89 2,-2 -7,-53 -21,-113 z m 5068,-119 6,-70 -19,80 c -23,98 -24,105 -6,80 7,-11 16,-51 19,-90 z m 137,-370 c 52,-259 44,-530 -22,-775 -61,-224 -219,-515 -372,-685 l -46,-50 59,125 c 103,218 186,485 235,750 14,74 34,178 45,230 33,156 49,315 51,485 1,110 1,110 15,65 8,-25 24,-90 35,-145 z M 2137,8913 c -3,-10 -5,-2 -5,17 0,19 2,27 5,18 2,-10 2,-26 0,-35 z m 10,-60 c -3,-10 -5,-4 -5,12 0,17 2,24 5,18 2,-7 2,-21 0,-30 z m 21,-88 c 0,-16 -2,-15 -8,5 -4,14 -8,34 -8,45 0,16 2,15 8,-5 4,-14 8,-34 8,-45 z m 9,-47 c -3,-8 -6,-5 -6,6 -1,11 2,17 5,13 3,-3 4,-12 1,-19 z m 49,-155 c -5,-5 -36,86 -35,101 0,6 9,-13 20,-43 10,-30 17,-56 15,-58 z"
       id="path27"
       transform="matrix(0.1,0,0,-0.1,0,2500)" />
  </g>
</svg>
