<?xml version="1.0" encoding="UTF-8" standalone="no"?>
<svg
   version="1.0"
   width="512.54694pt"
   height="381.38492pt"
   viewBox="0 0 512.54694 381.38492"
   preserveAspectRatio="xMidYMid"
   id="svg32"
   xmlns="http://www.w3.org/2000/svg"
   xmlns:svg="http://www.w3.org/2000/svg">
  <defs
     id="defs32" />
  <g
     id="layer7"
     transform="translate(-252.9828,-1906.1151)">
    <path
       d="m 4955,5928 c -666,-79 -1333,-388 -1874,-867 -232,-206 -426,-489 -504,-736 -78,-250 -59,-512 55,-744 173,-351 581,-648 1118,-815 110,-34 166,-50 415,-116 245,-65 535,-102 815,-103 483,-2 868,74 1345,264 296,119 476,219 666,370 168,134 344,340 424,498 33,65 82,210 90,264 4,26 11,45 15,42 4,-3 18,-46 31,-97 21,-80 24,-117 24,-268 0,-161 -2,-183 -28,-274 -116,-417 -451,-759 -918,-940 -501,-193 -1193,-262 -1819,-181 -486,63 -930,240 -1178,470 -46,43 -78,65 -87,61 -28,-10 -15,-33 52,-97 241,-225 564,-378 978,-463 261,-54 449,-71 775,-71 405,0 660,30 1005,120 525,136 889,379 1114,742 217,351 245,738 81,1148 -15,39 -33,102 -39,142 -37,242 -158,462 -384,702 -328,347 -412,423 -627,566 -129,86 -365,205 -515,261 -129,47 -329,97 -474,118 -122,18 -424,20 -556,4 z m 542,-83 c 382,-50 853,-255 1133,-493 33,-28 29,-27 -59,15 -590,282 -1513,400 -2134,272 -321,-66 -608,-208 -815,-403 -48,-45 -125,-109 -172,-141 -46,-33 -136,-112 -200,-175 -201,-200 -327,-419 -392,-675 -19,-77 -22,-117 -22,-275 -1,-170 1,-193 26,-280 71,-254 207,-449 458,-653 l 35,-29 -50,28 c -566,312 -808,781 -656,1266 90,284 330,596 647,839 533,410 1083,639 1709,713 88,10 386,4 492,-9 z m -135,-231 c 562,-56 1073,-215 1424,-442 121,-79 164,-119 249,-232 60,-81 165,-248 165,-264 0,-2 -39,34 -87,81 -636,620 -1644,924 -2559,773 -291,-48 -620,-153 -830,-265 l -49,-26 35,31 c 96,85 298,195 456,248 179,60 445,107 624,111 52,1 97,5 100,8 8,8 308,-6 472,-23 z m -216,-125 c 216,-3 530,-55 759,-124 557,-169 1060,-499 1354,-888 36,-47 45,-70 61,-149 25,-120 27,-304 5,-412 -86,-413 -386,-727 -950,-993 -148,-69 -261,-106 -440,-142 -653,-130 -1320,-139 -1837,-26 -113,25 -274,87 -433,167 -369,186 -616,444 -713,748 -59,183 -58,414 3,625 172,593 803,1041 1640,1165 119,18 418,41 436,33 3,-1 54,-3 115,-4 z m 2209,-934 c 33,-70 65,-150 65,-164 0,-3 -10,10 -23,29 -22,33 -90,210 -81,210 2,0 20,-34 39,-75 z m 97,-512 c -11,-100 -60,-272 -87,-310 -8,-10 -5,8 7,42 33,100 49,204 50,330 v 120 l 21,-40 c 19,-38 20,-46 9,-142 z"
       id="path31"
       transform="matrix(0.1,0,0,-0.1,0,2500)" />
  </g>
</svg>
