<svg width="100" height="18" viewBox="0 0 100 18" fill="none" xmlns="http://www.w3.org/2000/svg">
<g clip-path="url(#clip0_2211_1870)">
<path d="M90.3619 0.165003C89.8895 0.240002 88.8381 0.630003 87.9542 1.065C85.2571 2.37 83.6266 4.2 83.2 6.45C82.9714 7.62 83.1542 9.885 83.6266 11.535C84.0838 13.2 84.6476 14.01 86.5828 15.84C87.9695 17.145 88.3809 17.34 90.7581 17.805C91.9161 18.03 92.1142 18.03 93.44 17.79C95.2838 17.46 96.2285 17.16 97.0057 16.635C98.2095 15.825 99.2761 14.055 99.7485 12.075C100.221 10.05 99.7028 5.52 98.7885 3.885C98.56 3.45 97.9809 2.715 97.5085 2.25C95.6495 0.435003 93.2114 -0.284998 90.3619 0.165003ZM94.0038 4.365C95.04 4.875 95.619 5.52 95.9238 6.48C96.2133 7.455 96.5181 10.245 96.4114 11.115C96.2895 12.075 95.68 13.41 95.2076 13.71C94.3238 14.28 91.3676 14.58 89.9657 14.235C89.2495 14.055 88.5181 13.38 87.2228 11.685C86.4 10.62 86.2476 10.125 86.2476 8.445C86.2476 6.81 86.4304 6.27 87.2228 5.58C88.4723 4.515 90.0723 3.93 91.8247 3.915C92.9066 3.9 93.1657 3.96 94.0038 4.365Z" fill="#334155"/>
<path d="M72.9143 0.719997C71.9085 1.065 70.9333 1.74 69.76 2.91C67.2609 5.385 66.3162 8.67 67.2762 11.49C67.8247 13.11 68.6476 14.625 69.3333 15.3C70.0038 15.96 71.4666 16.725 73.0666 17.265C73.9504 17.55 74.4533 17.61 75.9619 17.625C77.7295 17.625 77.8209 17.61 78.72 17.145C80.0152 16.485 81.1581 15.54 81.6914 14.73C83.3371 12.165 83.1238 7.815 81.1885 4.575C79.299 1.41 75.7333 -0.240002 72.9143 0.719997ZM75.6571 4.605C77.6076 5.28 78.9333 7.83 78.9333 10.92C78.9333 12.405 78.6743 13.155 77.8971 13.92L77.2266 14.595L75.8247 14.505C74.7428 14.46 74.1333 14.325 73.0666 13.935L71.6952 13.425L71.04 12.15C70.6438 11.37 70.3238 10.485 70.2171 9.885C70.0495 8.91 70.0495 8.88 70.5828 7.755C71.4971 5.88 73.1885 4.35 74.3466 4.35C74.6514 4.35 75.2457 4.47 75.6571 4.605Z" fill="#334155"/>
<path d="M7.54282 1.36502C3.99234 2.11502 3.07806 2.50501 1.81329 3.76501C-0.0152783 5.58002 -0.350516 7.20001 0.380912 10.575C0.838055 12.69 1.06663 13.26 2.0571 14.64C2.83425 15.705 3.55044 16.29 4.58663 16.665C6.49139 17.385 10.7276 16.62 12.8152 15.18C13.8362 14.475 14.6438 13.44 15.2838 12C15.7562 10.905 15.7714 10.815 15.7714 8.77501C15.7714 6.45002 15.619 5.68501 14.8876 4.30501C14.1104 2.83501 12.3733 1.60501 10.5447 1.21501C9.49329 1.00501 9.18853 1.02001 7.54282 1.36502Z" fill="#334155"/>
<path d="M56.5029 1.36496C55.3295 1.52996 54.1562 2.09996 52.8 3.16496C50.0572 5.30996 49.0819 7.73996 49.7372 10.875C50.0724 12.54 51.1391 14.64 52.0381 15.42C53.7448 16.905 56.1219 17.67 58.1791 17.415C61.3638 17.01 63.36 15.915 64.5638 13.89C65.9962 11.49 66.2095 9.59996 65.4324 6.52496C64.7772 3.91496 63.101 2.24996 60.3581 1.43996C59.4743 1.18497 57.9505 1.15496 56.5029 1.36496ZM59.9924 5.08496C61.501 5.78996 62.0191 6.85496 62.0648 9.37496C62.0953 10.485 62.0495 10.665 61.5619 11.625C61.2724 12.195 60.861 12.78 60.6476 12.93C59.9467 13.41 57.6153 13.98 56.6705 13.905C55.0705 13.77 54.6743 13.44 53.0895 10.95C52.0076 9.25496 52.5562 7.51496 54.7505 5.74496C55.9238 4.78496 56.2895 4.64996 57.7524 4.64996C58.8648 4.64996 59.1695 4.70996 59.9924 5.08496Z" fill="#334155"/>
<path d="M40.1524 1.785C38.1562 2.325 36.3124 3.15 35.4438 3.915C34.4381 4.77 33.3715 7.11 33.3715 8.43C33.3715 9.33 33.9048 11.415 34.3619 12.3C35.0477 13.635 37.5467 15.99 39.0857 16.77C41.0972 17.775 44.9067 17.46 46.6591 16.155C47.4667 15.555 48.2134 14.37 48.6553 12.975C48.9448 12.09 48.9905 11.58 48.9905 9.675C48.9905 7.74 48.9448 7.305 48.6553 6.555C48.2286 5.46 47.1162 3.795 46.3086 3.075C44.7391 1.68 42.3772 1.185 40.1524 1.785Z" fill="#334155"/>
<path d="M23.8476 2.03993C23.6799 2.06993 23.1618 2.17493 22.7047 2.26493C21.5161 2.50493 20.5714 3.01493 19.4742 4.03493C17.7676 5.59493 16.7618 8.00993 17.0666 9.79493C17.3104 11.3099 17.859 13.0499 18.2704 13.6499C19.3218 15.1799 22.7047 17.0549 24.7618 17.2199C26.6057 17.3549 29.0285 16.4249 30.4914 14.9999C32.6857 12.8549 33.219 9.32993 31.7409 6.55493C31.0399 5.24993 29.3485 3.49493 28.2666 2.95493C26.9409 2.29493 24.7466 1.84493 23.8476 2.03993Z" fill="#334155"/>
</g>
<defs>
<clipPath id="clip0_2211_1870">
<rect width="100" height="18" fill="white"/>
</clipPath>
</defs>
</svg>
