<svg width="100" height="18" viewBox="0 0 100 18" fill="none" xmlns="http://www.w3.org/2000/svg">
<g clip-path="url(#clip0_2211_1871)">
<path d="M89.753 0.265944C87.9742 0.767208 85.6177 2.34695 84.5382 3.75961C84.2342 4.15455 83.8389 4.95961 83.6565 5.52164C83.3524 6.43303 83.322 6.79759 83.3828 8.5748C83.5044 11.947 84.2342 13.5571 86.7123 15.9267C87.883 17.0356 88.2479 17.233 89.905 17.6583C91.4102 18.0533 93.3714 18.0077 95.135 17.5368C96.5185 17.1723 96.9746 16.914 97.7347 16.109C98.6013 15.2128 99.0878 14.3773 99.5743 12.9951C99.924 11.9621 99.9696 11.5824 99.9696 10.0634C99.9392 7.48113 99.5896 5.35455 98.9358 4.04822C98.2365 2.63556 96.9898 1.43556 95.4086 0.676069C94.2684 0.129234 94.162 0.114044 92.3984 0.0836639C91.1365 0.0532837 90.3155 0.114044 89.753 0.265944Z" fill="#334155"/>
<path d="M73.6526 0.508806C72.5731 0.721464 71.4785 1.4202 70.1102 2.7721C69.0612 3.80501 68.6811 4.32147 68.1794 5.35438C66.7502 8.25564 66.735 9.91134 68.1033 13.0556C69.046 15.2126 70.1862 16.2151 72.71 17.1265C74.1391 17.643 76.3436 17.886 77.5294 17.6582C79.1866 17.3544 81.3151 15.7898 82.0448 14.3468C82.729 12.9949 82.9418 11.8405 82.8506 9.91134C82.6681 5.99235 80.6917 2.54425 77.8487 1.19235C76.1763 0.402477 75.0665 0.2202 73.6526 0.508806Z" fill="#334155"/>
<path d="M6.57542 1.6026C4.47736 2.11906 3.7324 2.42285 2.74418 3.18235C1.98401 3.74437 0.752543 5.30893 0.448476 6.08361C0.0379859 7.11652 -0.0380309 8.92412 0.266036 10.3064C0.570103 11.6735 0.813356 12.2051 1.9384 13.9216C3.68679 16.6254 5.02468 17.2634 8.08056 16.914C10.6043 16.6102 12.7328 15.7444 13.9643 14.5292C14.7244 13.7849 15.7582 11.7646 16.0015 10.5646C16.2295 9.51652 16.1079 7.02538 15.7887 5.85576C15.2717 3.92665 14.1619 2.57475 12.3983 1.69374C11.5013 1.25323 11.1972 1.19247 9.99618 1.1469C8.87113 1.11652 8.2782 1.19247 6.57542 1.6026Z" fill="#334155"/>
<path d="M56.9745 1.26838C55.4085 1.46585 54.0402 2.19497 52.4743 3.65319C49.9201 6.06838 49.2816 8.1494 50.133 11.4456C50.7259 13.7545 51.8966 15.4557 53.5537 16.3975C55.1349 17.2937 56.1687 17.5519 57.8867 17.4608C61.3683 17.2785 63.664 15.9874 64.9866 13.4659C65.838 11.8709 66.0813 10.7469 65.9597 9.00003C65.686 4.68611 63.9072 2.27092 60.3192 1.32914C59.3462 1.0861 58.6164 1.07092 56.9745 1.26838Z" fill="#334155"/>
<path d="M39.4907 2.01274C36.374 3.09122 35.3402 3.85072 34.4584 5.70388C33.7742 7.14692 33.5918 8.19502 33.7894 9.36464C34.0783 10.9748 34.58 12.357 35.1881 13.1621C36.0091 14.2558 38.3656 16.3216 39.3843 16.8381C40.2204 17.2634 40.3269 17.2786 42.4553 17.2786C44.4166 17.2786 44.751 17.233 45.5568 16.914C47.2444 16.2457 48.3086 14.8938 48.932 12.6457C49.3576 11.1722 49.312 7.89122 48.8711 6.66084C48.1414 4.64059 46.6515 2.83299 45.0855 2.0735C44.3101 1.67856 44.0213 1.63299 42.5313 1.58742C40.9958 1.55704 40.7526 1.58742 39.4907 2.01274Z" fill="#334155"/>
<path d="M22.919 2.22538C21.2011 2.66588 20.1976 3.41019 18.9358 5.15702C17.8867 6.61525 17.5066 7.7393 17.4154 9.53171C17.3394 10.9899 17.3546 11.0963 17.8259 12.2659C18.5405 13.9672 19.8328 15.2431 21.8244 16.2001C23.3143 16.9292 24.713 17.3545 25.5036 17.3545C26.7503 17.3393 28.9092 16.519 30.2623 15.5469C32.2995 14.0431 33.3029 10.4127 32.4211 7.60259C32.0562 6.43297 30.7184 4.51905 29.7149 3.71399C27.8449 2.24057 25.1995 1.66335 22.919 2.22538Z" fill="#334155"/>
</g>
<defs>
<clipPath id="clip0_2211_1871">
<rect width="100" height="18" fill="white"/>
</clipPath>
</defs>
</svg>
