<svg width="50" height="50" viewBox="0 0 50 50" fill="none" xmlns="http://www.w3.org/2000/svg">
<g clip-path="url(#clip0_2213_1973)">
<path d="M23.8437 0.262505C23.2937 0.293755 22.8312 0.343754 22.8125 0.368752C22.7937 0.393753 22.5437 0.443752 22.2562 0.487503C21.9625 0.525002 21.7125 0.587502 21.6937 0.618752C21.675 0.650002 21.55 0.693752 21.4187 0.718754C21.2937 0.743752 21.1875 0.787502 21.1875 0.812504C21.1875 0.837502 21.075 0.893753 20.9375 0.937504C20.8 0.981255 20.6875 1.0375 20.6875 1.0625C20.6875 1.08125 20.5875 1.1375 20.4687 1.18125C20.35 1.225 20.25 1.2875 20.25 1.31875C20.25 1.35 20.2187 1.375 20.175 1.375C20.0875 1.375 19.3125 2.15 19.3125 2.24375C19.3125 2.275 19.2562 2.34375 19.1937 2.3875C19.1312 2.43125 19.0375 2.6 18.9937 2.75C18.95 2.90625 18.875 3.06875 18.8312 3.1125C18.7875 3.15625 18.75 3.29375 18.75 3.4125C18.75 3.53125 18.725 3.625 18.6875 3.625C18.6062 3.625 18.6062 4.29375 18.6812 4.325C18.7187 4.33125 18.7625 4.4875 18.7812 4.6625L18.825 4.98125L18.6 5.025C18.475 5.05 18.375 5.09375 18.375 5.125C18.375 5.15625 18.2625 5.21875 18.125 5.25625C17.9875 5.3 17.875 5.35625 17.875 5.38125C17.875 5.4125 17.7625 5.46875 17.625 5.50625C17.4875 5.55 17.375 5.60625 17.375 5.6375C17.375 5.66875 17.3062 5.71875 17.2187 5.75C17.1312 5.78125 17.0625 5.8375 17.0625 5.875C17.0625 5.90625 17.025 5.9375 16.9875 5.9375C16.9437 5.9375 16.825 6.00625 16.725 6.09375C16.625 6.18125 16.5062 6.25 16.4687 6.25C16.425 6.25 16.375 6.2875 16.3562 6.3375C16.3375 6.3875 16.2375 6.44375 16.1312 6.46875C16.025 6.49375 15.9375 6.53125 15.9375 6.55625C15.9375 6.58125 15.825 6.64375 15.6875 6.6875C15.55 6.73125 15.4375 6.79375 15.4375 6.825C15.4375 6.85625 15.3687 6.90625 15.2812 6.9375C15.1937 6.96875 15.125 7.025 15.125 7.0625C15.125 7.09375 15.0875 7.125 15.0375 7.125C14.9875 7.125 14.8875 7.19375 14.8062 7.28125C14.725 7.3625 14.625 7.4375 14.5875 7.4375C14.55 7.4375 14.4375 7.5375 14.3375 7.6625L14.1562 7.88125L13.75 7.84375C13.525 7.81875 13.325 7.76875 13.3 7.725C13.2312 7.61875 9.73748 7.625 9.69998 7.73125C9.68748 7.78125 9.57498 7.8125 9.43748 7.8125C9.09373 7.8125 8.24998 7.94375 8.24998 8C8.24998 8.025 8.09373 8.08125 7.90623 8.125C7.71873 8.16875 7.56248 8.23125 7.56248 8.2625C7.56248 8.29375 7.49373 8.34375 7.40623 8.375C7.31873 8.40625 7.24998 8.4625 7.24998 8.5C7.24998 8.53125 7.21248 8.5625 7.16873 8.5625C7.07498 8.5625 6.62498 8.975 6.62498 9.0625C6.62498 9.09375 6.51873 9.23125 6.39373 9.375C6.26248 9.5125 6.08748 9.70625 5.99998 9.8125C5.91248 9.9125 5.80623 10.0375 5.76873 10.0875C5.72498 10.1375 5.65623 10.3813 5.61873 10.6375C5.57498 10.8875 5.51873 11.1188 5.49373 11.15C5.46248 11.1875 5.43748 11.4125 5.43748 11.6563V12.1063L5.10623 12.1813C4.90623 12.225 4.74998 12.3 4.69998 12.375C4.65623 12.4438 4.58123 12.5 4.53123 12.5C4.48123 12.5 4.43748 12.5313 4.43748 12.5625C4.43748 12.6 4.36873 12.6563 4.28123 12.6875C4.19373 12.7188 4.12498 12.7688 4.12498 12.8C4.12498 12.825 4.02498 12.8875 3.90623 12.9375C3.78748 12.9875 3.68748 13.0438 3.68748 13.075C3.68748 13.1 3.64373 13.125 3.59373 13.125C3.53748 13.125 3.48123 13.1625 3.46248 13.2063C3.44373 13.2563 3.33748 13.3313 3.21873 13.375C3.09998 13.425 2.99998 13.475 2.99998 13.5C2.99998 13.5188 2.89998 13.575 2.78123 13.6188C2.66248 13.6625 2.56248 13.7188 2.56248 13.75C2.56248 13.7813 2.44998 13.8438 2.31248 13.8813C2.17498 13.925 2.06248 13.975 2.06248 14C2.06248 14.0313 1.93748 14.0875 1.78123 14.1313C1.62498 14.175 1.49998 14.2313 1.49998 14.2563C1.49998 14.2813 1.39998 14.3188 1.27498 14.3375C1.15623 14.3625 1.03748 14.425 1.01873 14.475C0.999977 14.5188 0.956227 14.5625 0.912476 14.5625C0.874977 14.5625 0.774976 14.6375 0.693726 14.7188C0.612476 14.8063 0.531227 14.875 0.506227 14.875C0.481227 14.875 0.418727 14.95 0.368727 15.0438C0.318727 15.1438 0.243727 15.2563 0.193727 15.3063C0.124977 15.3813 0.118727 15.6125 0.156227 16.525C0.181227 17.15 0.224977 17.6688 0.249977 17.6875C0.331227 17.7375 0.368727 18.7625 0.412477 22.0438C0.431227 23.775 0.474977 25.0625 0.506227 25.0625C0.581227 25.0625 0.581227 29.4188 0.512477 29.45C0.456227 29.4688 0.312477 32.1 0.312477 33.0125C0.312477 33.3375 0.287477 33.5 0.237477 33.5188C0.112477 33.5563 0.143727 35.125 0.268727 35.1938C0.318727 35.225 0.374977 35.3125 0.399977 35.3938C0.418727 35.475 0.512477 35.5813 0.606227 35.6313C0.699977 35.6813 0.824977 35.7625 0.881226 35.8125C1.14373 36.0375 1.96248 36.625 2.62498 37.0625C3.33748 37.5313 3.66873 37.7 4.68748 38.1313C5.88123 38.6313 6.67498 39.0313 6.76873 39.175C6.79373 39.2125 6.86248 39.25 6.91248 39.25C6.96248 39.25 7.01873 39.2875 7.03748 39.3375C7.05623 39.3875 7.13748 39.4438 7.22498 39.4625C7.30623 39.4875 7.37498 39.525 7.37498 39.5563C7.37498 39.5875 7.47498 39.65 7.59373 39.6875C7.71248 39.725 7.81248 39.7813 7.81248 39.8125C7.81248 39.8375 7.89373 39.8938 7.99998 39.9375C8.09998 39.9813 8.18748 40.0375 8.18748 40.0625C8.18748 40.0875 8.26873 40.1438 8.37498 40.1875C8.47498 40.2313 8.56248 40.2875 8.56248 40.3063C8.56248 40.3313 8.66248 40.3875 8.78123 40.4375C8.89998 40.4875 8.99998 40.5438 8.99998 40.5625C8.99998 40.5875 9.06873 40.6375 9.15623 40.675C9.24373 40.7188 9.34998 40.7813 9.39373 40.8125C9.68123 41.0563 9.78123 41.125 9.88123 41.1563C9.94998 41.1813 9.99998 41.2188 9.99998 41.2438C9.99998 41.275 10.0812 41.3313 10.1875 41.375C10.2875 41.4188 10.375 41.475 10.375 41.4938C10.375 41.5188 10.475 41.575 10.5937 41.625C10.7125 41.675 10.8125 41.7313 10.8125 41.7563C10.8125 41.775 10.9 41.8313 11 41.875C11.1062 41.9188 11.1875 41.975 11.1875 42C11.1875 42.025 11.2812 42.0813 11.3937 42.1313C11.5 42.175 11.6187 42.25 11.6437 42.2938C11.6687 42.3375 11.7375 42.375 11.7812 42.375C11.8312 42.375 11.875 42.4 11.875 42.4313C11.875 42.4625 11.9625 42.5188 12.0625 42.5625C12.1687 42.6063 12.25 42.6625 12.25 42.6875C12.25 42.7188 12.3375 42.7688 12.4375 42.8063C12.5437 42.8375 12.625 42.8938 12.625 42.925C12.625 42.9563 12.7375 43.0125 12.875 43.0563C13.0125 43.0938 13.125 43.1563 13.125 43.1875C13.125 43.2125 13.225 43.275 13.3437 43.3125C13.4625 43.35 13.5625 43.4063 13.5625 43.4313C13.5625 43.4563 13.6625 43.5125 13.7812 43.5625C13.9 43.6125 14 43.6688 14 43.6938C14 43.7188 14.0687 43.7563 14.1562 43.775C14.2437 43.8 14.3125 43.8375 14.3125 43.8688C14.3125 43.9 14.3937 43.9438 14.5 43.9688C14.6 43.9938 14.7062 44.0438 14.7312 44.0875C14.7625 44.1313 14.8875 44.2063 15.0187 44.2438C15.1437 44.2875 15.25 44.3438 15.25 44.3688C15.25 44.3938 15.3625 44.45 15.5 44.4938C15.6375 44.5313 15.75 44.5938 15.75 44.625C15.75 44.65 15.8312 44.6938 15.9375 44.7188C16.0375 44.7438 16.1437 44.7938 16.1687 44.8375C16.2 44.8813 16.325 44.9563 16.4562 44.9938C16.5812 45.0375 16.6875 45.0938 16.6875 45.125C16.6875 45.1563 16.775 45.1938 16.875 45.2188C16.9812 45.2438 17.0625 45.2813 17.0625 45.3125C17.0625 45.3438 17.1625 45.4 17.2812 45.4375C17.4 45.475 17.5 45.5375 17.5 45.5625C17.5 45.5938 17.6125 45.6563 17.75 45.6938C17.8875 45.7375 18 45.7938 18 45.825C18 45.8563 18.0875 45.9125 18.1875 45.9438C18.2937 45.9813 18.375 46.0313 18.375 46.0563C18.375 46.0813 18.475 46.1375 18.5937 46.1875C18.7125 46.2375 18.8125 46.2938 18.8125 46.3188C18.8125 46.3438 18.9 46.3813 19 46.4063C19.1062 46.4313 19.1875 46.475 19.1875 46.5063C19.1875 46.5438 19.275 46.6 19.375 46.6313C19.4812 46.6688 19.5625 46.7188 19.5625 46.7438C19.5625 46.7688 19.6625 46.825 19.7812 46.875C19.9 46.925 20 46.9813 20 47C20 47.025 20.1125 47.075 20.25 47.1188C20.3875 47.1563 20.5 47.2125 20.5 47.2438C20.5 47.2688 20.6125 47.325 20.75 47.3688C20.8875 47.4063 21 47.4625 21 47.4938C21 47.5188 21.1 47.575 21.2187 47.625C21.3375 47.675 21.4375 47.7313 21.4375 47.7563C21.4375 47.7813 21.5187 47.8188 21.625 47.8438C21.7312 47.8688 21.8125 47.9125 21.8125 47.9375C21.8125 47.9688 21.925 48.0313 22.0625 48.0688C22.2 48.1125 22.3125 48.1688 22.3125 48.2C22.3125 48.2313 22.4 48.2875 22.5 48.3188C22.6062 48.3563 22.6875 48.4063 22.6875 48.4313C22.6875 48.4563 22.8 48.5125 22.9437 48.5563C23.0875 48.6 23.2875 48.7313 23.3937 48.85C23.5062 48.9688 23.6312 49.0625 23.675 49.0625C23.7187 49.0625 23.7687 49.1 23.7875 49.15C23.8062 49.2 23.8875 49.2563 23.975 49.275C24.0562 49.3 24.125 49.3375 24.125 49.3688C24.125 49.4 24.225 49.4625 24.3437 49.5C24.4625 49.5375 24.5625 49.5938 24.5625 49.625C24.5625 49.7125 25.2187 49.8313 25.4625 49.7875C25.5812 49.7625 25.7062 49.7063 25.7312 49.6625C25.7625 49.6188 25.8875 49.5438 26.0187 49.5063C26.1437 49.4625 26.25 49.4 26.25 49.3688C26.25 49.3375 26.2937 49.3125 26.3437 49.3125C26.4 49.3125 26.4562 49.275 26.475 49.2313C26.4937 49.1813 26.6 49.1063 26.7187 49.0625C26.8375 49.0125 26.9375 48.9563 26.9375 48.9375C26.9375 48.9188 27.0375 48.8625 27.1562 48.8125C27.275 48.7625 27.375 48.7 27.375 48.675C27.375 48.6438 27.4437 48.5938 27.5312 48.5625C27.6187 48.5313 27.6875 48.4813 27.6875 48.45C27.6875 48.425 27.7875 48.3625 27.9062 48.3125C28.025 48.2625 28.125 48.2 28.125 48.175C28.125 48.1438 28.1937 48.0938 28.2812 48.0625C28.3687 48.0313 28.4375 47.975 28.4375 47.9375C28.4375 47.9063 28.5062 47.8625 28.5937 47.8375C28.6812 47.8188 28.75 47.775 28.75 47.7438C28.75 47.7125 28.8187 47.6563 28.9062 47.625C28.9937 47.5938 29.0625 47.5438 29.0625 47.5125C29.0625 47.4875 29.1625 47.425 29.2812 47.3813C29.4 47.3375 29.5 47.2813 29.5 47.25C29.5 47.2188 29.6 47.1625 29.7187 47.1188C29.8375 47.075 29.9375 47.0188 29.9375 46.9938C29.9375 46.9688 30.025 46.9188 30.125 46.875C30.2312 46.8313 30.3125 46.775 30.3125 46.75C30.3125 46.7188 30.4 46.6813 30.5062 46.6563C30.6125 46.6313 30.7125 46.575 30.725 46.5313C30.7437 46.4875 30.825 46.4313 30.9125 46.4125C30.9937 46.3875 31.0625 46.35 31.0625 46.3188C31.0625 46.2875 31.1875 46.2313 31.3437 46.1875C31.5 46.1438 31.625 46.0813 31.625 46.05C31.625 46.0188 31.7125 45.9625 31.8125 45.9313C31.9187 45.8938 32 45.8438 32 45.8188C32 45.7938 32.1 45.7375 32.2187 45.6875C32.3375 45.6438 32.4437 45.5688 32.4625 45.525C32.4812 45.4813 32.575 45.4313 32.675 45.4063C32.7812 45.3875 32.8812 45.325 32.9 45.275C32.9187 45.225 32.975 45.1875 33.0312 45.1875C33.0812 45.1875 33.125 45.1563 33.125 45.125C33.125 45.0875 33.1937 45.0313 33.2812 45C33.3687 44.9688 33.4375 44.9125 33.4375 44.8813C33.4375 44.85 33.525 44.7938 33.625 44.75C33.7312 44.7063 33.8125 44.65 33.8125 44.6188C33.8125 44.5938 33.9125 44.5375 34.0312 44.4938C34.15 44.45 34.25 44.3938 34.25 44.3688C34.25 44.3438 34.3375 44.2938 34.4375 44.25C34.5437 44.2063 34.625 44.15 34.625 44.1188C34.625 44.0938 34.725 44.0375 34.8437 43.9938C34.9625 43.95 35.0625 43.8875 35.0625 43.8625C35.0625 43.8375 35.1062 43.8125 35.1562 43.8125C35.2 43.8125 35.2687 43.775 35.2937 43.725C35.3187 43.6813 35.45 43.6063 35.5812 43.5688C35.7062 43.525 35.8125 43.4688 35.8125 43.4438C35.8125 43.4188 35.925 43.3625 36.0625 43.3188C36.2 43.2813 36.3125 43.2188 36.3125 43.1938C36.3125 43.1625 36.4375 43.1063 36.5937 43.0625C36.75 43.0188 36.875 42.9625 36.875 42.9375C36.875 42.9063 36.9625 42.8563 37.0625 42.8188C37.1687 42.7875 37.25 42.7313 37.25 42.7C37.25 42.6688 37.3625 42.6125 37.5 42.5688C37.6375 42.5313 37.75 42.4688 37.75 42.4375C37.75 42.4063 37.85 42.3625 37.9687 42.3375C38.0875 42.3188 38.1875 42.275 38.1875 42.25C38.1875 42.225 38.3 42.175 38.4375 42.1313C38.575 42.0938 38.6875 42.0375 38.6875 42.0063C38.6875 41.9813 38.7875 41.925 38.9062 41.875C39.025 41.825 39.125 41.7688 39.125 41.7438C39.125 41.7188 39.2687 41.6688 39.4375 41.625C39.6125 41.5813 39.75 41.525 39.75 41.4938C39.75 41.4688 39.8625 41.4063 40 41.3688C40.1375 41.325 40.25 41.2688 40.25 41.2438C40.25 41.2188 40.3562 41.1625 40.4875 41.1188C40.6125 41.0813 40.7437 41.0063 40.7687 40.9625C40.7937 40.9125 40.8625 40.875 40.9062 40.875C40.9562 40.875 41 40.85 41 40.825C41 40.7938 41.1125 40.7313 41.2437 40.6875C41.3812 40.6438 41.5062 40.5688 41.525 40.5313C41.5375 40.4875 41.6375 40.4313 41.7437 40.4063C41.85 40.3813 41.9375 40.3438 41.9375 40.3125C41.9375 40.2875 42.025 40.2313 42.125 40.1875C42.2312 40.1438 42.3125 40.0875 42.3125 40.0625C42.3125 40.0313 42.4 39.9938 42.5062 39.9688C42.6125 39.9438 42.7125 39.8875 42.7312 39.8438C42.7437 39.7938 42.8437 39.7375 42.95 39.7188C43.05 39.6938 43.15 39.6375 43.1625 39.5938C43.1812 39.55 43.2625 39.4938 43.35 39.475C43.4312 39.45 43.5 39.4125 43.5 39.3813C43.5 39.35 43.625 39.2938 43.7812 39.25C43.9375 39.2063 44.0625 39.1438 44.0625 39.1125C44.0625 39.0813 44.15 39.025 44.25 38.9938C44.3562 38.9563 44.4375 38.9063 44.4375 38.8813C44.4375 38.8563 44.55 38.8 44.6875 38.7563C44.825 38.7188 44.9375 38.6563 44.9375 38.625C44.9375 38.6 45.0375 38.5375 45.1562 38.5C45.275 38.4625 45.375 38.4 45.375 38.3688C45.375 38.3375 45.4187 38.3125 45.4687 38.3125C45.525 38.3125 45.5812 38.275 45.6 38.225C45.6187 38.175 45.7187 38.1125 45.8187 38.0938C45.9187 38.0688 46.0187 38.0188 46.0437 37.9813C46.075 37.9375 46.1812 37.8625 46.2812 37.8125C46.3875 37.7625 46.4875 37.6875 46.5187 37.6438C46.5437 37.6063 46.65 37.5563 46.75 37.5313C46.8562 37.5063 46.9375 37.4625 46.9375 37.4313C46.9375 37.4 47.0062 37.3438 47.0937 37.3125C47.1812 37.2813 47.25 37.225 47.25 37.1938C47.25 37.1625 47.3125 37.125 47.3937 37.1C47.475 37.0813 47.6062 37.0125 47.6937 36.9375C47.775 36.8688 47.875 36.7938 47.9062 36.7625C47.9437 36.7375 48.0625 36.6688 48.175 36.625C48.2812 36.575 48.375 36.5125 48.375 36.4938C48.375 36.4688 48.4562 36.4188 48.5625 36.375C48.6625 36.3313 48.75 36.275 48.75 36.2438C48.75 36.2125 48.825 36.1875 48.9125 36.1875C49.2562 36.1875 49.625 35.8625 49.6687 35.5063C49.6875 35.3625 49.7312 35.25 49.7562 35.25C49.7875 35.25 49.8125 35.1375 49.8125 35C49.8125 34.8625 49.7875 34.75 49.7625 34.75C49.6937 34.75 49.5625 33.3375 49.5625 32.6375C49.5625 32.3375 49.5375 32.125 49.5 32.125C49.4562 32.125 49.4375 30.4813 49.4375 27.3125C49.4375 24.1438 49.4562 22.5 49.5 22.5C49.5375 22.5 49.5625 22.25 49.5625 21.875C49.5625 21.5313 49.5375 21.25 49.5062 21.25C49.475 21.25 49.4437 20.05 49.425 18.55C49.4062 16.4938 49.3875 15.85 49.325 15.825C49.2875 15.8125 49.25 15.7625 49.25 15.7125C49.25 15.625 49.125 15.3688 49.0562 15.3125C49.0312 15.2938 48.9937 15.1875 48.9687 15.075C48.9437 14.9438 48.8687 14.8438 48.775 14.8C48.6937 14.7625 48.625 14.7063 48.625 14.6813C48.625 14.6563 48.55 14.6188 48.4625 14.6C48.3687 14.575 48.2562 14.5125 48.2062 14.4688C48.1562 14.4188 48.05 14.375 47.9687 14.375C47.8875 14.375 47.7812 14.3375 47.7375 14.2938C47.6937 14.2438 47.55 14.1688 47.4187 14.1313C47.2937 14.0875 47.1875 14.0313 47.1875 14.0063C47.1875 13.9813 47.075 13.925 46.9375 13.8813C46.8 13.8438 46.6875 13.7813 46.6875 13.7563C46.6875 13.725 46.5625 13.6688 46.4062 13.625C46.25 13.5813 46.125 13.525 46.125 13.4938C46.125 13.4625 46 13.4063 45.8437 13.3688C45.6875 13.3313 45.5625 13.275 45.5625 13.2438C45.5625 13.2188 45.4625 13.175 45.3437 13.15C45.225 13.1313 45.125 13.0875 45.125 13.0625C45.125 13.0375 45.0125 12.9813 44.875 12.9375C44.7375 12.8938 44.625 12.8375 44.625 12.8125C44.625 12.7875 44.5687 12.75 44.5062 12.7313C44.4062 12.7063 44.3812 12.6188 44.3437 12.2125C44.275 11.4188 44.1937 10.9438 44.025 10.3438C43.8562 9.76875 43.6312 9.18125 43.5562 9.125C43.5375 9.10625 43.4812 8.9875 43.4312 8.85625C43.3875 8.73125 43.325 8.625 43.3 8.625C43.275 8.625 43.25 8.5875 43.25 8.54375C43.25 8.45 42.6625 7.875 42.5687 7.875C42.525 7.875 42.4812 7.83125 42.4625 7.78125C42.4375 7.73125 42.3875 7.6875 42.3375 7.6875C42.2937 7.6875 42.2312 7.65 42.2062 7.6C42.1812 7.55625 42.05 7.48125 41.925 7.44375C41.7937 7.4 41.6875 7.34375 41.6875 7.31875C41.6875 7.29375 41.5312 7.23125 41.3437 7.1875C41.1562 7.14375 41 7.08125 41 7.05625C41 7.03125 40.7875 6.975 40.5312 6.93125C40.275 6.89375 40.0625 6.8375 40.0625 6.8125C40.0625 6.74375 39.1812 6.625 38.6562 6.625C38.3875 6.625 38.1875 6.6 38.1875 6.5625C38.1875 6.525 38.1187 6.5 38.0312 6.5C37.9437 6.5 37.875 6.525 37.875 6.5625C37.875 6.6 37.7 6.625 37.4812 6.625C36.9875 6.625 36.0437 6.74375 36 6.80625C35.9812 6.8375 35.7687 6.89375 35.5187 6.9375C35.0437 7.0125 34.9312 6.9875 34.6625 6.74375C34.5937 6.675 34.5 6.625 34.4562 6.625C34.4125 6.625 34.375 6.6 34.375 6.56875C34.375 6.5375 34.2812 6.475 34.175 6.43125C34.0625 6.3875 33.9312 6.3125 33.8875 6.26875C33.8437 6.225 33.7625 6.1875 33.7125 6.1875C33.6625 6.1875 33.625 6.1625 33.625 6.1375C33.625 6.10625 33.5125 6.04375 33.375 6C33.2375 5.95625 33.125 5.9 33.125 5.875C33.125 5.85625 32.9875 5.8 32.8125 5.75625C32.6437 5.7125 32.5 5.65 32.5 5.625C32.5 5.59375 32.3875 5.55625 32.25 5.53125C32.1125 5.50625 31.9562 5.45 31.9125 5.4C31.8625 5.35625 31.6937 5.28125 31.5375 5.2375C31.3812 5.19375 31.25 5.1375 31.25 5.1125C31.25 5.0875 31.2062 5.0625 31.1562 5.0625C31.0812 5.0625 31.0625 4.96875 31.0625 4.6C31.0625 4.3375 31.0875 4.125 31.125 4.1125C31.1625 4.1 31.2062 3.9375 31.2312 3.75C31.25 3.5625 31.3 3.3875 31.3375 3.3625C31.3875 3.33125 31.3812 3.3125 31.3312 3.3125C31.275 3.3125 31.25 3.20625 31.25 3.00625C31.25 2.825 31.2125 2.6625 31.1625 2.6125C31.1187 2.5625 31.0562 2.45625 31.0312 2.375C30.9937 2.24375 30.7812 2.0125 30.3 1.59375C30.2375 1.54375 30.1625 1.5 30.1312 1.5C30.0937 1.5 30.0312 1.45 29.9875 1.3875C29.9437 1.31875 29.7937 1.23125 29.6562 1.1875C29.5187 1.14375 29.375 1.06875 29.3312 1.025C29.2875 0.981255 29.1375 0.931252 29 0.906254C28.8625 0.881252 28.75 0.843754 28.75 0.812504C28.75 0.787502 28.6125 0.750004 28.4375 0.725002C28.2687 0.700005 28.125 0.656254 28.125 0.631252C28.125 0.600002 27.9437 0.537502 27.7187 0.493752C27.4937 0.450005 27.3125 0.393753 27.3125 0.368752C27.3125 0.293755 26.225 0.187504 25.525 0.193752C25.15 0.200005 24.3937 0.231255 23.8437 0.262505ZM26.425 2.73125C26.45 2.76875 26.675 2.8375 26.925 2.88125C27.1687 2.925 27.375 2.98125 27.375 3.00625C27.375 3.025 27.5875 3.08125 27.8437 3.11875C28.1 3.1625 28.3125 3.21875 28.3125 3.24375C28.3125 3.26875 28.4687 3.325 28.6562 3.36875C28.8437 3.4125 29 3.46875 29 3.5C29 3.53125 29.0562 3.575 29.125 3.59375C29.225 3.625 29.25 3.6875 29.25 3.94375C29.25 4.1125 29.225 4.25 29.1937 4.25C29.1625 4.25 29.1 4.35625 29.0562 4.48125C29.0187 4.6125 28.9437 4.74375 28.9 4.76875C28.85 4.79375 28.8125 4.85 28.8125 4.8875C28.8125 5 28.2687 5.49375 28.1 5.5375C28.0125 5.55625 27.9375 5.6 27.9375 5.63125C27.9375 5.65625 27.8187 5.7125 27.675 5.75625C27.525 5.79375 27.3937 5.84375 27.375 5.86875C27.3375 5.91875 26.5937 6.0625 26.3562 6.0625C26.2687 6.0625 26.1875 6.09375 26.175 6.13125C26.1437 6.21875 24.0375 6.2125 24.0125 6.125C24 6.09375 23.875 6.0625 23.7437 6.0625C23.4687 6.0625 22.925 5.94375 22.875 5.875C22.8562 5.85 22.6937 5.79375 22.5187 5.75C22.3375 5.7125 22.1875 5.65 22.1875 5.625C22.1875 5.6 22.1062 5.54375 22 5.50625C21.9 5.475 21.8125 5.41875 21.8125 5.39375C21.8125 5.36875 21.7187 5.3 21.6125 5.25625C21.3687 5.15 21.0687 4.85 20.9375 4.59375C20.8875 4.4875 20.8062 4.36875 20.7562 4.31875C20.5312 4.08125 20.8312 3.4375 21.2062 3.34375C21.3 3.31875 21.375 3.275 21.375 3.25C21.375 3.21875 21.5375 3.1625 21.7375 3.11875C21.9312 3.075 22.1125 3.01875 22.1312 2.9875C22.15 2.9625 22.4687 2.90625 22.85 2.8625C23.225 2.825 23.5437 2.76875 23.5625 2.74375C23.6187 2.6625 24.1 2.6375 25.2687 2.65C25.9875 2.65625 26.4 2.6875 26.425 2.73125ZM29.95 6.7125C29.9625 7.35 29.9562 7.36875 29.75 7.55C29.6437 7.64375 29.5625 7.7375 29.5625 7.76875C29.5625 7.8 29.4312 7.9625 29.2687 8.13125C29.0125 8.3875 28.8875 8.4625 28.4062 8.61875C28.1 8.725 27.4375 8.86875 26.9375 8.94375C25.6375 9.1375 24.2875 9.06875 22.575 8.7125C21.7687 8.54375 21.3312 8.38125 20.8625 8.0625C20.6125 7.8875 20.3687 7.75 20.3312 7.75C20.275 7.75 20.25 7.60625 20.25 7.25C20.25 6.8625 20.2687 6.75 20.3375 6.75C20.3875 6.75 20.4375 6.7875 20.4562 6.8375C20.475 6.8875 20.575 6.94375 20.6812 6.96875C20.7875 6.99375 20.875 7.0375 20.875 7.06875C20.875 7.10625 20.9625 7.1625 21.0625 7.19375C21.1687 7.23125 21.25 7.2875 21.25 7.3125C21.25 7.34375 21.3937 7.4 21.5625 7.44375C21.7375 7.4875 21.875 7.54375 21.875 7.56875C21.875 7.59375 22 7.6375 22.1562 7.6625C22.3125 7.68125 22.4375 7.71875 22.4375 7.74375C22.4375 7.8 23.2375 7.9375 23.5312 7.9375C23.65 7.9375 23.75 7.9625 23.75 8C23.75 8.0375 23.9875 8.0625 24.3437 8.0625C24.7 8.0625 24.9375 8.0375 24.9375 8C24.9375 7.9625 25.0062 7.9375 25.0937 7.9375C25.3437 7.9375 26.125 7.79375 26.125 7.74375C26.125 7.71875 26.2687 7.68125 26.4375 7.65625C26.6125 7.63125 26.75 7.5875 26.75 7.55625C26.75 7.525 26.825 7.5 26.9125 7.5C27.1062 7.5 27.6437 7.36875 27.6875 7.3125C27.7062 7.2875 27.85 7.2375 28.0187 7.1875C28.1812 7.14375 28.3125 7.0875 28.3125 7.0625C28.3125 7.0375 28.4125 6.99375 28.5312 6.975C28.65 6.95 28.7812 6.9 28.825 6.85625C28.8687 6.8125 28.9875 6.7375 29.0937 6.6875C29.1937 6.6375 29.325 6.55 29.3812 6.5C29.8437 6.0875 29.9312 6.11875 29.95 6.7125ZM18.5125 6.85625C18.5187 7.05625 18.5125 7.45 18.5062 7.73125C18.4875 8.225 18.575 8.6875 18.6937 8.6875C18.725 8.6875 18.75 8.73125 18.75 8.78125C18.75 8.8375 18.7875 8.89375 18.8375 8.9125C18.8875 8.93125 18.9437 9.0125 18.9625 9.09375C19.0375 9.375 19.5625 9.80625 20.275 10.1563C20.6562 10.3375 21.0562 10.5125 21.1562 10.5375C21.2625 10.5625 21.375 10.6 21.4062 10.625C21.4937 10.6875 22.025 10.8125 22.2125 10.8125C22.3 10.8125 22.375 10.8375 22.375 10.8625C22.375 10.9313 23.3687 11.0625 23.8625 11.0625C24.0687 11.0625 24.2625 11.0875 24.2812 11.125C24.3312 11.2 25.5 11.2125 25.5 11.1313C25.5 11.1063 25.6875 11.0625 25.925 11.0438C26.425 11 27.7437 10.7375 28.3125 10.5625C28.8812 10.3938 29.725 9.9 30.0937 9.53125C30.8625 8.75 30.9937 8.58125 31.0375 8.31875C31.0625 8.18125 31.1 8.0625 31.1312 8.0625C31.1625 8.0625 31.1875 7.75625 31.1875 7.38125C31.1875 6.73125 31.1937 6.7 31.3125 6.73125C31.3812 6.75 31.4375 6.7875 31.4375 6.8125C31.4375 6.8375 31.55 6.89375 31.6812 6.9375C31.8187 6.98125 31.9437 7.05625 31.9625 7.09375C31.975 7.1375 32.075 7.19375 32.175 7.21875C32.2812 7.2375 32.3812 7.29375 32.3937 7.34375C32.4125 7.3875 32.5125 7.44375 32.6187 7.46875C32.725 7.49375 32.8125 7.5375 32.8125 7.56875C32.8125 7.6 32.8812 7.6375 32.9687 7.6625C33.0562 7.68125 33.125 7.725 33.125 7.75625C33.125 7.78125 33.225 7.825 33.3437 7.85L33.5625 7.8875L33.2187 8.23125C33.0312 8.41875 32.875 8.59375 32.875 8.625C32.875 8.6625 32.825 8.73125 32.5687 9.0375C32.5437 9.075 32.4812 9.20625 32.4312 9.33125C32.3875 9.45625 32.3312 9.5625 32.3062 9.5625C32.2812 9.5625 32.225 9.74375 32.1812 9.96875C32.1375 10.1938 32.0812 10.375 32.0625 10.375C32.0375 10.375 32 10.6563 31.975 11.0063C31.9562 11.3563 31.8937 11.8375 31.8375 12.075C31.775 12.3438 31.75 12.6625 31.7687 12.9C31.825 13.625 32.0125 14.9563 32.0687 15.025C32.5625 15.6375 33.0562 16.1563 33.3375 16.3438C33.4375 16.4125 33.5687 16.5125 33.625 16.5688C33.6875 16.625 33.8437 16.7063 33.975 16.75C34.1125 16.7938 34.2312 16.85 34.25 16.875C34.3062 16.9438 35.6312 17.2375 36.0937 17.275C36.3375 17.2938 37.15 17.2875 37.9062 17.2563C39.85 17.1688 40.5437 16.9875 42.2312 16.1313C43.8 15.3375 44.25 14.925 44.25 14.3C44.25 14.1688 44.275 14.0625 44.3125 14.0625C44.4062 14.0625 44.6875 14.2063 44.6875 14.25C44.6875 14.275 44.8125 14.3313 44.9687 14.375C45.125 14.4188 45.25 14.475 45.25 14.5063C45.25 14.5375 45.3187 14.575 45.4062 14.6C45.4937 14.6188 45.5625 14.6625 45.5625 14.6875C45.5625 14.7125 45.6875 14.7688 45.8437 14.8063C46 14.8438 46.125 14.9 46.125 14.9313C46.125 14.9625 46.2125 15.0063 46.3187 15.0313C46.425 15.0563 46.525 15.1125 46.5437 15.1625C46.5625 15.2125 46.6125 15.25 46.6562 15.25C46.7062 15.25 46.7562 15.275 46.775 15.3063C46.8125 15.3625 45.875 15.9688 44.7437 16.6125C43.5125 17.3188 42.1562 18.1375 41.6875 18.4688C41.4312 18.65 40.4437 19.2813 39.5 19.875C38.5562 20.4688 37.3187 21.275 36.75 21.675C35.3375 22.675 34.2062 23.425 34.0437 23.475C33.9687 23.5 33.8937 23.5313 33.875 23.5563C33.8562 23.575 33.65 23.6938 33.4062 23.8125C33.1687 23.9313 32.9562 24.05 32.9375 24.0688C32.9187 24.0938 32.8062 24.1563 32.6875 24.2125C32.5687 24.2688 32.3 24.4125 32.0937 24.5313C31.8875 24.6563 31.6187 24.8 31.5 24.8625C31.3812 24.9188 31.2687 24.9875 31.25 25.0063C31.2312 25.025 31.125 25.0813 31.0187 25.1313C30.9062 25.1813 30.8125 25.2375 30.8125 25.2625C30.8125 25.2813 30.7062 25.3375 30.5812 25.3813C30.4562 25.4188 30.3187 25.4813 30.2875 25.5125C30.25 25.5375 30.1562 25.6188 30.075 25.6875C29.9937 25.75 29.8437 25.825 29.7437 25.8438C29.6437 25.8688 29.5625 25.9063 29.5625 25.9313C29.5625 25.9563 29.45 26.0188 29.3187 26.0625C29.1812 26.1063 29.0562 26.1813 29.0375 26.2188C29.025 26.2625 28.925 26.3188 28.8187 26.3438C28.7125 26.3688 28.625 26.4063 28.625 26.4313C28.625 26.4563 28.5125 26.5188 28.375 26.5625C28.2375 26.6063 28.125 26.6625 28.125 26.6875C28.125 26.7125 28.0125 26.7688 27.875 26.8125C27.7375 26.8563 27.625 26.9188 27.625 26.95C27.625 26.975 27.5875 27 27.5375 27C27.4875 27 27.4062 27.0375 27.3625 27.075C27.3187 27.1188 27.1375 27.225 26.9687 27.3125C26.7937 27.4 26.475 27.5938 26.25 27.7438C25.9937 27.9125 25.775 28.0188 25.6562 28.0188C25.4812 28.0188 23.0687 27.0438 23 26.9438C22.9812 26.9188 22.875 26.8625 22.7687 26.8188C22.6562 26.7688 22.5625 26.7125 22.5625 26.6875C22.5625 26.6563 22.475 26.6188 22.3687 26.5938C22.2625 26.5688 22.1625 26.5125 22.15 26.4688C22.1312 26.4313 22.0062 26.3563 21.8687 26.3125C21.7375 26.2688 21.625 26.2125 21.625 26.1875C21.625 26.1625 21.5125 26.1125 21.375 26.0688C21.2375 26.0313 21.125 25.975 21.125 25.9438C21.125 25.9188 21.025 25.8625 20.9062 25.8125C20.7875 25.7625 20.6875 25.7063 20.6875 25.6813C20.6875 25.6563 20.6187 25.6188 20.5312 25.6C20.4437 25.575 20.375 25.5375 20.375 25.5063C20.375 25.475 20.25 25.4188 20.0937 25.375C19.9375 25.3313 19.8125 25.275 19.8125 25.2438C19.8125 25.2188 19.7 25.1563 19.5625 25.1188C19.425 25.075 19.3125 25.0188 19.3125 24.9938C19.3125 24.9625 19.2 24.9063 19.0625 24.8688C18.925 24.825 18.8125 24.775 18.8125 24.75C18.8125 24.7188 18.6875 24.6625 18.5312 24.6188C18.375 24.575 18.25 24.5125 18.25 24.4938C18.25 24.4688 18.1687 24.4313 18.0625 24.4063C17.9625 24.3813 17.875 24.3375 17.875 24.3063C17.875 24.2688 17.7937 24.2125 17.6875 24.1813C17.5875 24.1438 17.5 24.0875 17.5 24.0625C17.5 24.0313 17.3625 23.975 17.1875 23.9313C17.0187 23.8875 16.875 23.8313 16.875 23.8125C16.875 23.7875 16.7625 23.7313 16.625 23.6875C16.4875 23.6438 16.375 23.5875 16.375 23.5625C16.375 23.5375 16.2625 23.4813 16.125 23.4375C15.9875 23.3938 15.875 23.3375 15.875 23.3125C15.875 23.2875 15.7625 23.2375 15.625 23.1938C15.4875 23.1563 15.375 23.0938 15.375 23.0625C15.375 23.0375 15.2937 22.9938 15.1875 22.9688C15.0875 22.9438 15 22.9 15 22.875C15 22.8438 14.8875 22.7813 14.75 22.7438C14.6125 22.7 14.5 22.65 14.5 22.625C14.5 22.6 14.3875 22.5438 14.25 22.5C14.1125 22.4563 14 22.4 14 22.375C14 22.35 13.8875 22.2938 13.75 22.25C13.6125 22.2063 13.5 22.1438 13.5 22.1188C13.5 22.0938 13.3625 22.0375 13.1875 21.9938C13.0125 21.95 12.875 21.8938 12.875 21.8688C12.875 21.8438 12.7687 21.7875 12.6437 21.7438C12.5125 21.7063 12.3687 21.6313 12.325 21.5813C12.2812 21.5375 12.2 21.5 12.15 21.5C12.1 21.5 12.0625 21.475 12.0625 21.45C12.0625 21.4188 11.95 21.3625 11.8125 21.3188C11.675 21.2813 11.5625 21.225 11.5625 21.1938C11.5625 21.1688 11.45 21.1125 11.3125 21.0688C11.175 21.0313 11.0625 20.975 11.0625 20.9438C11.0625 20.9188 10.925 20.8625 10.75 20.8188C10.5812 20.775 10.4375 20.7188 10.4375 20.6875C10.4375 20.6625 10.375 20.625 10.2937 20.6C10.125 20.5625 9.24373 19.9813 7.68748 18.9063C6.06873 17.7813 5.73123 17.5563 4.90623 17.0813C4.49373 16.8438 3.97498 16.5313 3.74998 16.3938C3.52498 16.2563 3.09998 16.0188 2.81248 15.875C2.34998 15.6438 2.30623 15.6063 2.41248 15.5438C2.47498 15.5063 2.56873 15.4375 2.61248 15.3938C2.65623 15.35 2.76248 15.2938 2.84998 15.275C2.93123 15.2563 2.99998 15.2188 2.99998 15.1938C2.99998 15.1625 3.11248 15.1063 3.24998 15.0625C3.38748 15.0188 3.49998 14.9625 3.49998 14.9375C3.49998 14.9125 3.61248 14.8625 3.74998 14.8188C3.88748 14.7813 3.99998 14.7188 3.99998 14.6875C3.99998 14.6625 4.08123 14.6188 4.18748 14.5938C4.28748 14.5688 4.37498 14.525 4.37498 14.5C4.37498 14.4688 4.48748 14.4063 4.62498 14.3688C4.76248 14.325 4.87498 14.275 4.87498 14.25C4.87498 14.2188 4.94373 14.1813 5.03123 14.1625C5.11873 14.1375 5.24998 14.05 5.32498 13.9688C5.39998 13.8813 5.49373 13.8125 5.53748 13.8125C5.61873 13.8125 5.68123 14.2125 5.68123 14.7125C5.67498 14.8813 5.70623 15.0313 5.73748 15.0563C5.76873 15.075 5.81873 15.1875 5.84373 15.3C5.86873 15.4125 5.92498 15.525 5.96873 15.5375C6.01248 15.5563 6.06873 15.6375 6.08748 15.7188C6.13123 15.8875 6.84373 16.6188 7.09998 16.75C7.19998 16.8 7.29998 16.875 7.33123 16.9188C7.35623 16.9563 7.46248 17.0063 7.56248 17.0313C7.66873 17.0563 7.74998 17.0938 7.74998 17.125C7.74998 17.1563 7.90623 17.2125 8.09373 17.2563C8.28123 17.3 8.43748 17.35 8.43748 17.375C8.43748 17.4 8.54373 17.4438 8.66873 17.4688C8.79998 17.4938 8.91873 17.5375 8.93748 17.5625C8.99998 17.6625 9.77498 17.75 10.6062 17.75C11.4687 17.75 12.6937 17.6438 12.75 17.5625C12.7687 17.5375 12.95 17.5 13.1562 17.475C13.3562 17.45 13.5437 17.4125 13.5625 17.3813C13.5812 17.3563 13.8 17.3 14.05 17.2563C14.2937 17.2125 14.5 17.1563 14.5 17.1313C14.5 17.1063 14.6562 17.05 14.8437 17.0063C15.0312 16.9625 15.1875 16.9063 15.1875 16.8813C15.1875 16.8563 15.3125 16.8063 15.4687 16.7625C15.625 16.7188 15.75 16.6625 15.75 16.6313C15.75 16.6 15.8375 16.5563 15.9437 16.5313C16.05 16.5063 16.1437 16.4563 16.1625 16.4125C16.1812 16.3688 16.2875 16.2938 16.4062 16.25C16.525 16.2 16.625 16.1438 16.625 16.1125C16.625 16.0875 16.6687 16.0625 16.7187 16.0625C16.7687 16.0625 16.8375 16.0063 16.875 15.9375C16.9125 15.8688 16.975 15.8125 17.0187 15.8125C17.0625 15.8125 17.1625 15.7375 17.2437 15.6563C17.325 15.5688 17.425 15.5 17.475 15.5C17.525 15.5 17.5625 15.475 17.5625 15.4438C17.5625 15.4125 17.6125 15.3375 17.675 15.275C17.7687 15.175 17.7812 14.975 17.7812 12.9875C17.7812 11.5063 17.7625 10.7938 17.7125 10.7625C17.675 10.7375 17.6125 10.5875 17.5687 10.4313C17.5187 10.2438 17.4375 10.1125 17.3437 10.0625C17.2625 10.0188 17.175 9.88125 17.1312 9.74375C17.0875 9.6125 17.0312 9.5 17 9.5C16.9625 9.5 16.9375 9.4625 16.9375 9.41875C16.9375 9.30625 16.625 8.9875 16.4062 8.875C16.3 8.825 16.2 8.75 16.1687 8.70625C16.1437 8.66875 16.0375 8.61875 15.9375 8.59375C15.8312 8.56875 15.75 8.525 15.75 8.49375C15.75 8.4625 15.6812 8.425 15.5937 8.4C15.375 8.34375 15.4 8.225 15.6562 8.125C15.775 8.075 15.875 8.025 15.875 8.00625C15.875 7.98125 15.9687 7.925 16.0812 7.88125C16.1875 7.83125 16.3187 7.75 16.3625 7.70625C16.4062 7.6625 16.4875 7.625 16.5375 7.625C16.5875 7.625 16.625 7.6 16.625 7.575C16.625 7.55 16.725 7.4875 16.8437 7.44375C16.9625 7.4 17.0625 7.34375 17.0625 7.3125C17.0625 7.28125 17.1687 7.225 17.3 7.18125C17.425 7.14375 17.55 7.06875 17.5812 7.025C17.6062 6.98125 17.7125 6.93125 17.8125 6.90625C17.9187 6.88125 18 6.8375 18 6.80625C18 6.76875 18.0875 6.7125 18.1875 6.68125C18.2937 6.64375 18.375 6.5875 18.375 6.55625C18.375 6.525 18.4062 6.5 18.4375 6.5C18.475 6.5 18.5062 6.6625 18.5125 6.85625ZM38.125 8.5C38.125 8.5375 38.3 8.5625 38.525 8.5625C39.05 8.5625 40.2062 8.68125 40.25 8.74375C40.2687 8.76875 40.4437 8.825 40.6437 8.875C40.8375 8.91875 41 8.98125 41 9.0125C41 9.0375 41.0437 9.0625 41.0937 9.0625C41.15 9.0625 41.2062 9.1 41.225 9.14375C41.2437 9.19375 41.35 9.26875 41.4687 9.3125C41.5812 9.35625 41.7125 9.46875 41.7625 9.55625C41.8062 9.64375 41.875 9.75625 41.9187 9.8C41.9625 9.84375 42.0125 9.975 42.0375 10.0938C42.0562 10.2125 42.1 10.3125 42.1312 10.3125C42.1625 10.3125 42.1875 10.425 42.1875 10.5625C42.1875 10.7 42.1625 10.8125 42.1312 10.8125C42.1 10.8125 42.0562 10.925 42.0312 11.0625C42.0062 11.2 41.9562 11.35 41.9125 11.3938C41.8687 11.4375 41.8 11.5313 41.7562 11.6125C41.7187 11.6875 41.6437 11.75 41.6 11.75C41.55 11.75 41.5 11.7875 41.4812 11.8375C41.4625 11.8875 41.3625 11.9438 41.2562 11.9688C41.15 11.9938 41.0625 12.0313 41.0625 12.0625C41.0625 12.0875 40.9125 12.15 40.7375 12.1875C40.5562 12.2313 40.3937 12.2875 40.375 12.3125C40.3312 12.375 39.65 12.5 39.3625 12.5C39.2312 12.5 39.125 12.525 39.125 12.5625C39.125 12.6 38.7937 12.625 38.25 12.625C37.7062 12.625 37.375 12.6 37.375 12.5625C37.375 12.525 37.2125 12.5 37.0187 12.5C36.4812 12.5 35.55 12.3875 35.5062 12.325C35.4875 12.2938 35.3625 12.2313 35.2375 12.1938C35.1062 12.15 35 12.0875 35 12.0563C35 12.025 34.9625 12 34.925 12C34.8812 12 34.7625 11.9313 34.6625 11.8438C34.5625 11.7563 34.4625 11.6875 34.4375 11.6875C34.4125 11.6875 34.3562 11.6125 34.3062 11.5125C34.2562 11.4188 34.1812 11.3188 34.1437 11.2938C34.1 11.2688 34.0625 11.2063 34.0625 11.1563C34.0625 11.1125 34.0312 11.0625 33.9875 11.05C33.8937 11.0188 33.9062 10.3563 33.9937 10.325C34.0312 10.3125 34.0625 10.2625 34.0625 10.2125C34.0625 10.1625 34.1062 10.1063 34.1562 10.0875C34.2062 10.0625 34.25 10.0125 34.25 9.9625C34.25 9.91875 34.3 9.84375 34.3625 9.8C34.4187 9.75625 34.5062 9.64375 34.55 9.55625C34.6 9.46875 34.7312 9.35625 34.85 9.3125C34.9687 9.2625 35.0625 9.20625 35.0625 9.18125C35.0625 9.15625 35.1312 9.11875 35.2187 9.1C35.3062 9.075 35.375 9.0375 35.375 9.00625C35.375 8.975 35.5187 8.9125 35.6875 8.86875C35.8625 8.825 36 8.76875 36 8.74375C36 8.68125 36.8937 8.5625 37.4062 8.5625C37.675 8.5625 37.875 8.5375 37.875 8.5C37.875 8.4625 37.9312 8.4375 38 8.4375C38.0687 8.4375 38.125 8.4625 38.125 8.5ZM12.0812 9.56875C12.5 9.60625 12.8562 9.65625 12.875 9.68125C12.8937 9.70625 13.1062 9.7625 13.3437 9.80625C13.5875 9.85625 13.7937 9.9125 13.8125 9.94375C13.8312 9.96875 14.025 10.025 14.25 10.0688C14.475 10.1125 14.6687 10.1688 14.6875 10.1875C14.7062 10.2063 14.8375 10.2625 14.9875 10.3C15.1312 10.3438 15.25 10.4063 15.25 10.4375C15.25 10.475 15.2875 10.5 15.3375 10.5C15.45 10.5 15.5187 10.775 15.4625 11.025C15.425 11.2313 14.9312 11.75 14.7875 11.75C14.7375 11.75 14.6875 11.7875 14.6687 11.8375C14.65 11.8875 14.5375 11.9438 14.425 11.9688C14.3125 11.9938 14.2 12.0438 14.1812 12.075C14.1562 12.1125 13.9437 12.1688 13.6937 12.2063C13.45 12.2438 13.25 12.3 13.25 12.325C13.25 12.3938 11.325 12.3875 11.3 12.3188C11.2937 12.2813 10.825 12.2375 10.2625 12.2125C9.60623 12.1875 9.21248 12.1438 9.16248 12.0938C9.12498 12.05 8.98123 11.9813 8.84373 11.9375C8.70623 11.8938 8.56873 11.8188 8.54373 11.775C8.51873 11.725 8.44998 11.6875 8.40623 11.6875C8.35623 11.6875 8.31248 11.6563 8.31248 11.6188C8.31248 11.5875 8.23123 11.525 8.12498 11.4938C8.02498 11.4563 7.93748 11.4063 7.93748 11.375C7.93748 11.35 7.88123 11.3125 7.81248 11.2938C7.73748 11.275 7.68748 11.2063 7.68748 11.1313C7.68748 11.0563 7.66248 11 7.62498 11C7.59373 11 7.56248 10.8875 7.56248 10.75C7.56248 10.6125 7.58748 10.5 7.61873 10.5C7.64998 10.5 7.69373 10.425 7.71873 10.3313C7.76873 10.1125 7.99998 9.90625 8.29373 9.8C8.42498 9.75625 8.54373 9.7 8.56873 9.675C8.59998 9.625 10.0062 9.525 10.8625 9.50625C11.1187 9.50625 11.6625 9.53125 12.0812 9.56875ZM16.1875 13C16.1875 13.0688 16.2125 13.125 16.2375 13.125C16.2625 13.125 16.3187 13.3563 16.3625 13.6438C16.4937 14.5625 16.4562 14.6813 16.0125 14.8188C15.8687 14.8563 15.75 14.9188 15.75 14.9438C15.75 14.975 15.6375 15.0313 15.5 15.0688C15.3625 15.1125 15.25 15.1625 15.25 15.1875C15.25 15.2063 15.1125 15.2688 14.9375 15.3125C14.7687 15.3563 14.625 15.4188 14.625 15.4375C14.625 15.4625 14.4125 15.5188 14.1562 15.5625C13.9 15.6063 13.6875 15.6625 13.6875 15.6875C13.6875 15.7375 12.3 15.875 11.7687 15.875C11.5437 15.875 11.375 15.9 11.375 15.9375C11.375 15.975 11.2 16 10.9687 16C10.7375 16 10.5625 15.975 10.5625 15.9375C10.5625 15.9 10.3937 15.875 10.1875 15.875C9.81248 15.875 9.18123 15.7688 9.12498 15.6938C9.10623 15.6688 8.93123 15.6188 8.73123 15.5813C8.53748 15.5375 8.33123 15.4625 8.28123 15.4125C8.23123 15.3625 8.10623 15.3063 7.99998 15.2813C7.89998 15.2563 7.81248 15.2188 7.81248 15.1875C7.81248 15.1625 7.72498 15.1063 7.62498 15.0688C7.51873 15.0375 7.39373 14.9625 7.34373 14.9125C7.29373 14.8625 7.21873 14.8125 7.18123 14.8C7.13123 14.7813 7.14998 14.5563 7.24373 14C7.43123 12.925 7.40623 12.975 7.62498 13.1875C7.72498 13.2875 7.86248 13.3813 7.93123 13.4063C8.00623 13.425 8.06248 13.4688 8.06248 13.4938C8.06248 13.525 8.15623 13.5813 8.26873 13.6313C8.37498 13.675 8.48123 13.7313 8.49998 13.75C8.55623 13.825 9.10623 13.9375 9.39998 13.9375C9.55623 13.9375 9.68748 13.9688 9.69998 14.0125C9.73123 14.1 13.0562 14.1125 13.1187 14.0188C13.1375 13.9875 13.4 13.925 13.7062 13.8813C14.0062 13.8375 14.25 13.7813 14.25 13.7563C14.25 13.7313 14.4062 13.675 14.5937 13.6313C14.7812 13.5875 14.9375 13.5313 14.9375 13.5C14.9375 13.475 15.0625 13.4188 15.2187 13.3813C15.375 13.3438 15.5 13.2813 15.5 13.25C15.5 13.2125 15.5437 13.1875 15.5937 13.1875C15.6375 13.1875 15.7062 13.15 15.7312 13.1063C15.775 13.0313 16.0375 12.8875 16.1437 12.8813C16.1687 12.875 16.1875 12.9313 16.1875 13ZM42.4312 13.3188C42.3937 13.5875 42.3312 13.7563 42.2437 13.825C42.0125 14.0188 40.7875 14.6688 40.2125 14.8938C39.4625 15.1938 39.075 15.2813 37.55 15.4688C36.05 15.6563 35.8812 15.6438 34.75 15.2625C33.8 14.9375 33.3 14.6875 33.3437 14.5625C33.4312 14.3375 33.5625 13.775 33.5625 13.6125C33.5625 13.4813 33.5937 13.4375 33.6812 13.4375C33.7437 13.4375 33.8125 13.475 33.8312 13.525C33.85 13.575 33.95 13.6313 34.0562 13.6563C34.1625 13.6813 34.25 13.725 34.25 13.75C34.25 13.7813 34.3625 13.8438 34.5 13.8813C34.6375 13.925 34.75 13.975 34.75 14C34.75 14.0188 34.8937 14.0813 35.0625 14.125C35.2375 14.1688 35.375 14.2313 35.375 14.25C35.375 14.3063 36.1125 14.4375 36.425 14.4375C36.5625 14.4375 36.6875 14.4688 36.7 14.5C36.725 14.5875 39.1187 14.6125 39.175 14.525C39.2 14.4938 39.4 14.425 39.625 14.3813C39.85 14.3375 40.0437 14.2813 40.0625 14.2563C40.0812 14.2313 40.2125 14.175 40.3625 14.1375C40.5062 14.0938 40.625 14.0313 40.625 14.0063C40.625 13.975 40.75 13.9188 40.9062 13.875C41.0625 13.8313 41.1875 13.7688 41.1875 13.7375C41.1875 13.7125 41.2562 13.6563 41.3437 13.625C41.4312 13.5938 41.5 13.5375 41.5 13.5063C41.5 13.475 41.5625 13.4375 41.6437 13.4125C41.725 13.3938 41.8562 13.325 41.9437 13.25C42.025 13.1813 42.125 13.1063 42.1562 13.075C42.25 13 42.4625 12.8813 42.4812 12.9C42.4875 12.9063 42.4687 13.0938 42.4312 13.3188ZM47.7875 17.325C47.7687 17.5438 47.7312 18.7938 47.7062 20.1063C47.6875 21.425 47.6437 22.5 47.6125 22.5C47.5875 22.5 47.5625 24.65 47.5625 27.2813C47.5625 29.9125 47.5875 32.0625 47.6187 32.0625C47.6437 32.0625 47.6937 32.6438 47.725 33.3563C47.8 35.3063 47.8062 35.2125 47.6437 35.2375C47.5625 35.25 47.5 35.2875 47.5 35.3188C47.5 35.35 47.4625 35.375 47.4125 35.375C47.3625 35.375 47.2812 35.4125 47.2375 35.4563C47.1937 35.5 47.0625 35.5813 46.9562 35.6313C46.8437 35.675 46.75 35.7375 46.75 35.7563C46.75 35.775 46.6375 35.825 46.5 35.8688C46.3625 35.9063 46.25 35.9688 46.25 36C46.25 36.0313 46.15 36.0875 46.0312 36.1313C45.9125 36.175 45.8125 36.2313 45.8125 36.25C45.8125 36.275 45.7 36.3313 45.5625 36.375C45.425 36.4188 45.3125 36.475 45.3125 36.5C45.3125 36.525 45.2 36.575 45.0625 36.6188C44.925 36.6563 44.8125 36.7188 44.8125 36.75C44.8125 36.775 44.7312 36.8188 44.625 36.8438C44.525 36.8688 44.4375 36.9125 44.4375 36.9375C44.4375 36.9688 44.325 37.0313 44.1875 37.0688C44.05 37.1125 43.9375 37.1688 43.9375 37.1938C43.9375 37.225 43.825 37.2813 43.6875 37.3188C43.55 37.3625 43.4375 37.4125 43.4375 37.4375C43.4375 37.4563 43.3375 37.5125 43.2187 37.5563C43.1 37.6 43 37.6563 43 37.6875C43 37.7188 42.8875 37.7813 42.75 37.8188C42.6125 37.8625 42.5 37.9125 42.5 37.9375C42.5 37.9625 42.3875 38.0188 42.2562 38.0625C42.1187 38.1063 41.9937 38.1813 41.975 38.225C41.9562 38.275 41.9 38.3125 41.8437 38.3125C41.7937 38.3125 41.75 38.3375 41.75 38.3625C41.75 38.3938 41.6375 38.4563 41.5 38.5C41.3625 38.5438 41.25 38.6063 41.25 38.6313C41.25 38.6563 41.1625 38.6938 41.0562 38.7188C40.95 38.7438 40.85 38.8 40.8375 38.8438C40.8187 38.8813 40.6937 38.9563 40.5562 39C40.425 39.0438 40.3125 39.1 40.3125 39.125C40.3125 39.1563 40.1875 39.2125 40.0312 39.2563C39.875 39.3 39.75 39.3625 39.75 39.3813C39.75 39.4063 39.6687 39.4438 39.5625 39.4688C39.4625 39.4938 39.375 39.5313 39.375 39.5563C39.375 39.5813 39.2625 39.6438 39.125 39.6875C38.9875 39.7313 38.875 39.7875 38.875 39.8125C38.875 39.8375 38.7625 39.8938 38.6312 39.9375C38.4937 39.9813 38.3687 40.0563 38.35 40.0938C38.3375 40.1375 38.2375 40.1938 38.1312 40.2188C38.025 40.2438 37.9375 40.2813 37.9375 40.3063C37.9375 40.3313 37.825 40.3938 37.6875 40.4375C37.55 40.4813 37.4375 40.5375 37.4375 40.5625C37.4375 40.5875 37.325 40.6438 37.1875 40.6875C37.05 40.7313 36.9375 40.7938 36.9375 40.8188C36.9375 40.8438 36.8562 40.8813 36.75 40.9063C36.65 40.9313 36.5625 40.9688 36.5625 41C36.5625 41.025 36.4812 41.0813 36.375 41.125C36.275 41.1688 36.1875 41.225 36.1875 41.25C36.1875 41.275 36.075 41.325 35.9375 41.3688C35.8 41.4063 35.6875 41.4688 35.6875 41.4938C35.6875 41.525 35.5625 41.5813 35.4062 41.625C35.25 41.6688 35.125 41.7313 35.125 41.7625C35.125 41.7938 35.0437 41.85 34.9375 41.8813C34.8375 41.9188 34.75 41.9688 34.75 41.9938C34.75 42.0188 34.6375 42.075 34.5 42.1188C34.3625 42.1563 34.25 42.2188 34.25 42.25C34.25 42.275 34.1687 42.3188 34.0625 42.3438C33.9625 42.3688 33.875 42.4063 33.875 42.4313C33.875 42.4563 33.7625 42.5188 33.625 42.5625C33.4875 42.6063 33.375 42.6625 33.375 42.6875C33.375 42.7125 33.2625 42.7688 33.125 42.8125C32.9875 42.8563 32.875 42.9125 32.875 42.9375C32.875 42.9625 32.7625 43.0125 32.625 43.0563C32.4875 43.0938 32.375 43.15 32.375 43.1813C32.375 43.2063 32.2625 43.2625 32.125 43.3063C31.9875 43.3438 31.875 43.4 31.875 43.4313C31.875 43.4563 31.7625 43.5125 31.625 43.5563C31.4875 43.5938 31.375 43.6563 31.375 43.6875C31.375 43.7125 31.2937 43.7563 31.1875 43.7813C31.0875 43.8063 31 43.8438 31 43.8688C31 43.8938 30.9 43.95 30.7812 43.9938C30.6625 44.0375 30.5625 44.0938 30.5625 44.125C30.5625 44.1563 30.45 44.2188 30.3125 44.2563C30.175 44.3 30.0625 44.3563 30.0625 44.3813C30.0625 44.4125 29.95 44.4688 29.8125 44.5063C29.675 44.55 29.5625 44.6 29.5625 44.625C29.5625 44.65 29.45 44.7063 29.3187 44.75C29.1812 44.7938 29.0562 44.8688 29.0375 44.9063C29.025 44.95 28.925 45.0063 28.8187 45.0313C28.7125 45.0563 28.625 45.1 28.625 45.1313C28.625 45.1625 28.5875 45.1875 28.5437 45.1875C28.4937 45.1875 28.3937 45.2438 28.3125 45.3125C28.2312 45.3813 28.1 45.4563 28.0187 45.475C27.9375 45.5 27.875 45.5313 27.875 45.5563C27.875 45.5813 27.775 45.6375 27.6562 45.6875C27.5375 45.7375 27.4375 45.8 27.4375 45.825C27.4375 45.8563 27.3687 45.9063 27.2812 45.9375C27.1937 45.9688 27.125 46.025 27.125 46.0563C27.125 46.0875 27.0375 46.1313 26.9312 46.1563C26.825 46.1813 26.725 46.2375 26.7062 46.2875C26.6875 46.3375 26.6375 46.375 26.5937 46.375C26.5562 46.375 26.4562 46.4313 26.375 46.5C26.2937 46.5688 26.2062 46.625 26.175 46.625C26.1062 46.625 26.1125 45.1188 26.1875 43.6875C26.2187 43.05 26.275 41.6875 26.3125 40.6563C26.35 39.625 26.425 37.9813 26.475 37C26.5937 34.925 26.5625 31.9688 26.4062 30.8438C26.3375 30.3 26.3312 30.1438 26.3937 30.0875C26.5 29.9875 29.175 28.2688 29.8125 27.8938C30.1062 27.7188 30.6375 27.4438 31 27.2875C32.4 26.675 34.1437 25.7 37.3125 23.75C38.9375 22.7563 39.2812 22.55 39.6875 22.3375C39.875 22.2375 40.0562 22.1188 40.0812 22.075C40.1062 22.0375 40.1687 22 40.2187 22C40.2687 22 40.3312 21.9625 40.3562 21.9188C40.3812 21.8813 40.4937 21.8 40.5937 21.75C40.7 21.7 40.8062 21.6188 40.8312 21.5813C40.8562 21.5375 40.925 21.5 40.9687 21.5C41.0187 21.5 41.0625 21.475 41.0625 21.45C41.0625 21.4188 41.1625 21.3625 41.2812 21.3125C41.4 21.2625 41.5 21.2 41.5 21.175C41.5 21.1438 41.5687 21.0938 41.6562 21.0625C41.7437 21.0313 41.8125 20.9813 41.8125 20.95C41.8125 20.925 41.9125 20.8625 42.0312 20.8125C42.15 20.7625 42.25 20.7 42.25 20.675C42.25 20.6438 42.3375 20.5875 42.4375 20.5563C42.5437 20.5188 42.625 20.4625 42.625 20.4313C42.625 20.4 42.6937 20.3438 42.7812 20.3125C42.8687 20.2813 42.9375 20.225 42.9375 20.1875C42.9375 20.1563 42.9812 20.125 43.0312 20.125C43.0875 20.125 43.1437 20.0875 43.1625 20.0438C43.1812 19.9938 43.2875 19.9188 43.4062 19.875C43.525 19.825 43.625 19.7625 43.625 19.7375C43.625 19.7063 43.6937 19.6563 43.7812 19.625C43.8687 19.5938 43.9375 19.5438 43.9375 19.5188C43.9375 19.4875 44.025 19.4313 44.1375 19.3813C44.2437 19.3313 44.3812 19.25 44.4437 19.1938C44.675 18.9813 44.7625 18.9313 45.5687 18.5C46.5187 17.9938 46.7187 17.8563 47.2812 17.3188C47.5062 17.1125 47.7187 16.9375 47.7562 16.9375C47.8062 16.9375 47.8187 17.0563 47.7875 17.325ZM1.83123 17.2625C1.90623 17.3 1.99998 17.3625 2.03748 17.4C2.07498 17.4375 2.17498 17.5125 2.24998 17.5625C2.33123 17.6125 2.44998 17.7063 2.51248 17.7625C2.57498 17.825 2.63748 17.875 2.65623 17.875C2.67498 17.875 2.83748 17.9938 3.01873 18.1375C3.19998 18.2875 3.68123 18.6188 4.08123 18.875C4.79373 19.325 5.43123 19.7813 6.68748 20.7188C7.48123 21.3188 10.2812 23.3313 10.8875 23.7375C11.8687 24.4 13.4937 25.3 14.7187 25.8625C18.7937 27.7313 19.2812 27.9313 22.0312 28.9C22.4812 29.0625 23.2 29.3313 23.6312 29.5125L24.4187 29.8313L24.4625 30.8375C24.575 33.6875 24.5812 34.7375 24.475 36.2813C24.4187 37.1375 24.3312 38.9375 24.2812 40.2813C24.225 41.6188 24.1562 43.2125 24.125 43.8125C24.0937 44.4125 24.0625 45.2938 24.0625 45.7625C24.0625 46.2375 24.05 46.625 24.0375 46.625C24.025 46.625 23.6625 46.3813 23.2375 46.0875C22.8125 45.7938 22.2 45.3938 21.875 45.2063C21.55 45.0125 21 44.6813 20.6562 44.4688C20.3125 44.2563 19.725 43.9 19.3437 43.6875C18.9687 43.4688 17.9375 42.8688 17.0625 42.3438C16.1875 41.8188 14.7687 40.975 13.9062 40.4688C13.05 39.9563 12.0625 39.3563 11.7187 39.125C10.625 38.3938 8.55623 37.2625 5.90623 35.95C5.25623 35.625 4.10623 34.9938 3.35623 34.5438L1.98748 33.7313L2.03123 31.975C2.05623 31.0063 2.09998 30.2063 2.13123 30.2C2.20623 30.1688 2.20623 26.3938 2.12498 26.3625C2.09373 26.35 2.04998 25.4688 2.02498 24.2C1.99998 23.025 1.95623 22.0625 1.92498 22.0625C1.89998 22.0625 1.87498 21.5688 1.87498 20.9688C1.87498 19.6688 1.75623 17.6625 1.68123 17.6375C1.61873 17.6125 1.59998 17.1875 1.66248 17.1875C1.68123 17.1875 1.75623 17.2188 1.83123 17.2625Z" fill="#334155"/>
<path d="M23.7063 13.9189C23.4563 13.9314 23.25 13.9689 23.25 14.0001C23.25 14.0376 23.175 14.0626 23.0813 14.0626C22.7938 14.0626 21.875 14.2126 21.875 14.2564C21.875 14.2814 21.6875 14.3314 21.4625 14.3689C21.2313 14.4126 21.0063 14.4876 20.9563 14.5376C20.9063 14.5814 20.8125 14.6251 20.7438 14.6251C20.6813 14.6251 20.625 14.6501 20.625 14.6751C20.625 14.7064 20.525 14.7626 20.4063 14.8126C20.2875 14.8626 20.1875 14.9189 20.1875 14.9501C20.1875 14.9751 20.15 15.0001 20.1125 15.0001C20.0688 15.0001 19.95 15.0689 19.85 15.1564C19.75 15.2439 19.6438 15.3126 19.6125 15.3126C19.5813 15.3126 19.5313 15.3814 19.5 15.4689C19.4688 15.5564 19.4125 15.6251 19.3875 15.6251C19.3563 15.6251 19.2938 15.7564 19.25 15.9189C19.2 16.0876 19.1438 16.2314 19.1125 16.2564C19.0875 16.2751 19.0625 16.4439 19.0563 16.6314C19.0438 17.0314 18.95 17.4501 18.8625 17.5064C18.825 17.5314 18.7813 17.7501 18.7625 17.9939C18.75 18.2376 18.7063 18.4564 18.6813 18.4751C18.6062 18.5189 18.6062 21.3126 18.6813 21.3126C18.7063 21.3126 18.75 21.5564 18.7688 21.8564C18.7938 22.1501 18.8313 22.4126 18.8625 22.4314C18.8938 22.4501 18.9563 22.5314 18.9938 22.6126C19.1063 22.8189 19.2688 23.0001 19.3438 23.0001C19.3813 23.0001 19.4438 23.0564 19.4875 23.1251C19.5313 23.1939 19.6063 23.2501 19.65 23.2501C19.7 23.2501 19.75 23.2689 19.7625 23.3001C19.7875 23.3564 20.525 23.6689 20.7813 23.7251C20.8875 23.7501 20.9813 23.7876 21 23.8126C21.0313 23.8626 21.6875 24.0126 22.5313 24.1689C23.4875 24.3439 26.4313 24.2751 26.9063 24.0626C26.975 24.0314 27.275 23.9751 27.5813 23.9376C27.8813 23.8939 28.125 23.8439 28.125 23.8189C28.125 23.7939 28.2813 23.7376 28.4688 23.6939C28.6563 23.6501 28.8125 23.5939 28.8125 23.5689C28.8125 23.5439 28.925 23.4814 29.0625 23.4376C29.2 23.3939 29.3125 23.3376 29.3125 23.3126C29.3125 23.2939 29.4125 23.2376 29.5313 23.1876C29.65 23.1439 29.7563 23.0689 29.775 23.0189C29.7938 22.9751 29.8375 22.9376 29.875 22.9376C29.9125 22.9376 30.0188 22.8626 30.1125 22.7626C30.2063 22.6689 30.3688 22.5564 30.475 22.5126C30.5813 22.4626 30.7125 22.3564 30.7563 22.2626C30.8063 22.1689 30.8625 22.0814 30.8813 22.0626C30.9438 22.0126 31.0625 21.3876 31.0625 21.0939C31.0625 20.9439 31.0938 20.8126 31.1313 20.8001C31.2313 20.7689 31.2438 17.9876 31.1438 17.9564C31.1 17.9376 31.0625 17.8501 31.0625 17.7626C31.0625 17.3814 30.9313 17.0814 30.6438 16.7876C30.5688 16.7126 30.4875 16.5751 30.4688 16.4814C30.4438 16.3939 30.3875 16.2876 30.3438 16.2501C30.2938 16.2126 30.2375 16.0939 30.2188 15.9939C30.1938 15.8939 30.1563 15.8126 30.1313 15.8126C30.1063 15.8126 30.05 15.7126 30 15.5939C29.95 15.4751 29.9 15.3751 29.875 15.3751C29.8563 15.3751 29.7063 15.2501 29.5438 15.0939C29.375 14.9376 29.2188 14.8126 29.1938 14.8126C29.15 14.8126 29.0625 14.7439 28.7688 14.5064C28.7313 14.4689 28.5688 14.4064 28.4125 14.3689C28.2563 14.3314 28.125 14.2751 28.125 14.2501C28.125 14.2251 27.95 14.1689 27.7375 14.1251C27.5188 14.0814 27.325 14.0126 27.3 13.9751C27.2563 13.9126 24.5813 13.8689 23.7063 13.9189ZM26.2375 15.7001C26.25 15.7251 26.375 15.7501 26.5188 15.7501C26.8688 15.7501 27.5813 15.8689 27.625 15.9314C27.6438 15.9626 27.7188 16.0001 27.8 16.0251C27.875 16.0501 27.9375 16.1001 27.9375 16.1314C27.9375 16.1626 27.975 16.1876 28.0188 16.1876C28.0938 16.1876 28.7063 16.7564 28.9188 17.0189C29.0938 17.2439 29.1875 17.9564 29.0625 18.1876C28.925 18.4439 28.4875 18.8126 28.2375 18.8876C28.0875 18.9251 27.95 18.9876 27.9313 19.0189C27.8813 19.0876 27.425 19.1814 27.1125 19.1876C26.9875 19.1876 26.875 19.2126 26.8625 19.2439C26.8313 19.3314 23.6313 19.3626 23.575 19.2751C23.55 19.2376 23.35 19.1689 23.125 19.1251C22.9 19.0751 22.6813 19.0064 22.6438 18.9626C22.6 18.9189 22.45 18.8689 22.3125 18.8439C22.175 18.8189 22.0625 18.7814 22.0625 18.7501C22.0625 18.7251 21.9625 18.6814 21.8438 18.6626C21.725 18.6376 21.625 18.5939 21.625 18.5626C21.625 18.5376 21.5375 18.4939 21.4375 18.4689C21.2313 18.4251 20.625 17.9001 20.625 17.7689C20.625 17.7251 20.6 17.6876 20.5688 17.6876C20.4875 17.6876 20.3563 16.9626 20.4 16.7751C20.4625 16.5439 20.7 16.3314 21.0063 16.2314C21.1375 16.1939 21.25 16.1376 21.25 16.1189C21.25 16.0939 21.375 16.0564 21.5313 16.0376C21.6875 16.0126 21.8125 15.9689 21.8125 15.9439C21.8125 15.8876 22.7125 15.7501 23.05 15.7501C23.1563 15.7501 23.25 15.7251 23.25 15.6876C23.25 15.5689 26.1938 15.5751 26.2375 15.7001ZM20.6875 19.7501C20.725 19.8189 20.7938 19.8751 20.85 19.8751C20.9 19.8751 20.9563 19.9189 20.975 19.9689C21 20.0189 21.05 20.0626 21.1 20.0626C21.1438 20.0626 21.2063 20.1001 21.2313 20.1501C21.2563 20.1939 21.3938 20.2689 21.5313 20.3126C21.6688 20.3564 21.8125 20.4314 21.8563 20.4689C21.8938 20.5126 22.0375 20.5689 22.1688 20.5939C22.3 20.6189 22.425 20.6626 22.4438 20.6939C22.4625 20.7251 22.7063 20.7876 22.9875 20.8251C23.2688 20.8689 23.5 20.9251 23.5 20.9501C23.5 20.9751 24.1188 21.0001 24.875 21.0001C25.6313 21.0001 26.25 20.9751 26.25 20.9501C26.25 20.9251 26.4938 20.8689 26.7938 20.8314C27.0875 20.7876 27.35 20.7314 27.3688 20.7001C27.3875 20.6689 27.5688 20.6064 27.7688 20.5626C27.9625 20.5189 28.125 20.4626 28.125 20.4376C28.125 20.4189 28.2688 20.3626 28.4375 20.3189C28.6125 20.2751 28.75 20.2126 28.75 20.1876C28.75 20.1564 28.8125 20.1126 28.8938 20.0876C28.9688 20.0626 29.05 20.0126 29.075 19.9751C29.1 19.9376 29.125 20.0689 29.125 20.2626C29.125 20.4626 29.1563 20.6251 29.1875 20.6251C29.225 20.6251 29.25 20.7751 29.25 20.9564V21.2876L28.55 21.6439C27.4188 22.2064 26.0438 22.5001 24.5 22.5001C23.0063 22.4939 21.9813 22.2939 20.9625 21.7939C20.2125 21.4314 20.2625 21.5564 20.3813 20.3314C20.4563 19.6126 20.5313 19.4626 20.6875 19.7501Z" fill="#334155"/>
</g>
<defs>
<clipPath id="clip0_2213_1973">
<rect width="50" height="50" fill="white"/>
</clipPath>
</defs>
</svg>
