<svg width="50" height="50" viewBox="0 0 50 50" fill="none" xmlns="http://www.w3.org/2000/svg">
<path d="M26.7812 13.4249C26.4812 13.5687 26.1312 13.9374 25.9812 14.2812C25.925 14.4187 24.6062 18.9187 23.0625 24.2812L20.2437 34.0312L20.175 34.9812C20.1125 35.8687 20.1125 35.9562 20.225 36.1937C20.525 36.8624 21.4312 37.0624 21.9937 36.5874C22.1687 36.4374 22.8312 35.2687 22.9937 34.8124C23.0375 34.6937 24.3375 30.2187 25.8812 24.8749C28.6312 15.3812 28.6937 15.1437 28.675 14.6812C28.65 14.1312 28.4812 13.7999 28.0625 13.5249C27.725 13.2999 27.1375 13.2562 26.7812 13.4249Z" fill="#334155"/>
<path d="M31.1875 15.3623C30.9375 15.4935 30.6875 15.9185 30.6875 16.2123C30.6875 16.5623 30.9313 16.9123 31.675 17.631C32.4875 18.4248 32.1063 18.1748 39.5625 22.7998C41.1938 23.8123 42.5688 24.6685 42.6063 24.7123C42.6688 24.7685 41.5438 25.5498 37.5188 28.2498C34.6813 30.1498 32.1938 31.831 31.9875 31.981C31.3563 32.4498 31.1 33.006 31.25 33.6185C31.4625 34.4998 32.45 34.9123 33.3125 34.4685C33.6813 34.281 45.6063 26.3123 46.0438 25.956C46.425 25.6498 46.6313 25.2623 46.6688 24.7935C46.6938 24.456 46.675 24.3623 46.5188 24.0623C46.4188 23.8748 46.225 23.6373 46.0813 23.5248C45.7875 23.2998 43.675 21.9685 38.8438 18.9685C33.525 15.656 33.8938 15.8685 32.8625 15.5373C31.8813 15.2248 31.525 15.1873 31.1875 15.3623Z" fill="#334155"/>
<path d="M17.7187 15.7499C17.3 15.8124 16.5125 16.0187 15.9437 16.2187C14.9562 16.5499 13.65 17.3499 10.2687 19.6624C9.00623 20.5312 7.25623 21.7249 6.38748 22.3187C5.51873 22.9062 4.73748 23.4812 4.65623 23.5874C4.16248 24.2312 4.18748 25.0687 4.70623 25.6187C4.81873 25.7312 5.14373 25.9874 5.43748 26.1874C5.99373 26.5624 6.48123 26.9749 8.21873 28.5562C9.29373 29.5374 9.84998 30.0062 12.6562 32.3124C13.5125 33.0187 14.5062 33.8562 14.8625 34.1749C15.5937 34.8187 15.9562 34.9874 16.4687 34.9124C17.1625 34.8062 17.6687 34.1624 17.6125 33.4499C17.6 33.2562 17.5312 32.9812 17.4687 32.8437C17.3 32.4999 16.5812 31.7937 15.4937 30.9062C13.675 29.4187 11.9562 27.9999 11.4 27.5187C10.4062 26.6624 8.21873 24.6687 8.21873 24.6187C8.21873 24.5874 8.49998 24.3749 8.84373 24.1437C9.18748 23.9062 10.2437 23.1812 11.1875 22.5312C13.6062 20.8687 15.0187 19.9437 15.9875 19.3874C17.5875 18.4687 19.1187 17.1749 19.2125 16.6687C19.3375 16.0187 18.6625 15.6062 17.7187 15.7499Z" fill="#334155"/>
</svg>
