<svg width="51" height="50" viewBox="0 0 51 50" fill="none" xmlns="http://www.w3.org/2000/svg">
<g clip-path="url(#clip0_2212_1941)">
<path d="M3.71271 31.0869C3.71271 31.5994 3.71271 32.0246 3.71271 32.4496C3.72365 37.5189 3.73291 42.5882 3.74045 47.6576C3.74523 48.0182 3.70398 48.3782 3.61773 48.7288C3.41415 49.5049 2.92466 49.9 2.24779 49.9021C1.57092 49.9043 1.04832 49.4996 0.866724 48.7445C0.768996 48.2856 0.718952 47.8178 0.717362 47.349C0.416484 36.4526 0.384033 25.5549 0.47131 14.655C0.504385 10.5302 0.306142 6.40375 0.200301 2.27833C0.173413 1.23257 0.551757 0.712452 1.67269 0.481308C3.89206 0.0117805 6.18211 -0.025505 8.41578 0.371547C11.3974 0.88321 14.3006 1.77224 17.0546 3.01676C20.2047 4.46295 23.4495 5.60932 26.9071 6.15509C32.1976 6.99068 37.3759 6.52669 42.5145 5.14513C44.3422 4.65381 46.2 4.26839 48.0535 3.87941C48.4813 3.81646 48.9173 3.83174 49.3398 3.92451C49.6336 3.9643 49.9042 4.10523 50.1042 4.32269C50.3043 4.54015 50.421 4.82038 50.4345 5.1146C50.5341 5.93939 50.6436 6.76816 50.6596 7.59697C50.7386 11.6872 50.8625 15.7787 50.8269 19.8686C50.7917 23.9214 50.6035 27.974 50.4428 32.0252C50.3843 33.506 49.6631 34.5909 48.157 34.974C45.935 35.5392 43.7076 36.0899 41.4653 36.568C36.5296 37.6201 31.5914 37.2447 26.6644 36.4712C22.8002 35.8646 19.075 34.7551 15.4135 33.3992C12.0895 32.1685 8.67035 31.303 5.11017 31.0898C4.68403 31.0648 4.25599 31.0869 3.71271 31.0869ZM48.0672 7.36566C47.9398 7.37167 47.813 7.38532 47.6873 7.40653C46.4983 7.74975 45.3121 8.10206 44.1214 8.44019C37.4679 10.3302 30.7786 10.6784 24.0201 8.98009C21.1739 8.26483 18.5074 7.11561 15.8838 5.8582C13.153 4.56407 10.25 3.66388 7.26286 3.18475C5.97363 2.98218 4.66237 2.95761 3.36635 3.11182C3.36635 4.5525 3.33479 5.88557 3.37235 7.21587C3.47243 10.7612 3.64399 14.305 3.70716 17.8514C3.762 20.9277 3.70714 24.0057 3.70116 27.0831C3.70116 27.4682 3.70116 27.8532 3.70116 28.3119C4.20092 28.3119 4.55813 28.3011 4.91449 28.314C5.86194 28.3485 6.81538 28.3371 7.75493 28.4441C10.9573 28.8089 14.0188 29.7246 17.0506 30.7865C25.8585 33.8716 34.8121 35.0543 44.011 32.6532C45.2329 32.3343 46.4503 31.9987 47.6713 31.6704C48.1425 23.5049 47.7507 15.4754 48.0663 7.36566H48.0672Z" fill="#334155"/>
</g>
<defs>
<clipPath id="clip0_2212_1941">
<rect width="51" height="50" fill="white"/>
</clipPath>
</defs>
</svg>
