<svg width="46" height="50" viewBox="0 0 46 50" fill="none" xmlns="http://www.w3.org/2000/svg">
<g clip-path="url(#clip0_2212_1916)">
<path d="M30.108 41.2352C30.015 41.8463 29.9539 42.3283 29.8669 42.8051C29.555 44.5152 28.7732 46.0232 27.7947 47.422C26.9842 48.5805 25.7933 49.2224 24.4446 49.5346C21.1525 50.2965 18.2294 49.4553 15.6278 47.3683C14.866 46.753 14.3049 45.9217 14.017 44.9819C13.5786 43.5923 13.1624 42.19 13.1598 40.7075C13.1598 40.5748 13.1311 40.4421 13.1018 40.1886C12.5773 40.1886 12.0699 40.1831 11.5631 40.1896C9.24531 40.2187 6.93805 40.1256 4.66952 39.5904C4.16449 39.4813 3.66606 39.3435 3.17656 39.1772C1.34826 38.5169 0.204516 37.2551 0.150244 35.2522C0.0959725 33.2738 0.159122 31.2907 0.221665 29.3112C0.264437 27.9565 0.403206 26.6053 0.483908 25.2518C0.715724 21.3642 0.927759 17.4757 1.17773 13.5895C1.24254 12.8979 1.36164 12.2126 1.53386 11.5399C1.81853 10.2798 2.5884 9.41347 3.83 9.10453C4.92704 8.80778 6.04942 8.61567 7.18219 8.53075C8.97276 8.43502 10.7716 8.50087 12.567 8.49843C12.839 8.49843 13.1118 8.49843 13.4749 8.49843C13.7239 6.61734 14.244 4.87262 15.5633 3.48258C16.4962 2.49945 17.4436 1.53139 18.6987 0.962285C19.8369 0.448917 21.0694 0.1826 22.3165 0.180737C24.6568 0.166103 26.8561 0.654743 28.614 2.35209C30.3174 3.99701 31.14 6.11593 31.6242 8.41553C32.0259 8.41553 32.3652 8.41898 32.7044 8.41553C35.2225 8.38545 37.7412 8.30004 40.2585 8.33622C43.5251 8.38337 44.6727 10.2311 44.8345 12.8649C44.9043 14.0031 44.8748 15.148 44.893 16.2897C44.8966 16.3927 44.9071 16.4954 44.9245 16.597C45.0911 17.7084 44.9963 17.8399 43.8753 17.9385C43.0483 18.0166 42.2482 18.2747 41.5301 18.695C39.6002 19.7925 38.7177 21.6055 38.25 23.6591C38.1054 24.4039 38.0692 25.1656 38.1433 25.9207C38.2155 26.9435 38.8682 27.6148 39.7269 28.0955C40.6362 28.6067 41.6685 28.8528 42.709 28.8069C43.1577 28.7904 43.607 28.7364 44.0539 28.7537C44.3969 28.7596 44.7368 28.8213 45.0602 28.9366C45.7684 29.2108 46.049 29.8541 45.7002 30.5305C45.5009 30.9681 45.4107 31.448 45.4377 31.9285C45.4046 33.7701 45.3445 35.6114 45.2721 37.452C45.2422 37.8333 45.176 38.2108 45.0746 38.5791C44.8038 39.7244 44.0983 40.5114 42.984 40.8161C42.157 41.0559 41.3038 41.1915 40.4439 41.2197C37.3712 41.2663 34.2972 41.2374 31.2237 41.237L30.108 41.2352ZM41.5933 16.2273C41.5933 15.0875 41.5949 14.0476 41.5915 13.0078C41.5915 12.7995 41.5777 12.5905 41.5578 12.383C41.4682 11.4436 41.3413 11.2802 40.3793 11.1228C39.4956 10.9777 38.6049 10.8515 37.7123 10.7901C35.233 10.5974 32.7421 10.6027 30.2636 10.8058C29.5372 10.8716 29.3615 10.7543 29.1469 10.0259C28.961 9.39577 28.8466 8.7454 28.6947 8.10394C28.3425 6.61878 27.7102 5.28768 26.5319 4.2828C24.7829 2.79032 22.7341 2.82242 20.6459 3.18644C20.1693 3.26691 19.7143 3.44565 19.3094 3.71144C17.6714 4.82933 16.3368 6.19925 15.906 8.24843C15.8205 8.65494 15.7019 9.05616 15.5984 9.45982C15.4271 10.1281 15.0557 10.5535 14.3273 10.6283C12.6483 10.8003 10.9717 10.9942 9.2947 11.1858C8.20039 11.3104 7.08918 11.3606 6.01766 11.594C4.04713 12.0232 4.2826 12.0391 4.07096 13.7391C3.75259 16.2885 3.58087 18.8584 3.40817 21.4236C3.23331 24.0252 3.10054 26.6291 3.00987 29.2352C2.94531 31.0411 2.9443 32.851 2.97618 34.6579C2.99938 35.9746 3.27503 36.265 4.56263 36.5685C5.12912 36.7213 5.70767 36.824 6.29183 36.8756C8.25429 36.9833 10.2196 37.0411 12.1831 37.1236C12.7 37.1252 13.2161 37.161 13.7283 37.2307C14.9007 37.4382 15.2775 37.9559 15.2923 39.1596C15.2926 40.622 15.5467 42.073 16.043 43.4469C16.3146 44.1772 16.6794 44.8476 17.3082 45.3169C19.2227 46.7431 21.3232 47.4183 23.7215 46.9008C24.1799 46.8165 24.6138 46.6301 24.9917 46.3553C25.3696 46.0807 25.6817 45.7244 25.9055 45.3126C26.6405 44.0266 26.9546 42.6329 27.2629 41.1941C27.7796 38.7805 28.3388 38.2124 30.5781 38.1293C30.8541 38.1189 31.1301 38.0967 31.4053 38.0974C34.2347 38.1035 37.0639 38.1163 39.8933 38.1191C40.5389 38.1191 41.1989 38.2224 41.9227 37.9159C42.0959 35.8713 42.2702 33.8085 42.4489 31.6953C42.2641 31.6703 42.0983 31.6465 41.932 31.6252C40.591 31.475 39.2987 31.0309 38.1457 30.3244C36.2089 29.1069 35.2392 27.2909 35.4466 25.0496C35.816 21.0569 37.4765 17.8572 41.4472 16.3242C41.4997 16.2982 41.5487 16.2656 41.5933 16.2273Z" fill="#334155"/>
</g>
<defs>
<clipPath id="clip0_2212_1916">
<rect width="46" height="50" fill="white"/>
</clipPath>
</defs>
</svg>
