<svg width="50" height="51" viewBox="0 0 50 51" fill="none" xmlns="http://www.w3.org/2000/svg">
<g clip-path="url(#clip0_2212_1915)">
<path d="M49.3825 16.7234C49.2277 16.0963 48.908 15.6148 48.4827 15.3676C48.3212 15.2731 48.142 15.213 47.9561 15.1909C47.7705 15.1688 47.582 15.1853 47.403 15.2393C46.8268 15.4035 46.1803 15.9128 46.3753 17.4068C46.5277 18.5761 46.6541 19.7708 46.7766 20.9248C46.8288 21.4173 46.8818 21.9096 46.9353 22.4021C46.7396 25.678 46.5229 28.6316 45.8586 31.5726C44.9907 35.4142 43.1976 39.0354 40.5294 42.3349C38.3652 45.0113 35.5998 46.6699 32.0749 47.4052C29.1578 47.9924 26.1656 48.1093 23.2117 47.7517C20.8104 47.4774 17.9951 47.0415 15.3204 45.8871C12.2237 44.5506 10.0319 42.9724 8.42229 40.9201C6.04059 37.875 4.33816 34.3542 3.42957 30.5949C2.81448 28.2079 2.65054 25.727 2.94628 23.2799C3.39944 19.6788 4.62604 16.1401 6.80615 12.1425C7.57357 10.7316 8.6107 9.48563 9.85855 8.47572C12.8957 6.01302 15.9037 4.32183 19.0543 3.30518C21.2948 2.58206 23.7677 2.35475 26.6169 2.6105C28.5104 2.78043 30.3504 3.34592 32.1297 3.89296C32.5284 4.01543 32.9273 4.13789 33.327 4.25646L33.511 4.31231C33.8515 4.4282 34.2028 4.50928 34.5595 4.55429C34.7961 4.57513 35.2874 4.4437 35.3809 4.16339C35.4251 4.00317 35.434 3.83519 35.4065 3.6712C35.3792 3.50722 35.3162 3.35122 35.2223 3.21416C34.981 2.91685 34.6691 2.68487 34.3152 2.53943C33.1257 2.04525 32.05 1.60558 30.9279 1.23164C28.7918 0.517069 26.553 0.158659 24.3009 0.170704C20.6888 0.200905 17.1446 1.15563 14.0049 2.94408C12.8454 3.592 11.8206 4.19412 10.8721 4.7849C8.07994 6.52393 6.05093 8.56078 4.66914 11.0118C3.01078 13.9526 1.8652 16.6629 1.1665 19.2967C0.338246 22.4194 0.0406823 24.8542 0.201463 27.1907C0.480274 31.2352 1.76723 35.2396 4.1373 39.433C4.99115 40.9814 6.03158 42.4193 7.23526 43.714C9.75236 46.3757 12.9416 48.2587 16.9831 49.4697C20.0913 50.4045 23.319 50.8798 26.5643 50.8808C27.9612 50.8804 29.3567 50.7933 30.7429 50.6202C36.1827 49.9421 40.3712 47.5833 43.5457 43.4087C46.0861 40.0684 47.7688 36.7255 48.6902 33.1901C49.7402 29.1593 50.1301 24.7692 49.8825 19.7687C49.8158 18.7396 49.6483 17.7196 49.3825 16.7234Z" fill="#334155"/>
<path d="M28.8711 9.65149C29.0942 9.67475 29.3171 9.69839 29.5401 9.71924C29.7403 9.73785 30.2743 9.7879 30.4527 9.26804C30.5286 9.07223 30.5258 8.85469 30.4451 8.66084C30.3646 8.467 30.2122 8.31182 30.02 8.22773C29.6674 8.04914 29.2938 7.91523 28.9079 7.82907C27.1431 7.45698 25.3299 7.37355 23.5384 7.58204C20.1966 7.97534 17.3907 8.84165 14.9602 10.2307C11.7312 12.0761 9.73365 14.4319 8.85335 17.434C8.7186 17.8943 8.53737 18.357 8.37715 18.7653C6.99785 22.1882 6.65406 25.9419 7.3885 29.5592C7.90746 32.1159 8.54781 34.1799 9.98592 35.9435C13.288 39.9926 17.0431 42.2772 21.4659 42.9279C22.4195 43.0682 23.3992 43.1152 24.3447 43.1604C24.7756 43.181 25.221 43.2024 25.6568 43.2324H25.6697H25.6743C29.0914 43.1617 32.446 42.3014 35.4762 40.7183C36.2027 40.3559 36.8723 39.8884 37.4628 39.3307C39.3301 37.4931 40.5068 35.7509 41.1656 33.8482C41.2985 33.4646 41.4739 33.0836 41.6438 32.7151C41.6959 32.6021 41.7481 32.4891 41.799 32.3757C43.3208 28.9995 43.3072 25.3083 41.7572 21.0913C41.6276 20.7368 41.425 20.4136 41.1626 20.143C40.9938 19.9541 40.7775 19.8141 40.536 19.7378C40.2946 19.6617 40.0371 19.652 39.7908 19.7099C39.5561 19.7851 39.3462 19.9234 39.1843 20.1095C39.0224 20.2956 38.9144 20.5225 38.8723 20.7658C38.7684 21.2084 38.8453 21.7011 38.9131 22.1359L38.9286 22.2336C39.0076 22.7466 39.1033 23.2644 39.1959 23.7655C39.3529 24.6159 39.5156 25.4956 39.5987 26.3641C39.7513 27.7986 39.5592 29.2487 39.039 30.5941C38.576 31.8056 38.0518 32.9928 37.4685 34.1511C36.504 36.0124 35.4481 37.2319 34.1447 37.9854C33.1239 38.5762 31.9715 38.9961 30.8568 39.4022L30.4176 39.5628C28.4473 40.2873 26.3275 40.2887 24.2652 40.2899H24.2494C21.078 40.2899 18.6628 39.5883 16.6499 38.0827C16.322 37.8372 15.9772 37.6075 15.6437 37.3853C15.2746 37.1392 14.8929 36.885 14.5387 36.6121C12.6182 35.1325 11.3634 33.4665 10.7028 31.5166C9.92514 29.2234 9.11122 26.1815 9.722 22.9854C9.92285 22.0278 10.1725 21.0813 10.47 20.1493C10.6508 19.5483 10.8375 18.9268 10.9952 18.3077C11.6394 15.7787 13.2009 13.8199 15.7693 12.3195C19.234 10.2953 23.1074 9.35496 27.2717 9.51838C27.8037 9.53942 28.3459 9.59639 28.8711 9.65149Z" fill="#334155"/>
<path d="M19.8637 18.7408C20.7053 18.2571 21.5981 17.8689 22.5256 17.5835C23.4823 17.2984 24.489 17.1055 25.4624 16.919C25.7133 16.8708 25.9643 16.8228 26.2144 16.7731C26.5332 16.71 27.015 16.6143 27.0249 16.0502C27.0325 15.6075 26.739 15.3106 26.2403 15.2557C25.9782 15.2264 25.7144 15.216 25.4509 15.2246C23.681 15.2913 21.9007 15.7032 19.8488 16.5216C18.0616 17.2061 16.6056 18.5527 15.7825 20.2825C14.2996 23.3293 14.2118 26.5881 15.5222 29.9683C15.8912 30.9196 16.4463 32.1341 17.4725 33.0908C19.7717 35.2339 22.5689 36.3202 25.7871 36.3202C25.9397 36.3202 26.0927 36.3245 26.2459 36.3293C26.3868 36.334 26.5299 36.3388 26.6734 36.3388C26.8449 36.3401 27.0165 36.3308 27.1869 36.3109C29.4295 36.0335 31.1853 35.2806 32.5548 34.0092C35.126 31.622 36.2888 28.4252 36.012 24.5074C35.9728 23.9551 35.7014 23.4092 35.4622 22.9278C35.246 22.4934 34.7516 22.1617 34.2585 22.4046C33.9247 22.609 33.6806 22.9323 33.5756 23.3096C33.5115 23.5726 33.4894 23.8442 33.5105 24.1139C33.5139 24.2455 33.517 24.3698 33.5105 24.4913C33.494 24.7906 33.4866 25.095 33.4793 25.3896C33.4806 26.0666 33.428 26.7426 33.3223 27.411C32.6622 30.9239 30.6851 32.9866 27.446 33.5422C25.1641 33.933 22.9187 33.5075 20.7732 32.2765C19.9459 31.8018 19.1048 31.2408 18.5568 30.3562C16.9554 27.7704 16.5596 25.0175 17.3804 22.1738C17.8438 20.5645 18.6802 19.4092 19.8637 18.7408Z" fill="#334155"/>
<path d="M41.6728 6.79472C41.7002 6.65029 41.7295 6.50587 41.7589 6.36161C41.8606 5.91054 41.9334 5.45348 41.9771 4.99316C42.0377 4.17883 41.6611 3.88958 41.0334 3.6867C40.7918 3.60132 40.5317 3.58184 40.2801 3.63017C40.0282 3.67851 39.794 3.79295 39.6009 3.9618C37.8234 5.44844 36.031 6.95502 34.2734 8.43942C33.6414 8.9738 33.4184 9.65782 33.5764 10.5918C33.6775 11.1923 33.7403 11.8123 33.8009 12.412C33.8472 12.8679 33.8949 13.3389 33.9593 13.8016C34.0096 14.1652 33.9072 14.4116 33.5816 14.7107L33.436 14.8442C32.5371 15.6693 31.608 16.5224 30.7347 17.4046C29.1799 18.9755 27.612 20.5848 26.0944 22.141C25.3739 22.8805 24.6527 23.6196 23.931 24.3584C23.415 24.8861 23.5236 25.2924 23.7057 25.5403C23.773 25.6401 23.8635 25.7218 23.9695 25.7786C24.0754 25.8352 24.1936 25.8649 24.3137 25.8653C24.5593 25.8534 24.7951 25.7659 24.989 25.6146C25.3269 25.3635 25.647 25.0891 25.947 24.7936C27.6851 23.1508 29.4221 21.5065 31.158 19.8611L33.9795 17.1887C34.2637 16.9201 34.4665 16.7904 34.8271 16.8053C36.3665 16.8514 37.9312 16.8503 39.4446 16.8486C39.8741 16.8479 40.3037 16.8479 40.7334 16.8486H40.737C41.0018 16.8555 41.2646 16.8024 41.5061 16.6932C41.7475 16.5841 41.9611 16.4217 42.131 16.2182C43.3578 14.8161 44.6275 13.4097 45.8167 12.0986C46.4007 11.4547 46.9061 10.7837 46.6797 9.65744C46.4752 8.64489 46.3383 8.19685 45.2007 8.19052C44.6068 8.18959 44.0046 8.22105 43.4225 8.25418C43.0929 8.27279 42.7633 8.29144 42.4336 8.30373C42.1674 8.31341 41.9035 8.31132 41.5972 8.30872L41.3645 8.30686C41.3884 8.19034 41.4122 8.07609 41.4358 7.96404C41.5204 7.5579 41.6 7.17685 41.6728 6.79472ZM44.4206 10.5174L44.4667 10.5207L41.2823 14.5558H35.9386C35.9232 14.5019 35.9063 14.447 35.8894 14.3913C35.8115 14.1709 35.7617 13.9416 35.7407 13.7088C35.7171 13.0927 35.7182 12.4634 35.7191 11.8549C35.7191 11.4899 35.7204 11.1249 35.7159 10.7603C35.7115 10.4003 35.7639 10.1127 36.0331 9.88008C37.0394 9.0101 38.0422 8.13545 39.1065 7.20702L40.0052 6.42378C39.9961 6.56282 39.9884 6.66389 39.9734 6.76124C39.9305 7.03727 39.8823 7.31258 39.8342 7.58787C39.7429 8.11183 39.6483 8.65366 39.591 9.19362C39.5405 9.66975 39.607 9.99395 39.8005 10.2127C39.994 10.4314 40.2998 10.5354 40.7686 10.544C41.4533 10.557 42.149 10.5375 42.8212 10.519C43.1857 10.5092 43.5502 10.4993 43.9145 10.4941C44.0639 10.4937 44.2124 10.5036 44.4204 10.5181L44.4206 10.5174Z" fill="#334155"/>
</g>
<defs>
<clipPath id="clip0_2212_1915">
<rect width="50" height="51" fill="white"/>
</clipPath>
</defs>
</svg>
